<?xml version="1.0" encoding="utf-8"?>
<!-- Generator: Adobe Illustrator 19.0.0, SVG Export Plug-In . SVG Version: 6.00 Build 0)  -->
<svg version="1.1" id="Layer_1" xmlns="http://www.w3.org/2000/svg" xmlns:xlink="http://www.w3.org/1999/xlink" x="0px" y="0px"
	 viewBox="0 0 50 50" style="enable-background:new 0 0 50 50;" xml:space="preserve">
<style type="text/css">
	.st0{fill:none;stroke:#336699;stroke-width:2;stroke-miterlimit:10;}
	.st1{fill:#FFFFFF;}
</style>
<line class="st0" x1="8.4" y1="19.8" x2="24.9" y2="11.3"/>
<line class="st0" x1="24.9" y1="11.3" x2="40.7" y2="19.3"/>
<line class="st0" x1="8.6" y1="19.8" x2="24.9" y2="28.3"/>
<line class="st0" x1="40.7" y1="19.8" x2="24.9" y2="28.1"/>
<line class="st0" x1="24.9" y1="28.3" x2="24.9" y2="47.7"/>
<line class="st0" x1="24.4" y1="47.9" x2="42.1" y2="39.1"/>
<line class="st0" x1="41.1" y1="39.4" x2="41.1" y2="29.9"/>
<line class="st0" x1="7.9" y1="39.1" x2="25.2" y2="47.9"/>
<line class="st0" x1="24.9" y1="28.3" x2="32.5" y2="35.9"/>
<line class="st0" x1="31.5" y1="35.6" x2="47.5" y2="26.4"/>
<line class="st0" x1="47.7" y1="27.3" x2="40.7" y2="19.3"/>
<line class="st0" x1="2.2" y1="27.3" x2="8.6" y2="19.8"/>
<line class="st0" x1="2.3" y1="25.9" x2="18.5" y2="35.9"/>
<line class="st0" x1="17.4" y1="35.9" x2="24.9" y2="28.3"/>
<line class="st0" x1="3" y1="13.3" x2="18.9" y2="5"/>
<line class="st0" x1="18.5" y1="3.9" x2="24.9" y2="11.3"/>
<line class="st0" x1="2.3" y1="12.3" x2="8.6" y2="19.6"/>
<line class="st0" x1="31.1" y1="3.7" x2="25.1" y2="11"/>
<line class="st0" x1="29.9" y1="3.7" x2="47.4" y2="12.9"/>
<line class="st0" x1="46.6" y1="12.3" x2="40.7" y2="19.3"/>
<line class="st0" x1="8.6" y1="39.9" x2="8.6" y2="30.2"/>
<rect x="0.2" y="27" transform="matrix(0.826 0.5636 -0.5636 0.826 15.9719 3.7091)" class="st1" width="3.6" height="1.5"/>
<rect x="0.1" y="11.2" transform="matrix(0.876 -0.4823 0.4823 0.876 -5.5314 2.4237)" class="st1" width="3.6" height="1.5"/>
<rect x="16" y="2.8" transform="matrix(0.8941 -0.4478 0.4478 0.8941 0.2848 8.356)" class="st1" width="3.6" height="1.5"/>
<rect x="47.1" y="12.5" transform="matrix(0.826 0.5636 -0.5636 0.826 16.0882 -24.8569)" class="st1" width="2.5" height="2.3"/>
<rect x="46.8" y="26.3" transform="matrix(0.58 0.8146 -0.8146 0.58 42.9881 -26.8766)" class="st1" width="1.6" height="3.9"/>
<rect x="42.1" y="39.1" transform="matrix(0.9999 -1.262261e-02 1.262261e-02 0.9999 -0.4997 0.5416)" class="st1" width="1.1" height="1.5"/>
</svg>
