<?xml version="1.0" encoding="utf-8"?>
<!-- Generator: Adobe Illustrator 19.0.0, SVG Export Plug-In . SVG Version: 6.00 Build 0)  -->
<svg version="1.1" id="Layer_1" xmlns="http://www.w3.org/2000/svg" xmlns:xlink="http://www.w3.org/1999/xlink" x="0px" y="0px"
	 viewBox="-4 6 40 40" style="enable-background:new -4 6 40 40;" xml:space="preserve">
<style type="text/css">
	.st0{fill:#999999;}
	.st1{fill:#FDFDFE;}
	.st2{fill:#999999;stroke:#FFFFFF;stroke-width:0.5;stroke-miterlimit:10;}
	.st3{fill:#999999;stroke:#FCFCFC;stroke-width:0.5;stroke-miterlimit:10;}
</style>
<g id="XMLID_1_">
	<path id="XMLID_12_" class="st0" d="M18.4,29.2c-0.8,0.8-2.1,0.8-2.8,0l-1.8-1.8c-0.8-0.8-0.8-2.1,0-2.8L28,10.4
		c0.8-0.8,2.1-0.8,2.8,0l1.8,1.8c0.8,0.8,0.8,2.1,0,2.8L18.4,29.2z"/>
</g>
<g id="XMLID_2_">
	<path id="XMLID_15_" class="st0" d="M23,35.6c-0.8,0.8-2.1,0.8-2.8,0L7.1,22.5c-0.8-0.8-0.8-2.1,0-2.8l3.7-3.7
		c0.8-0.8,2.1-0.8,2.8,0l13.1,13.1c0.8,0.8,0.8,2.1,0,2.8L23,35.6z"/>
</g>
<g id="XMLID_3_">
	<path id="XMLID_19_" class="st0" d="M-1.1,28c2.5-2.5,9.9-9.9,9.9-9.9s0.1,0,0.2,0l15.7,15.8c0,0,0,0,0,0.1l-4.4,4.3
		c-0.4,0.4-1.1,0.5-1.6,0.3c0,0-4.5-2.2-4.5-2.3l-14.3-7.8C-0.1,28.5-1.2,28-1.1,28z"/>
</g>
<rect id="XMLID_4_" x="1.6" y="25.8" transform="matrix(0.7071 0.7071 -0.7071 0.7071 23.2233 -3.3526)" class="st1" width="28.2" height="1.1"/>
<path id="XMLID_5_" class="st0" d="M5.4,37H5.1c-0.5,0-0.9-0.4-0.9-0.9l0,0c0-0.5,0.4-0.9,0.9-0.9h0.3c0.5,0,0.9,0.4,0.9,0.9l0,0
	C6.3,36.6,5.9,37,5.4,37z"/>
<path id="XMLID_6_" class="st2" d="M10.3,40H9.5c-0.5,0-1-0.7-1-1.5l0,0c0-0.8,0.5-1.5,1-1.5h0.9c0.5,0,1,0.7,1,1.5l0,0
	C11.3,39.3,10.9,40,10.3,40z"/>
<path id="XMLID_7_" class="st3" d="M8.5,41.7L8.5,41.7c-1.1,0-2-0.8-2-1.8v-0.4c0-1,0.9-1.8,2-1.8l0,0c1.1,0,2,0.8,2,1.8v0.4
	C10.5,40.9,9.6,41.7,8.5,41.7z"/>
<path id="XMLID_8_" class="st0" d="M2.7,42H2.5C1.7,42,1,41.3,1,40.5l0,0C1,39.7,1.7,39,2.5,39h0.2c0.8,0,1.5,0.7,1.5,1.5l0,0
	C4.2,41.3,3.5,42,2.7,42z"/>
</svg>
