<?xml version="1.0" encoding="utf-8"?>
<!-- Generator: Adobe Illustrator 19.0.0, SVG Export Plug-In . SVG Version: 6.00 Build 0)  -->
<svg version="1.1" id="Layer_1" xmlns="http://www.w3.org/2000/svg" xmlns:xlink="http://www.w3.org/1999/xlink" x="0px" y="0px"
	 viewBox="-4 6 40 40" style="enable-background:new -4 6 40 40;" xml:space="preserve">
<style type="text/css">
	.st0{fill:#C4767D;}
	.st1{fill:#FDFDFE;}
	.st2{fill:#6C7A89;}
</style>
<g id="XMLID_1_">
	<path id="XMLID_23_" class="st0" d="M17.7,30.5c-0.8,0.8-2.1,0.8-2.8,0l-1.8-1.8c-0.8-0.8-0.8-2.1,0-2.8l14.2-14.2
		c0.8-0.8,2.1-0.8,2.8,0l1.8,1.8c0.8,0.8,0.8,2.1,0,2.8L17.7,30.5z"/>
</g>
<g id="XMLID_2_">
	<path id="XMLID_22_" class="st0" d="M22.3,36.9c-0.8,0.8-2.1,0.8-2.8,0L6.4,23.8c-0.8-0.8-0.8-2.1,0-2.8l3.7-3.7
		c0.8-0.8,2.1-0.8,2.8,0L26,30.4c0.8,0.8,0.8,2.1,0,2.8L22.3,36.9z"/>
</g>
<g id="XMLID_3_">
	<path id="XMLID_21_" class="st0" d="M-1.8,29.3c2.5-2.5,9.9-9.9,9.9-9.9s0.1,0,0.2,0L24,35.2c0,0,0,0,0,0.1l-4.4,4.3
		c-0.4,0.4-1.1,0.5-1.6,0.3c0,0-4.5-2.2-4.5-2.3l-14.3-7.8C-0.8,29.8-1.9,29.3-1.8,29.3z"/>
</g>
<rect id="XMLID_4_" x="0.9" y="27.1" transform="matrix(-0.7071 -0.7071 0.7071 -0.7071 6.0622 57.8145)" class="st1" width="28.2" height="1.1"/>
<path id="XMLID_5_" class="st2" d="M4.7,38.3H4.4c-0.5,0-0.9-0.4-0.9-0.9l0,0c0-0.5,0.4-0.9,0.9-0.9h0.3c0.5,0,0.9,0.4,0.9,0.9l0,0
	C5.6,37.9,5.2,38.3,4.7,38.3z"/>
<path id="XMLID_6_" class="st2" d="M11,41.8H9.7c-0.8,0-1.5-0.7-1.5-1.5l0,0c0-0.8,0.7-1.5,1.5-1.5H11c0.8,0,1.5,0.7,1.5,1.5l0,0
	C12.5,41.1,11.8,41.8,11,41.8z"/>
<path id="XMLID_7_" class="st2" d="M8.4,43.5L8.4,43.5c-1.1,0-2-0.9-2-2v-0.4c0-1.1,0.9-2,2-2l0,0c1.1,0,2,0.9,2,2v0.4
	C10.4,42.6,9.5,43.5,8.4,43.5z"/>
<path id="XMLID_8_" class="st2" d="M2,43.3H1.8c-0.8,0-1.5-0.7-1.5-1.5l0,0c0-0.8,0.7-1.5,1.5-1.5H2c0.8,0,1.5,0.7,1.5,1.5l0,0
	C3.5,42.6,2.8,43.3,2,43.3z"/>
</svg>
