<?xml version="1.0" encoding="utf-8"?>
<!-- Generator: Adobe Illustrator 19.0.0, SVG Export Plug-In . SVG Version: 6.00 Build 0)  -->
<svg version="1.1" id="Layer_1" xmlns="http://www.w3.org/2000/svg" xmlns:xlink="http://www.w3.org/1999/xlink" x="0px" y="0px"
	 viewBox="0 0 50 50" style="enable-background:new 0 0 50 50;" xml:space="preserve">
<style type="text/css">
	.st0{fill:#4A494A;}
</style>
<path id="XMLID_1_" class="st0" d="M25,29.2L25,29.2c-2.3,0-4.3-1.9-4.3-4.2v0c0-2.3,1.9-4.2,4.2-4.2h0c2.3,0,4.2,1.9,4.2,4.2v0
	C29.2,27.3,27.3,29.2,25,29.2z"/>
<path id="XMLID_2_" class="st0" d="M25,47.2L25,47.2c-2.3,0-4.3-1.9-4.3-4.2v0c0-2.3,1.9-4.2,4.2-4.2h0c2.3,0,4.2,1.9,4.2,4.2v0
	C29.2,45.3,27.3,47.2,25,47.2z"/>
<path id="XMLID_3_" class="st0" d="M25,11.6L25,11.6c-2.3,0-4.3-1.9-4.3-4.2v0c0-2.3,1.9-4.2,4.2-4.2h0c2.3,0,4.2,1.9,4.2,4.2v0
	C29.2,9.7,27.3,11.6,25,11.6z"/>
</svg>
