<?xml version="1.0" encoding="utf-8"?>
<!-- Generator: Adobe Illustrator 19.0.0, SVG Export Plug-In . SVG Version: 6.00 Build 0)  -->
<svg version="1.1" id="Layer_1" xmlns="http://www.w3.org/2000/svg" xmlns:xlink="http://www.w3.org/1999/xlink" x="0px" y="0px"
	 viewBox="0 0 50 50" style="enable-background:new 0 0 50 50;" xml:space="preserve">
<style type="text/css">
	.st0{fill:#E7E7E7;}
	.st1{fill:#336699;}
</style>
<circle id="XMLID_1_" class="st0" cx="25" cy="25" r="23.4"/>
<g>
	<path class="st1" d="M20.9,28.5c1,0.9,2.1,1.6,3.4,1.6c1.6,0,2.7-0.9,2.7-2.5c0-1.6-1-2.5-2.5-2.5c-0.9,0-1.4,0.2-2.4,0.8l-1.7-1.1
		l0.5-8.1h9V20h-5.8l-0.3,3c0.6-0.3,1.1-0.4,1.8-0.4c2.7,0,5.1,1.6,5.1,4.9c0,3.5-2.7,5.6-5.8,5.6c-2.6,0-4.4-1-5.6-2.2L20.9,28.5z"
		/>
</g>
</svg>
