<?xml version="1.0" encoding="utf-8"?>
<!-- Generator: Adobe Illustrator 19.0.0, SVG Export Plug-In . SVG Version: 6.00 Build 0)  -->
<svg version="1.1" id="Layer_1" xmlns="http://www.w3.org/2000/svg" xmlns:xlink="http://www.w3.org/1999/xlink" x="0px" y="0px"
	 viewBox="0 0 50 50" style="enable-background:new 0 0 50 50;" xml:space="preserve">
<style type="text/css">
	.st0{fill:#E7E7E7;}
	.st1{fill:#336699;}
</style>
<circle id="XMLID_1_" class="st0" cx="25" cy="25.4" r="23.4"/>
<g>
	<path class="st1" d="M21,28.7c1,0.9,2.1,1.6,3.5,1.6c1.6,0,2.6-0.7,2.6-1.9c0-1.4-0.8-2.3-4.3-2.3v-2.6c2.9,0,3.8-0.9,3.8-2.1
		c0-1.1-0.7-1.8-2-1.8c-1.1,0-2,0.5-3,1.4l-1.9-2.3c1.5-1.3,3.1-2,5-2c3.3,0,5.5,1.6,5.5,4.4c0,1.7-1,2.8-2.7,3.5v0.1
		c1.8,0.5,3.2,1.8,3.2,3.9c0,3-2.7,4.6-5.9,4.6c-2.6,0-4.4-0.9-5.5-2.3L21,28.7z"/>
</g>
</svg>
