<?xml version="1.0" encoding="utf-8"?>
<!-- Generator: Adobe Illustrator 19.0.0, SVG Export Plug-In . SVG Version: 6.00 Build 0)  -->
<svg version="1.1" id="Layer_1" xmlns="http://www.w3.org/2000/svg" xmlns:xlink="http://www.w3.org/1999/xlink" x="0px" y="0px"
	 viewBox="0 0 50 50" style="enable-background:new 0 0 50 50;" xml:space="preserve">
<style type="text/css">
	.st0{fill:#E7E7E7;}
	.st1{fill:#336699;}
</style>
<circle id="XMLID_1_" class="st0" cx="25" cy="25" r="23.4"/>
<g>
	<path class="st1" d="M22.1,25L22.1,25c-1.2-1-2.1-2.2-2.1-3.9c0-2.7,2.1-4.4,5.1-4.4c2.9,0,4.8,1.7,4.8,4.4c0,1.5-1,2.8-2.1,3.5
		v0.1c1.5,0.8,2.8,2.1,2.8,4.2c0,2.5-2.3,4.4-5.6,4.4c-3.2,0-5.5-1.8-5.5-4.4C19.4,27,20.6,25.8,22.1,25z M25,30.7
		c1.2,0,2.1-0.7,2.1-2c0-1.4-1.4-1.9-3.4-2.8c-0.7,0.7-1.2,1.6-1.2,2.5C22.6,29.9,23.7,30.7,25,30.7z M26.9,21.4
		c0-1.2-0.7-2.1-1.9-2.1c-1,0-1.8,0.6-1.8,1.8c0,1.3,1.1,1.9,2.7,2.6C26.6,23,26.9,22.2,26.9,21.4z"/>
</g>
</svg>
