<?xml version="1.0" encoding="utf-8"?>
<!-- Generator: Adobe Illustrator 19.0.0, SVG Export Plug-In . SVG Version: 6.00 Build 0)  -->
<svg version="1.1" id="Layer_1" xmlns="http://www.w3.org/2000/svg" xmlns:xlink="http://www.w3.org/1999/xlink" x="0px" y="0px"
	 viewBox="0 0 50 50" style="enable-background:new 0 0 50 50;" xml:space="preserve">
<style type="text/css">
	.st0{fill:#E7E7E7;}
	.st1{fill:#336699;}
</style>
<circle id="XMLID_1_" class="st0" cx="25" cy="25" r="23.4"/>
<g>
	<path class="st1" d="M13.6,30h3.5v-9.2h-3v-2.3c1.7-0.3,2.8-0.8,4-1.5h2.7V30h3v3H13.6V30z"/>
	<path class="st1" d="M26,24.9c0-5.4,2.3-8.2,5.7-8.2c3.4,0,5.7,2.8,5.7,8.2c0,5.4-2.3,8.3-5.7,8.3C28.3,33.3,26,30.4,26,24.9z
		 M33.9,24.9c0-4.4-1-5.3-2.2-5.3c-1.2,0-2.2,1-2.2,5.3c0,4.3,1,5.5,2.2,5.5C33,30.4,33.9,29.3,33.9,24.9z"/>
</g>
</svg>
