<?xml version="1.0" encoding="utf-8"?>
<!-- Generator: Adobe Illustrator 19.0.0, SVG Export Plug-In . SVG Version: 6.00 Build 0)  -->
<svg version="1.1" id="Layer_1" xmlns="http://www.w3.org/2000/svg" xmlns:xlink="http://www.w3.org/1999/xlink" x="0px" y="0px"
	 viewBox="75 -75 200 200" style="enable-background:new 75 -75 200 200;" xml:space="preserve">
<style type="text/css">
	.st0{fill:url(#XMLID_23_);}
	.st1{fill:url(#XMLID_25_);}
	.st2{fill:url(#XMLID_26_);}
	.st3{fill:url(#XMLID_28_);}
	.st4{fill:url(#XMLID_29_);}
	.st5{fill:#E7E7E7;}
	.st6{fill:none;stroke:#E6E7E8;stroke-width:5;stroke-miterlimit:10;}
	.st7{fill:none;stroke:#E6E7E8;stroke-width:3;stroke-miterlimit:10;}
	.st8{fill:url(#XMLID_31_);}
	.st9{fill:url(#XMLID_32_);}
	.st10{fill:url(#XMLID_33_);}
	.st11{fill:url(#XMLID_34_);}
	.st12{fill:#C4C4C4;}
</style>
<linearGradient id="XMLID_23_" gradientUnits="userSpaceOnUse" x1="127.242" y1="-57.7192" x2="222.758" y2="107.7192" gradientTransform="matrix(1 0 0 -1 0 50)">
	<stop  offset="5.102041e-03" style="stop-color:#4D8AC9"/>
	<stop  offset="0.4034" style="stop-color:#4893CF;stop-opacity:0.6797"/>
	<stop  offset="0.5468" style="stop-color:#3BABDF;stop-opacity:0.5644"/>
	<stop  offset="0.6491" style="stop-color:#5E94CA;stop-opacity:0.4821"/>
	<stop  offset="0.7318" style="stop-color:#62B0DD;stop-opacity:0.4156"/>
	<stop  offset="0.8027" style="stop-color:#77B5DB;stop-opacity:0.3587"/>
	<stop  offset="0.8653" style="stop-color:#8FBBDA;stop-opacity:0.3083"/>
	<stop  offset="0.9221" style="stop-color:#A8C3D8;stop-opacity:0.2626"/>
	<stop  offset="0.9725" style="stop-color:#C1CBD5;stop-opacity:0.2221"/>
	<stop  offset="1" style="stop-color:#D1D3D4;stop-opacity:0.2"/>
</linearGradient>
<circle id="XMLID_1_" class="st0" cx="175" cy="25" r="95.5"/>
<linearGradient id="XMLID_25_" gradientUnits="userSpaceOnUse" x1="127.242" y1="-58.5192" x2="222.758" y2="106.9192" gradientTransform="matrix(1 0 0 -1 0 50)">
	<stop  offset="5.102041e-03" style="stop-color:#27AAE1;stop-opacity:0.5"/>
	<stop  offset="0.4034" style="stop-color:#597ABC;stop-opacity:0.7"/>
	<stop  offset="0.5468" style="stop-color:#3BABDF;stop-opacity:0.5644"/>
	<stop  offset="0.6491" style="stop-color:#4DADDE;stop-opacity:0.4821"/>
	<stop  offset="0.7318" style="stop-color:#62B0DD;stop-opacity:0.4156"/>
	<stop  offset="0.8027" style="stop-color:#77B5DB;stop-opacity:0.3587"/>
	<stop  offset="0.8653" style="stop-color:#8FBBDA;stop-opacity:0.3083"/>
	<stop  offset="0.9221" style="stop-color:#A8C3D8;stop-opacity:0.2626"/>
	<stop  offset="0.9725" style="stop-color:#C1CBD5;stop-opacity:0.2221"/>
	<stop  offset="1" style="stop-color:#D1D3D4;stop-opacity:0.2"/>
</linearGradient>
<circle id="XMLID_2_" class="st1" cx="175" cy="25.8" r="95.5"/>
<linearGradient id="XMLID_26_" gradientUnits="userSpaceOnUse" x1="222.758" y1="-58.5192" x2="127.242" y2="106.9192" gradientTransform="matrix(1 0 0 -1 0 50)">
	<stop  offset="5.102041e-03" style="stop-color:#4594D0"/>
	<stop  offset="0.4034" style="stop-color:#4D8DCB;stop-opacity:0.8"/>
	<stop  offset="0.5468" style="stop-color:#3BABDF;stop-opacity:0.5644"/>
	<stop  offset="0.6491" style="stop-color:#4DADDE;stop-opacity:0.4821"/>
	<stop  offset="0.7318" style="stop-color:#62B0DD;stop-opacity:0.4156"/>
	<stop  offset="0.8027" style="stop-color:#77B5DB;stop-opacity:0.3587"/>
	<stop  offset="0.8653" style="stop-color:#8FBBDA;stop-opacity:0.3083"/>
	<stop  offset="0.9221" style="stop-color:#A8C3D8;stop-opacity:0.2626"/>
	<stop  offset="0.9725" style="stop-color:#C1CBD5;stop-opacity:0.2221"/>
	<stop  offset="1" style="stop-color:#D1D3D4;stop-opacity:0.5"/>
</linearGradient>
<circle id="XMLID_3_" class="st2" cx="175" cy="25.8" r="95.5"/>
<linearGradient id="XMLID_28_" gradientUnits="userSpaceOnUse" x1="127.242" y1="-58.5192" x2="222.758" y2="106.9192" gradientTransform="matrix(1 0 0 -1 0 50)">
	<stop  offset="5.102041e-03" style="stop-color:#1E81AB;stop-opacity:0.2"/>
	<stop  offset="0.5478" style="stop-color:#5594CF;stop-opacity:0.3818"/>
	<stop  offset="0.7433" style="stop-color:#0086B2;stop-opacity:0.3032"/>
	<stop  offset="0.8821" style="stop-color:#008EBB;stop-opacity:0.2474"/>
	<stop  offset="0.9941" style="stop-color:#0099C9;stop-opacity:0.2024"/>
	<stop  offset="1" style="stop-color:#009ACA;stop-opacity:0.2"/>
</linearGradient>
<circle id="XMLID_4_" class="st3" cx="175" cy="25.8" r="95.5"/>
<linearGradient id="XMLID_29_" gradientUnits="userSpaceOnUse" x1="242.5287" y1="-43.3287" x2="107.4713" y2="91.7287" gradientTransform="matrix(1 0 0 -1 0 50)">
	<stop  offset="5.102041e-03" style="stop-color:#31A2F3;stop-opacity:0.3"/>
	<stop  offset="0.4312" style="stop-color:#1C76BC;stop-opacity:0.2572"/>
	<stop  offset="0.5848" style="stop-color:#1C78BC;stop-opacity:0.2417"/>
	<stop  offset="0.6942" style="stop-color:#1D7CBD;stop-opacity:0.2307"/>
	<stop  offset="0.7826" style="stop-color:#1E83C0;stop-opacity:0.2218"/>
	<stop  offset="0.8584" style="stop-color:#1F8BC3;stop-opacity:0.2142"/>
	<stop  offset="0.9254" style="stop-color:#2295C7;stop-opacity:0.2075"/>
	<stop  offset="0.9846" style="stop-color:#26A0CA;stop-opacity:0.2015"/>
	<stop  offset="1" style="stop-color:#25A4CC;stop-opacity:0.5"/>
</linearGradient>
<circle id="XMLID_5_" class="st4" cx="175" cy="25.8" r="95.5"/>
<circle id="XMLID_6_" class="st5" cx="138.5" cy="-13.6" r="15.2"/>
<circle id="XMLID_8_" class="st5" cx="140.8" cy="62" r="15.2"/>
<circle id="XMLID_10_" class="st5" cx="221.3" cy="5.7" r="15.2"/>
<circle id="XMLID_9_" class="st5" cx="221.3" cy="43.5" r="15.2"/>
<line id="XMLID_11_" class="st6" x1="140.8" y1="-12" x2="225.8" y2="6.5"/>
<line id="XMLID_12_" class="st7" x1="137.9" y1="25.8" x2="222.9" y2="7.3"/>
<line id="XMLID_15_" class="st7" x1="221.3" y1="42.7" x2="136.3" y2="24.2"/>
<line id="XMLID_16_" class="st6" x1="225.8" y1="43.5" x2="140.8" y2="62"/>
<linearGradient id="XMLID_31_" gradientUnits="userSpaceOnUse" x1="199.1" y1="14.6" x2="199.1" y2="14.6" gradientTransform="matrix(1 0 0 -1 0 50)">
	<stop  offset="5.102041e-03" style="stop-color:#E6E7E8;stop-opacity:0.3"/>
	<stop  offset="0.2396" style="stop-color:#E5E6E7;stop-opacity:0.248"/>
	<stop  offset="0.3241" style="stop-color:#DFE0E1;stop-opacity:0.2292"/>
	<stop  offset="0.3843" style="stop-color:#D5D7D8;stop-opacity:0.2159"/>
	<stop  offset="0.4326" style="stop-color:#C7C9CB;stop-opacity:0.2052"/>
	<stop  offset="0.4559" style="stop-color:#BEC0C2;stop-opacity:0.2"/>
	<stop  offset="0.8636" style="stop-color:#848689;stop-opacity:0.2"/>
</linearGradient>
<path id="XMLID_22_" class="st8" d="M199.1,35.4"/>
<linearGradient id="XMLID_32_" gradientUnits="userSpaceOnUse" x1="186.4661" y1="9.2267" x2="178.9339" y2="22.2733" gradientTransform="matrix(1 0 0 -1 0 50)">
	<stop  offset="5.102041e-03" style="stop-color:#E6E7E8;stop-opacity:0.3"/>
	<stop  offset="6.312864e-02" style="stop-color:#E2E3E4;stop-opacity:0.3"/>
	<stop  offset="0.1333" style="stop-color:#D6D7D9;stop-opacity:0.3"/>
	<stop  offset="0.2099" style="stop-color:#C1C3C5;stop-opacity:0.3"/>
	<stop  offset="0.291" style="stop-color:#A5A8AA;stop-opacity:0.3"/>
	<stop  offset="0.3756" style="stop-color:#848688;stop-opacity:0.3"/>
	<stop  offset="0.4619" style="stop-color:#5B5C5E;stop-opacity:0.3"/>
	<stop  offset="0.5001" style="stop-color:#434345;stop-opacity:0.3"/>
	<stop  offset="0.6777" style="stop-color:#86888B;stop-opacity:0.2645"/>
	<stop  offset="0.8312" style="stop-color:#B9BBBD;stop-opacity:0.2338"/>
	<stop  offset="0.9424" style="stop-color:#DADBDC;stop-opacity:0.2115"/>
	<stop  offset="1" style="stop-color:#E6E7E8;stop-opacity:0.2"/>
</linearGradient>
<path id="XMLID_17_" class="st9" d="M169.8,33c1.9-0.6,3.8-1.2,5.7-1.9c6.7,1.5,13.4,2.9,20.1,4.4c-1.8,0.6-3.7,1.2-5.5,1.8
	C183.3,35.9,176.5,34.5,169.8,33z"/>
<linearGradient id="XMLID_33_" gradientUnits="userSpaceOnUse" x1="226.2251" y1="51.6259" x2="222.2905" y2="62.2326" gradientTransform="matrix(0.9089 -0.417 -0.417 -0.9089 4.2711 161.018)">
	<stop  offset="5.102041e-03" style="stop-color:#E6E7E8;stop-opacity:0.3"/>
	<stop  offset="0.2247" style="stop-color:#999B9E;stop-opacity:0.3"/>
	<stop  offset="0.4172" style="stop-color:#5E5F61;stop-opacity:0.3"/>
	<stop  offset="0.5052" style="stop-color:#434345;stop-opacity:0.3"/>
	<stop  offset="0.5601" style="stop-color:#49494A;stop-opacity:0.2889"/>
	<stop  offset="0.6312" style="stop-color:#57585A;stop-opacity:0.2745"/>
	<stop  offset="0.7112" style="stop-color:#6D6F71;stop-opacity:0.2584"/>
	<stop  offset="0.7978" style="stop-color:#898B8E;stop-opacity:0.2409"/>
	<stop  offset="0.8896" style="stop-color:#AEB0B3;stop-opacity:0.2223"/>
	<stop  offset="0.9845" style="stop-color:#DEDFE0;stop-opacity:0.2031"/>
	<stop  offset="1" style="stop-color:#E6E7E8;stop-opacity:0.2"/>
</linearGradient>
<path id="XMLID_18_" class="st10" d="M172.1,20c1.5-1.4,2.9-2.7,4.4-4.1c6.7-1.5,13.4-2.9,20.1-4.4c-1.4,1.3-2.8,2.6-4.2,4
	C185.6,17,178.9,18.5,172.1,20z"/>
<line id="XMLID_14_" class="st6" x1="225.8" y1="43.5" x2="140.8" y2="-12"/>
<linearGradient id="XMLID_34_" gradientUnits="userSpaceOnUse" x1="179.0082" y1="-82.6698" x2="161.9317" y2="-89.3607" gradientTransform="matrix(0.4004 0.9163 0.9163 -0.4004 208.3005 -165.5512)">
	<stop  offset="5.102041e-03" style="stop-color:#E6E7E8;stop-opacity:0.3"/>
	<stop  offset="6.761954e-02" style="stop-color:#E2E3E4;stop-opacity:0.3"/>
	<stop  offset="0.1381" style="stop-color:#D7D8DA;stop-opacity:0.3"/>
	<stop  offset="0.2126" style="stop-color:#C4C6C8;stop-opacity:0.3"/>
	<stop  offset="0.2897" style="stop-color:#AAACAF;stop-opacity:0.3"/>
	<stop  offset="0.369" style="stop-color:#8B8D8F;stop-opacity:0.3"/>
	<stop  offset="0.4489" style="stop-color:#666769;stop-opacity:0.3"/>
	<stop  offset="0.5052" style="stop-color:#434345;stop-opacity:0.3"/>
	<stop  offset="0.5903" style="stop-color:#5D5E61;stop-opacity:0.2828"/>
	<stop  offset="0.7756" style="stop-color:#96999B;stop-opacity:0.2454"/>
	<stop  offset="1" style="stop-color:#E6E7E8;stop-opacity:0.2"/>
</linearGradient>
<path id="XMLID_19_" class="st11" d="M188.1,21.8c1.7-0.9,3.4-1.8,5.1-2.7c4.8,3.1,9.5,6.2,14.2,9.3c-2,0.7-4,1.4-6,2.1
	C196.9,27.6,192.5,24.7,188.1,21.8z"/>
<line id="XMLID_13_" class="st6" x1="140.8" y1="62" x2="225.8" y2="6.5"/>
<circle id="XMLID_7_" class="st5" cx="138.5" cy="23.1" r="15.2"/>
<path id="XMLID_20_" class="st12" d="M133.8,67.9c-3.1-4.4-5-9.4-5.6-14.4c-3.4,5.1-3.6,12,0.2,17.3c3.5,5,9.5,7.2,15.1,6.2
	C139.8,74.6,136.5,71.6,133.8,67.9z"/>
<path id="XMLID_24_" class="st12" d="M130.9-18.6c3.4-4.3,7.6-7.4,12.3-9.4c-5.8-1.8-12.5,0-16.5,5.1c-3.8,4.8-4.2,11.2-1.6,16.3
	C126.1-11,128-15,130.9-18.6z"/>
<path id="XMLID_27_" class="st12" d="M228-0.5c3.3,4.3,5.4,9.2,6.2,14.2c3.2-5.2,3.1-12.1-0.9-17.2c-3.7-4.8-9.8-6.8-15.4-5.5
	C221.7-7,225.2-4.2,228-0.5z"/>
<path id="XMLID_30_" class="st12" d="M229,48.5c-3.3,4.3-7.6,7.5-12.2,9.5c5.9,1.8,12.5,0,16.5-5.2c3.8-4.8,4.1-11.2,1.5-16.3
	C233.7,40.8,231.8,44.8,229,48.5z"/>
</svg>
