<?xml version="1.0" encoding="utf-8"?>
<!-- Generator: Adobe Illustrator 19.0.0, SVG Export Plug-In . SVG Version: 6.00 Build 0)  -->
<svg version="1.1" id="Layer_1" xmlns="http://www.w3.org/2000/svg" xmlns:xlink="http://www.w3.org/1999/xlink" x="0px" y="0px"
	 viewBox="0 0 50 50" style="enable-background:new 0 0 50 50;" xml:space="preserve">
<style type="text/css">
	.st0{fill:#E7E7E7;}
	.st1{fill:#336699;}
</style>
<circle id="XMLID_1_" class="st0" cx="25" cy="25" r="23.4"/>
<g>
	<path class="st1" d="M28.5,20.8c-0.6-0.6-1.6-1.1-2.5-1.1c-1.8,0-3.2,1.3-3.3,5c0.8-1.1,2.2-1.7,3.2-1.7c2.7,0,4.7,1.6,4.7,4.9
		c0,3.3-2.4,5.3-5.3,5.3c-3.1,0-6-2.3-6-7.9c0-5.9,3.1-8.6,6.4-8.6c2.1,0,3.6,0.9,4.6,1.9L28.5,20.8z M27.3,27.9
		c0-1.7-0.9-2.3-2.1-2.3c-0.8,0-1.7,0.4-2.4,1.6c0.3,2.5,1.4,3.3,2.5,3.3S27.3,29.7,27.3,27.9z"/>
</g>
</svg>
