<?xml version="1.0" encoding="utf-8"?>
<!-- Generator: Adobe Illustrator 19.0.0, SVG Export Plug-In . SVG Version: 6.00 Build 0)  -->
<svg version="1.1" id="Layer_1" xmlns="http://www.w3.org/2000/svg" xmlns:xlink="http://www.w3.org/1999/xlink" x="0px" y="0px"
	 viewBox="0 0 50 50" style="enable-background:new 0 0 50 50;" xml:space="preserve">
<style type="text/css">
	.st0{fill:#E7E7E7;}
	.st1{fill:#336699;}
</style>
<circle id="XMLID_1_" class="st0" cx="25" cy="25" r="23.4"/>
<g>
	<path class="st1" d="M22.4,29.2c0.5,0.6,1.5,1.1,2.5,1.1c1.8,0,3.2-1.3,3.3-5c-0.8,1.1-2.2,1.7-3.2,1.7c-2.7,0-4.7-1.6-4.7-4.9
		c0-3.3,2.4-5.3,5.3-5.3c3.1,0,6,2.3,6,7.9c0,5.9-3.1,8.6-6.4,8.6c-2.1,0-3.7-0.9-4.7-1.9L22.4,29.2z M28.1,22.8
		c-0.3-2.5-1.4-3.3-2.5-3.3c-1.1,0-2,0.8-2,2.6c0,1.7,0.9,2.3,2.1,2.3C26.5,24.4,27.4,24,28.1,22.8z"/>
</g>
</svg>
