<?xml version="1.0" encoding="utf-8"?>
<!-- Generator: Adobe Illustrator 19.0.0, SVG Export Plug-In . SVG Version: 6.00 Build 0)  -->
<svg version="1.1" id="Layer_1" xmlns="http://www.w3.org/2000/svg" xmlns:xlink="http://www.w3.org/1999/xlink" x="0px" y="0px"
	 viewBox="60 56 330 100" style="enable-background:new 60 56 330 100;" xml:space="preserve">
<style type="text/css">
	.st0{fill:#F7F7F7;}
	.st1{fill:#EAEAEA;}
	.st2{fill:#264E6E;}
</style>
<g id="XMLID_1_">
	<path class="st0" d="M375,139.1c0,2.2-1.8,4-4,4H75.8c-2.2,0-4-1.8-4-4V77.5c0-2.2,1.8-4,4-4H371c2.2,0,4,1.8,4,4V139.1z"/>
</g>
<g id="XMLID_9_">
	<path id="XMLID_26_" class="st1" d="M-446.2,689.1c0,1.7-1.3,3-3,3h-319.4c-1.7,0-3-1.3-3-3v-63.6c0-1.7,1.3-3,3-3h319.4
		c1.7,0,3,1.3,3,3L-446.2,689.1L-446.2,689.1z"/>
</g>
<g id="XMLID_192_">
	<path id="XMLID_193_" class="st2" d="M83.4,88.4h2.9c1.9,0,3.2,0.7,3.2,2.6c0,1.9-1.4,2.8-3.2,2.8h-1.4v3.1h-1.5V88.4z M86.1,92.6
		c1.3,0,1.9-0.5,1.9-1.5c0-1.1-0.6-1.4-1.9-1.4h-1.2v3L86.1,92.6L86.1,92.6z"/>
	<path id="XMLID_196_" class="st2" d="M90.9,87.8h1.5v7.6c0,0.4,0.2,0.5,0.3,0.5c0.1,0,0.1,0,0.2,0l0.2,1.1
		c-0.2,0.1-0.4,0.1-0.8,0.1c-1.1,0-1.5-0.7-1.5-1.8L90.9,87.8L90.9,87.8z"/>
	<path id="XMLID_198_" class="st2" d="M97.1,90.4c1.6,0,3,1.2,3,3.4c0,2.1-1.4,3.3-3,3.3s-3-1.2-3-3.3C94,91.6,95.5,90.4,97.1,90.4z
		 M97.1,95.9c0.9,0,1.5-0.8,1.5-2.1s-0.6-2.1-1.5-2.1s-1.5,0.8-1.5,2.1C95.6,95,96.1,95.9,97.1,95.9z"/>
	<path id="XMLID_201_" class="st2" d="M101.8,91.7h-0.9v-1.1l1-0.1l0.2-1.7h1.2v1.7h1.6v1.2h-1.6v3c0,0.8,0.3,1.1,0.9,1.1
		c0.2,0,0.5-0.1,0.7-0.1l0.3,1.1c-0.4,0.1-0.8,0.2-1.3,0.2c-1.5,0-2-0.9-2-2.3L101.8,91.7L101.8,91.7z"/>
	<path id="XMLID_203_" class="st2" d="M109,95.2c0.6,0.4,1.1,0.7,1.8,0.7c0.7,0,1-0.3,1-0.8s-0.7-0.8-1.4-1
		c-0.8-0.3-1.8-0.8-1.8-1.9c0-1.1,0.9-1.9,2.3-1.9c0.9,0,1.6,0.4,2.1,0.8l-0.7,0.9c-0.4-0.3-0.9-0.5-1.4-0.5c-0.6,0-0.9,0.3-0.9,0.7
		c0,0.5,0.6,0.7,1.3,0.9c0.9,0.3,1.8,0.7,1.8,1.9c0,1.1-0.9,2-2.5,2c-0.9,0-1.8-0.4-2.4-0.9L109,95.2z"/>
	<path id="XMLID_205_" class="st2" d="M114.5,87.8h1.5v2.4v1.2c0.5-0.5,1.2-1,2-1c1.4,0,2,0.9,2,2.5v4h-1.5v-3.8
		c0-1.1-0.3-1.4-1-1.4c-0.6,0-0.9,0.3-1.5,0.8V97h-1.5V87.8z"/>
	<path id="XMLID_207_" class="st2" d="M124.4,90.4c1.6,0,3,1.2,3,3.4c0,2.1-1.4,3.3-3,3.3s-3-1.2-3-3.3
		C121.4,91.6,122.8,90.4,124.4,90.4z M124.4,95.9c0.9,0,1.5-0.8,1.5-2.1s-0.6-2.1-1.5-2.1s-1.5,0.8-1.5,2.1
		C122.9,95,123.5,95.9,124.4,95.9z"/>
	<path id="XMLID_210_" class="st2" d="M128.2,90.6h1.5l0.8,3.3c0.1,0.6,0.2,1.2,0.3,1.8h0.1c0.1-0.6,0.2-1.2,0.4-1.8l0.8-3.3h1.4
		l0.8,3.3c0.2,0.6,0.3,1.2,0.4,1.8h0.1c0.1-0.6,0.2-1.2,0.3-1.8l0.8-3.3h1.4l-1.6,6.4h-1.8l-0.7-3c-0.1-0.6-0.2-1.2-0.4-1.9h-0.1
		c-0.1,0.7-0.2,1.3-0.4,1.9l-0.7,3h-1.7L128.2,90.6z"/>
	<path id="XMLID_212_" class="st2" d="M138.6,95.2c0.6,0.4,1.1,0.7,1.8,0.7c0.7,0,1-0.3,1-0.8s-0.7-0.8-1.4-1
		c-0.8-0.3-1.8-0.8-1.8-1.9c0-1.1,0.9-1.9,2.3-1.9c0.9,0,1.6,0.4,2.1,0.8l-0.6,1c-0.4-0.3-0.9-0.5-1.4-0.5c-0.6,0-0.9,0.3-0.9,0.7
		c0,0.5,0.6,0.7,1.3,0.9c0.9,0.3,1.8,0.7,1.8,1.9c0,1.1-0.9,2-2.5,2c-0.9,0-1.8-0.4-2.4-0.9L138.6,95.2z"/>
	<path id="XMLID_214_" class="st2" d="M147.1,91.7h-0.9v-1.1l1-0.1l0.2-1.7h1.2v1.7h1.6v1.2h-1.6v3c0,0.8,0.3,1.1,0.9,1.1
		c0.2,0,0.5-0.1,0.7-0.1l0.3,1.1c-0.4,0.1-0.8,0.2-1.3,0.2c-1.5,0-2-0.9-2-2.3L147.1,91.7L147.1,91.7z"/>
	<path id="XMLID_216_" class="st2" d="M151.5,87.8h1.5v2.4v1.2c0.5-0.5,1.2-1,2-1c1.4,0,2,0.9,2,2.5v4h-1.5v-3.8
		c0-1.1-0.3-1.4-1-1.4c-0.6,0-0.9,0.3-1.5,0.8V97h-1.5V87.8z"/>
	<path id="XMLID_218_" class="st2" d="M161.3,90.4c1.7,0,2.6,1.2,2.6,3c0,0.3,0,0.5-0.1,0.7h-4.1c0.1,1.2,0.9,1.8,1.9,1.8
		c0.5,0,1-0.2,1.5-0.5l0.5,0.9c-0.6,0.4-1.4,0.7-2.2,0.7c-1.8,0-3.1-1.2-3.1-3.3C158.4,91.7,159.8,90.4,161.3,90.4z M162.7,93.2
		c0-1-0.4-1.6-1.3-1.6c-0.8,0-1.4,0.6-1.5,1.6H162.7z"/>
	<path id="XMLID_221_" class="st2" d="M168.1,90.6h1.2l0.1,1.1h0.1c0.5-0.8,1.1-1.3,1.8-1.3c0.3,0,0.5,0,0.7,0.1l-0.3,1.3
		c-0.2-0.1-0.4-0.1-0.7-0.1c-0.5,0-1.1,0.4-1.5,1.3v3.9H168v-6.3H168.1z"/>
	<path id="XMLID_223_" class="st2" d="M176,92.9c0-0.7-0.3-1.2-1.2-1.2c-0.6,0-1.2,0.3-1.8,0.6l-0.5-1c0.7-0.4,1.6-0.8,2.6-0.8
		c1.6,0,2.4,1,2.4,2.8v3.8h-1.2l-0.1-0.7l0,0c-0.6,0.5-1.2,0.9-2,0.9c-1.1,0-1.9-0.8-1.9-1.9C172.3,93.9,173.4,93.1,176,92.9z
		 M174.6,95.9c0.5,0,0.9-0.3,1.4-0.7v-1.4c-1.7,0.2-2.3,0.7-2.3,1.3S174.1,95.9,174.6,95.9z"/>
	<path id="XMLID_226_" class="st2" d="M179.6,91.7h-0.9v-1.1l1-0.1l0.2-1.7h1.2v1.7h1.6v1.2h-1.6v3c0,0.8,0.3,1.1,0.9,1.1
		c0.2,0,0.5-0.1,0.7-0.1l0.3,1.1c-0.4,0.1-0.8,0.2-1.3,0.2c-1.5,0-2-0.9-2-2.3L179.6,91.7L179.6,91.7z"/>
	<path id="XMLID_228_" class="st2" d="M183.9,88.6c0-0.5,0.4-0.9,0.9-0.9s0.9,0.4,0.9,0.9s-0.4,0.8-0.9,0.8
		C184.3,89.4,183.9,89.1,183.9,88.6z M184,90.6h1.5V97H184V90.6z"/>
	<path id="XMLID_231_" class="st2" d="M190.1,90.4c1.6,0,3,1.2,3,3.4c0,2.1-1.4,3.3-3,3.3s-3-1.2-3-3.3
		C187,91.6,188.5,90.4,190.1,90.4z M190.1,95.9c0.9,0,1.5-0.8,1.5-2.1s-0.6-2.1-1.5-2.1s-1.5,0.8-1.5,2.1
		C188.6,95,189.1,95.9,190.1,95.9z"/>
	<path id="XMLID_234_" class="st2" d="M197.3,87.8h1.5v2.4v1.1c0.5-0.5,1.2-0.8,1.8-0.8c1.6,0,2.5,1.3,2.5,3.2
		c0,2.2-1.3,3.5-2.7,3.5c-0.6,0-1.2-0.3-1.7-0.8l0,0l-0.1,0.7h-1.2v-9.3H197.3z M200,95.9c0.8,0,1.5-0.8,1.5-2.2c0-1.3-0.4-2-1.4-2
		c-0.5,0-0.9,0.2-1.4,0.7v3C199.2,95.7,199.7,95.9,200,95.9z"/>
	<path id="XMLID_237_" class="st2" d="M207.1,90.4c1.7,0,2.6,1.2,2.6,3c0,0.3,0,0.5-0.1,0.7h-4.1c0.1,1.2,0.9,1.8,1.9,1.8
		c0.5,0,1-0.2,1.5-0.5l0.5,0.9c-0.6,0.4-1.4,0.7-2.2,0.7c-1.8,0-3.1-1.2-3.1-3.3C204.2,91.7,205.6,90.4,207.1,90.4z M208.4,93.2
		c0-1-0.4-1.6-1.3-1.6c-0.8,0-1.4,0.6-1.5,1.6H208.4z"/>
	<path id="XMLID_240_" class="st2" d="M211.2,91.7h-0.9v-1.1l1-0.1l0.2-1.7h1.2v1.7h1.6v1.2h-1.6v3c0,0.8,0.3,1.1,0.9,1.1
		c0.2,0,0.5-0.1,0.7-0.1l0.3,1.1c-0.4,0.1-0.8,0.2-1.3,0.2c-1.5,0-2-0.9-2-2.3L211.2,91.7L211.2,91.7z"/>
	<path id="XMLID_242_" class="st2" d="M215,90.6h1.5l0.8,3.3c0.1,0.6,0.2,1.2,0.3,1.8h0.1c0.1-0.6,0.2-1.2,0.4-1.8l0.8-3.3h1.4
		l0.8,3.3c0.2,0.6,0.3,1.2,0.4,1.8h0.1c0.1-0.6,0.2-1.2,0.3-1.8l0.8-3.3h1.4l-1.6,6.4h-1.8l-0.7-3c-0.1-0.6-0.2-1.2-0.4-1.9h-0.1
		c-0.1,0.7-0.2,1.3-0.4,1.9l-0.7,3h-1.7L215,90.6z"/>
	<path id="XMLID_244_" class="st2" d="M227.8,90.4c1.7,0,2.6,1.2,2.6,3c0,0.3,0,0.5-0.1,0.7h-4.1c0.1,1.2,0.9,1.8,1.9,1.8
		c0.5,0,1-0.2,1.5-0.5l0.5,0.9c-0.6,0.4-1.4,0.7-2.2,0.7c-1.8,0-3.1-1.2-3.1-3.3C224.9,91.7,226.3,90.4,227.8,90.4z M229.2,93.2
		c0-1-0.4-1.6-1.3-1.6c-0.8,0-1.4,0.6-1.5,1.6H229.2z"/>
	<path id="XMLID_247_" class="st2" d="M234.4,90.4c1.7,0,2.6,1.2,2.6,3c0,0.3,0,0.5-0.1,0.7h-4.1c0.1,1.2,0.9,1.8,1.9,1.8
		c0.5,0,1-0.2,1.5-0.5l0.5,0.9c-0.6,0.4-1.4,0.7-2.2,0.7c-1.8,0-3.1-1.2-3.1-3.3C231.5,91.7,232.9,90.4,234.4,90.4z M235.8,93.2
		c0-1-0.4-1.6-1.3-1.6c-0.8,0-1.4,0.6-1.5,1.6H235.8z"/>
	<path id="XMLID_250_" class="st2" d="M238.5,90.6h1.2l0.1,0.9h0.1c0.6-0.6,1.2-1,2.1-1c1.4,0,2,0.9,2,2.5v4h-1.5v-3.8
		c0-1.1-0.3-1.4-1-1.4c-0.6,0-0.9,0.3-1.5,0.8v4.5h-1.5L238.5,90.6L238.5,90.6z"/>
	<path id="XMLID_252_" class="st2" d="M248.4,90.6h1.2l0.1,0.9h0.1c0.6-0.6,1.2-1,2.1-1c1.4,0,2,0.9,2,2.5v4h-1.5v-3.8
		c0-1.1-0.3-1.4-1-1.4c-0.6,0-0.9,0.3-1.5,0.8v4.5h-1.5L248.4,90.6L248.4,90.6z"/>
	<path id="XMLID_254_" class="st2" d="M255.6,90.6h1.5v3.8c0,1.1,0.3,1.4,1,1.4c0.6,0,0.9-0.3,1.4-0.9v-4.4h1.5v6.4h-1.2l-0.1-0.9
		l0,0c-0.6,0.7-1.2,1.1-2.1,1.1c-1.4,0-2-0.9-2-2.5L255.6,90.6L255.6,90.6z"/>
	<path id="XMLID_256_" class="st2" d="M262.9,90.6h1.2l0.1,0.9h0.1c0.5-0.6,1.2-1,1.9-1c0.9,0,1.5,0.4,1.8,1.1
		c0.6-0.7,1.2-1.1,2.1-1.1c1.4,0,2,0.9,2,2.5v4h-1.5v-3.8c0-1.1-0.3-1.4-1-1.4c-0.4,0-0.8,0.3-1.3,0.8v4.5h-1.5v-3.8
		c0-1.1-0.3-1.4-1-1.4c-0.4,0-0.8,0.3-1.3,0.8v4.5H263v-6.6H262.9z"/>
	<path id="XMLID_258_" class="st2" d="M273.9,87.8h1.5v2.4v1.1c0.5-0.5,1.2-0.8,1.8-0.8c1.6,0,2.5,1.3,2.5,3.2
		c0,2.2-1.3,3.5-2.7,3.5c-0.6,0-1.2-0.3-1.7-0.8l0,0l-0.1,0.7H274v-9.3H273.9z M276.7,95.9c0.8,0,1.5-0.8,1.5-2.2c0-1.3-0.4-2-1.4-2
		c-0.5,0-0.9,0.2-1.4,0.7v3C275.8,95.7,276.3,95.9,276.7,95.9z"/>
	<path id="XMLID_261_" class="st2" d="M283.8,90.4c1.7,0,2.6,1.2,2.6,3c0,0.3,0,0.5-0.1,0.7h-4.1c0.1,1.2,0.9,1.8,1.9,1.8
		c0.5,0,1-0.2,1.5-0.5l0.5,0.9c-0.6,0.4-1.4,0.7-2.2,0.7c-1.8,0-3.1-1.2-3.1-3.3C280.8,91.7,282.3,90.4,283.8,90.4z M285.1,93.2
		c0-1-0.4-1.6-1.3-1.6c-0.8,0-1.4,0.6-1.5,1.6H285.1z"/>
	<path id="XMLID_264_" class="st2" d="M287.8,90.6h1.2l0.1,1.1h0.1c0.5-0.8,1.1-1.3,1.8-1.3c0.3,0,0.5,0,0.7,0.1l-0.3,1.3
		c-0.2-0.1-0.4-0.1-0.7-0.1c-0.5,0-1.1,0.4-1.5,1.3v3.9h-1.5L287.8,90.6L287.8,90.6z"/>
	<path id="XMLID_266_" class="st2" d="M297.9,90.4c1.6,0,3,1.2,3,3.4c0,2.1-1.4,3.3-3,3.3s-3-1.2-3-3.3
		C294.9,91.6,296.4,90.4,297.9,90.4z M297.9,95.9c0.9,0,1.5-0.8,1.5-2.1s-0.6-2.1-1.5-2.1s-1.5,0.8-1.5,2.1
		C296.5,95,297,95.9,297.9,95.9z"/>
	<path id="XMLID_269_" class="st2" d="M305.7,88.9c-0.2-0.1-0.5-0.2-0.7-0.2c-0.5,0-0.8,0.3-0.8,1.1v0.7h1.2v1.2h-1.2v5.2h-1.5v-5.2
		h-0.9v-1.1l0.9-0.1v-0.7c0-1.3,0.6-2.3,2.1-2.3c0.5,0,0.9,0.1,1.2,0.2L305.7,88.9z"/>
	<path id="XMLID_271_" class="st2" d="M309.4,91.7h-0.9v-1.1l1-0.1l0.2-1.7h1.2v1.7h1.6v1.2h-1.6v3c0,0.8,0.3,1.1,0.9,1.1
		c0.2,0,0.5-0.1,0.7-0.1l0.3,1.1c-0.4,0.1-0.8,0.2-1.3,0.2c-1.5,0-2-0.9-2-2.3v-3H309.4z"/>
	<path id="XMLID_273_" class="st2" d="M316.3,90.4c1.7,0,2.6,1.2,2.6,3c0,0.3,0,0.5-0.1,0.7h-4.1c0.1,1.2,0.9,1.8,1.9,1.8
		c0.5,0,1-0.2,1.5-0.5l0.5,0.9c-0.6,0.4-1.4,0.7-2.2,0.7c-1.8,0-3.1-1.2-3.1-3.3C313.4,91.7,314.8,90.4,316.3,90.4z M317.6,93.2
		c0-1-0.4-1.6-1.3-1.6c-0.8,0-1.4,0.6-1.5,1.6H317.6z"/>
	<path id="XMLID_276_" class="st2" d="M320.4,95.2c0.6,0.4,1.1,0.7,1.8,0.7c0.7,0,1-0.3,1-0.8s-0.7-0.8-1.4-1
		c-0.8-0.3-1.8-0.8-1.8-1.9c0-1.1,0.9-1.9,2.3-1.9c0.9,0,1.6,0.4,2.1,0.8l-0.7,0.9c-0.4-0.3-0.9-0.5-1.4-0.5c-0.6,0-0.9,0.3-0.9,0.7
		c0,0.5,0.6,0.7,1.3,0.9c0.9,0.3,1.8,0.7,1.8,1.9c0,1.1-0.9,2-2.5,2c-0.9,0-1.8-0.4-2.4-0.9L320.4,95.2z"/>
	<path id="XMLID_278_" class="st2" d="M326.2,91.7h-0.9v-1.1l1-0.1l0.2-1.7h1.2v1.7h1.6v1.2h-1.6v3c0,0.8,0.3,1.1,0.9,1.1
		c0.2,0,0.5-0.1,0.7-0.1l0.3,1.1c-0.4,0.1-0.8,0.2-1.3,0.2c-1.5,0-2-0.9-2-2.3v-3H326.2z"/>
	<path id="XMLID_280_" class="st2" d="M83.1,104.2c0-0.5,0.4-0.9,0.9-0.9s0.9,0.4,0.9,0.9S84.5,105,84,105S83.1,104.7,83.1,104.2z
		 M83.3,106.2h1.5v6.4h-1.5V106.2z"/>
	<path id="XMLID_283_" class="st2" d="M86.7,106.2h1.2L88,107h0.1c0.5-0.6,1.2-1,2-1c0.9,0,1.5,0.4,1.8,1.1c0.6-0.7,1.2-1.1,2.1-1.1
		c1.4,0,2,0.9,2,2.5v4h-1.5v-3.8c0-1.1-0.3-1.4-1-1.4c-0.4,0-0.8,0.3-1.3,0.8v4.5h-1.5v-3.8c0-1.1-0.3-1.4-1-1.4
		c-0.4,0-0.8,0.3-1.3,0.8v4.5h-1.5v-6.5H86.7z"/>
	<path id="XMLID_285_" class="st2" d="M101.1,108.5c0-0.7-0.3-1.2-1.2-1.2c-0.6,0-1.2,0.3-1.8,0.6l-0.5-1c0.7-0.4,1.6-0.8,2.6-0.8
		c1.6,0,2.4,1,2.4,2.8v3.8h-1.2l-0.1-0.7l0,0c-0.6,0.5-1.2,0.9-2,0.9c-1.1,0-1.9-0.8-1.9-1.9C97.4,109.5,98.5,108.7,101.1,108.5z
		 M99.7,111.5c0.5,0,0.9-0.3,1.4-0.7v-1.4c-1.7,0.2-2.3,0.7-2.3,1.3C98.8,111.3,99.2,111.5,99.7,111.5z"/>
	<path id="XMLID_288_" class="st2" d="M104.9,112.3L104.9,112.3c-0.3-0.3-0.6-0.6-0.6-1.1s0.3-0.9,0.7-1.2l0,0
		c-0.4-0.3-0.8-0.9-0.8-1.7c0-1.5,1.2-2.3,2.5-2.3c0.4,0,0.7,0.1,0.9,0.2h2.4v1.1h-1.2c0.2,0.2,0.4,0.6,0.4,1.1
		c0,1.4-1.1,2.2-2.4,2.2c-0.3,0-0.6-0.1-0.9-0.2c-0.2,0.2-0.3,0.3-0.3,0.6c0,0.4,0.3,0.6,1,0.6h1.1c1.5,0,2.3,0.5,2.3,1.6
		c0,1.3-1.3,2.2-3.4,2.2c-1.5,0-2.7-0.5-2.7-1.7C104,113.2,104.3,112.7,104.9,112.3z M106.9,114.4c1,0,1.7-0.5,1.7-1
		s-0.4-0.6-1.1-0.6h-0.9c-0.4,0-0.6,0-0.9-0.1c-0.3,0.3-0.5,0.5-0.5,0.8C105.3,114,105.9,114.4,106.9,114.4z M107.9,108.3
		c0-0.8-0.5-1.3-1.1-1.3s-1.1,0.5-1.1,1.3c0,0.8,0.5,1.3,1.1,1.3S107.9,109.1,107.9,108.3z"/>
	<path id="XMLID_292_" class="st2" d="M113.5,106c1.7,0,2.6,1.2,2.6,3c0,0.3,0,0.5-0.1,0.7h-4c0.1,1.2,0.9,1.8,1.9,1.8
		c0.5,0,1-0.2,1.5-0.5l0.5,0.9c-0.6,0.4-1.4,0.7-2.2,0.7c-1.8,0-3.1-1.2-3.1-3.3C110.6,107.3,112,106,113.5,106z M114.9,108.8
		c0-1-0.4-1.6-1.3-1.6c-0.8,0-1.4,0.6-1.5,1.6H114.9z"/>
	<path id="XMLID_295_" class="st2" d="M117.7,110.8c0.6,0.4,1.1,0.7,1.8,0.7s1-0.3,1-0.8s-0.7-0.8-1.4-1c-0.8-0.3-1.8-0.8-1.8-1.9
		c0-1.1,0.9-1.9,2.3-1.9c0.9,0,1.6,0.4,2.1,0.8l-0.7,1c-0.4-0.3-0.9-0.5-1.4-0.5c-0.6,0-0.9,0.3-0.9,0.7c0,0.5,0.6,0.7,1.3,0.9
		c0.9,0.3,1.8,0.7,1.8,1.9c0,1.1-0.9,2-2.5,2c-0.9,0-1.8-0.4-2.4-0.9L117.7,110.8z"/>
	<path id="XMLID_297_" class="st2" d="M129.3,108.5c0-0.7-0.3-1.2-1.2-1.2c-0.6,0-1.2,0.3-1.8,0.6l-0.5-1c0.7-0.4,1.6-0.8,2.6-0.8
		c1.6,0,2.4,1,2.4,2.8v3.8h-1.2l-0.1-0.7l0,0c-0.6,0.5-1.2,0.9-2,0.9c-1.1,0-1.9-0.8-1.9-1.9C125.6,109.5,126.7,108.7,129.3,108.5z
		 M127.9,111.5c0.5,0,0.9-0.3,1.4-0.7v-1.4c-1.7,0.2-2.3,0.7-2.3,1.3C127,111.3,127.4,111.5,127.9,111.5z"/>
	<path id="XMLID_300_" class="st2" d="M132.7,106.2h1.2l0.1,0.8l0,0c0.6-0.6,1.2-1,2.1-1c1.4,0,2,0.9,2,2.5v4h-1.5v-3.8
		c0-1.1-0.3-1.4-1-1.4c-0.6,0-0.9,0.3-1.5,0.8v4.5h-1.5L132.7,106.2L132.7,106.2z"/>
	<path id="XMLID_302_" class="st2" d="M142.2,106c0.7,0,1.2,0.3,1.7,0.7l-0.1-1v-2.3h1.5v9.2h-1.2l-0.1-0.8l0,0
		c-0.5,0.5-1.1,0.8-1.8,0.8c-1.6,0-2.6-1.2-2.6-3.3C139.5,107.3,140.9,106,142.2,106z M142.5,111.5c0.5,0,0.9-0.2,1.3-0.7v-3
		c-0.4-0.4-0.9-0.5-1.3-0.5c-0.8,0-1.5,0.8-1.5,2.1C141.1,110.7,141.6,111.5,142.5,111.5z"/>
	<path id="XMLID_305_" class="st2" d="M149.9,106.2h1.2l0.1,0.9h0.1c0.6-0.6,1.2-1,2.1-1c1.4,0,2,0.9,2,2.5v4h-1.5v-3.8
		c0-1.1-0.3-1.4-1-1.4c-0.6,0-0.9,0.3-1.5,0.8v4.5h-1.5C149.9,112.7,149.9,106.2,149.9,106.2z"/>
	<path id="XMLID_307_" class="st2" d="M157.1,106.2h1.5v3.8c0,1.1,0.3,1.4,1,1.4c0.6,0,0.9-0.3,1.4-0.9v-4.4h1.5v6.4h-1.2l-0.1-0.9
		l0,0c-0.6,0.7-1.2,1.1-2.1,1.1c-1.4,0-2-0.9-2-2.5C157.1,110.2,157.1,106.2,157.1,106.2z"/>
	<path id="XMLID_309_" class="st2" d="M164.4,106.2h1.2l0.1,0.9h0.1c0.5-0.6,1.2-1,2-1c0.9,0,1.5,0.4,1.8,1.1
		c0.6-0.7,1.2-1.1,2.1-1.1c1.4,0,2,0.9,2,2.5v4h-1.5v-3.8c0-1.1-0.3-1.4-1-1.4c-0.4,0-0.8,0.3-1.3,0.8v4.5h-1.5v-3.8
		c0-1.1-0.3-1.4-1-1.4c-0.4,0-0.8,0.3-1.3,0.8v4.5h-1.5v-6.6H164.4z"/>
	<path id="XMLID_311_" class="st2" d="M175.4,103.4h1.5v2.4v1.1c0.5-0.5,1.2-0.8,1.8-0.8c1.6,0,2.5,1.3,2.5,3.2
		c0,2.2-1.3,3.5-2.7,3.5c-0.6,0-1.2-0.3-1.7-0.8l0,0l-0.1,0.6h-1.2v-9.2H175.4z M178.2,111.5c0.8,0,1.5-0.8,1.5-2.2
		c0-1.3-0.4-2-1.4-2c-0.5,0-0.9,0.2-1.4,0.7v3C177.3,111.3,177.8,111.5,178.2,111.5z"/>
	<path id="XMLID_314_" class="st2" d="M185.3,106c1.7,0,2.6,1.2,2.6,3c0,0.3,0,0.5-0.1,0.7h-4.1c0.1,1.2,0.9,1.8,1.9,1.8
		c0.5,0,1-0.2,1.5-0.5l0.5,0.9c-0.6,0.4-1.4,0.7-2.2,0.7c-1.8,0-3.1-1.2-3.1-3.3C182.3,107.3,183.8,106,185.3,106z M186.6,108.8
		c0-1-0.4-1.6-1.3-1.6c-0.8,0-1.4,0.6-1.5,1.6H186.6z"/>
	<path id="XMLID_317_" class="st2" d="M189.3,106.2h1.2l0.1,1.1h0.1c0.5-0.8,1.1-1.3,1.8-1.3c0.3,0,0.5,0,0.7,0.1l-0.3,1.3
		c-0.2-0.1-0.4-0.1-0.7-0.1c-0.5,0-1.1,0.4-1.5,1.3v3.9h-1.5L189.3,106.2L189.3,106.2z"/>
	<path id="XMLID_319_" class="st2" d="M199.4,106c1.6,0,3,1.2,3,3.4c0,2.1-1.4,3.3-3,3.3s-3-1.2-3-3.3
		C196.4,107.2,197.9,106,199.4,106z M199.4,111.5c0.9,0,1.5-0.8,1.5-2.1s-0.6-2.1-1.5-2.1s-1.5,0.8-1.5,2.1
		C198,110.6,198.5,111.5,199.4,111.5z"/>
	<path id="XMLID_322_" class="st2" d="M207.2,104.5c-0.2-0.1-0.5-0.2-0.7-0.2c-0.5,0-0.8,0.3-0.8,1.1v0.7h1.2v1.2h-1.2v5.2h-1.5
		v-5.2h-0.9v-1.1l0.9-0.1v-0.7c0-1.3,0.6-2.3,2.1-2.3c0.5,0,0.9,0.1,1.2,0.2L207.2,104.5z"/>
	<path id="XMLID_324_" class="st2" d="M213.5,106c0.8,0,1.4,0.3,1.9,0.7l-0.7,0.9c-0.3-0.3-0.7-0.5-1.1-0.5c-1,0-1.7,0.8-1.7,2.1
		c0,1.3,0.7,2.1,1.7,2.1c0.5,0,1-0.3,1.3-0.5l0.6,0.9c-0.6,0.5-1.4,0.8-2.1,0.8c-1.7,0-3.1-1.2-3.1-3.3
		C210.3,107.2,211.8,106,213.5,106z"/>
	<path id="XMLID_326_" class="st2" d="M219,106c1.6,0,3,1.2,3,3.4c0,2.1-1.4,3.3-3,3.3s-3-1.2-3-3.3C216,107.2,217.4,106,219,106z
		 M219,111.5c0.9,0,1.5-0.8,1.5-2.1s-0.6-2.1-1.5-2.1s-1.5,0.8-1.5,2.1C217.5,110.6,218.1,111.5,219,111.5z"/>
	<path id="XMLID_329_" class="st2" d="M223.5,106.2h1.2l0.1,1.1h0.1c0.5-0.8,1.1-1.3,1.8-1.3c0.3,0,0.5,0,0.7,0.1l-0.3,1.3
		c-0.2-0.1-0.4-0.1-0.7-0.1c-0.5,0-1.1,0.4-1.5,1.3v3.9h-1.5L223.5,106.2L223.5,106.2z"/>
	<path id="XMLID_331_" class="st2" d="M228.4,106.2h1.2l0.1,1.1h0.1c0.5-0.8,1.1-1.3,1.8-1.3c0.3,0,0.5,0,0.7,0.1l-0.3,1.3
		c-0.2-0.1-0.4-0.1-0.7-0.1c-0.5,0-1.1,0.4-1.5,1.3v3.9h-1.5L228.4,106.2L228.4,106.2z"/>
	<path id="XMLID_333_" class="st2" d="M235.6,106c1.7,0,2.6,1.2,2.6,3c0,0.3,0,0.5-0.1,0.7H234c0.1,1.2,0.9,1.8,1.9,1.8
		c0.5,0,1-0.2,1.5-0.5l0.6,1c-0.6,0.4-1.4,0.7-2.2,0.7c-1.8,0-3.1-1.2-3.1-3.3S234.1,106,235.6,106z M237,108.8c0-1-0.4-1.6-1.3-1.6
		c-0.8,0-1.4,0.6-1.5,1.6H237z"/>
	<path id="XMLID_336_" class="st2" d="M242.5,106c0.8,0,1.4,0.3,1.9,0.7l-0.7,0.9c-0.3-0.3-0.7-0.5-1.1-0.5c-1,0-1.7,0.8-1.7,2.1
		c0,1.3,0.7,2.1,1.7,2.1c0.5,0,1-0.3,1.3-0.5l0.6,0.9c-0.6,0.5-1.4,0.8-2.1,0.8c-1.7,0-3.1-1.2-3.1-3.3
		C239.3,107.2,240.8,106,242.5,106z"/>
	<path id="XMLID_338_" class="st2" d="M245.9,107.3H245v-1.1l1-0.1l0.2-1.7h1.2v1.7h1.6v1.2h-1.6v3c0,0.8,0.3,1.1,0.9,1.1
		c0.2,0,0.5-0.1,0.7-0.1l0.3,1.1c-0.4,0.1-0.8,0.2-1.3,0.2c-1.5,0-2-0.9-2-2.3L245.9,107.3L245.9,107.3z"/>
	<path id="XMLID_340_" class="st2" d="M250.4,103.4h1.5v7.6c0,0.4,0.2,0.5,0.3,0.5s0.1,0,0.2,0l0.2,1.1c-0.2,0.1-0.4,0.1-0.8,0.1
		c-1.1,0-1.5-0.7-1.5-1.8v-7.5H250.4z"/>
	<path id="XMLID_342_" class="st2" d="M254.2,114c0.7,0,1.1-0.5,1.3-1.1l0.1-0.4l-2.5-6.3h1.5l1.1,3.1c0.2,0.6,0.4,1.2,0.6,1.8h0.1
		c0.2-0.6,0.3-1.2,0.5-1.8l1-3.1h1.4l-2.3,6.7c-0.5,1.4-1.2,2.3-2.6,2.3c-0.4,0-0.6-0.1-0.8-0.1l0.3-1.2
		C253.9,113.9,254.1,114,254.2,114z"/>
	<path id="XMLID_344_" class="st2" d="M263,106.2h1.2l0.1,1.1h0.1c0.5-0.8,1.1-1.3,1.8-1.3c0.3,0,0.5,0,0.7,0.1l-0.3,1.3
		c-0.2-0.1-0.4-0.1-0.7-0.1c-0.5,0-1.1,0.4-1.5,1.3v3.9H263V106.2z"/>
	<path id="XMLID_346_" class="st2" d="M270.3,106c1.7,0,2.6,1.2,2.6,3c0,0.3,0,0.5-0.1,0.7h-4.1c0.1,1.2,0.9,1.8,1.9,1.8
		c0.5,0,1-0.2,1.5-0.5l0.5,0.9c-0.6,0.4-1.4,0.7-2.2,0.7c-1.8,0-3.1-1.2-3.1-3.3C267.3,107.3,268.8,106,270.3,106z M271.6,108.8
		c0-1-0.4-1.6-1.3-1.6c-0.8,0-1.4,0.6-1.5,1.6H271.6z"/>
	<path id="XMLID_349_" class="st2" d="M277.1,106c0.8,0,1.4,0.3,1.9,0.7l-0.7,0.9c-0.3-0.3-0.7-0.5-1.1-0.5c-1,0-1.7,0.8-1.7,2.1
		c0,1.3,0.7,2.1,1.7,2.1c0.5,0,1-0.3,1.3-0.5l0.6,0.9c-0.6,0.5-1.4,0.8-2.1,0.8c-1.7,0-3.1-1.2-3.1-3.3
		C273.9,107.2,275.4,106,277.1,106z"/>
	<path id="XMLID_351_" class="st2" d="M282.6,106c1.6,0,3,1.2,3,3.4c0,2.1-1.4,3.3-3,3.3s-3-1.2-3-3.3
		C279.6,107.2,281,106,282.6,106z M282.6,111.5c0.9,0,1.5-0.8,1.5-2.1s-0.6-2.1-1.5-2.1s-1.5,0.8-1.5,2.1
		C281.1,110.6,281.7,111.5,282.6,111.5z"/>
	<path id="XMLID_354_" class="st2" d="M287.6,112.3L287.6,112.3c-0.3-0.3-0.6-0.6-0.6-1.1s0.3-0.9,0.7-1.2l0,0
		c-0.4-0.3-0.8-0.9-0.8-1.7c0-1.5,1.2-2.3,2.5-2.3c0.4,0,0.7,0.1,0.9,0.2h2.3v1.1h-1.2c0.2,0.2,0.4,0.6,0.4,1.1
		c0,1.4-1.1,2.2-2.4,2.2c-0.3,0-0.6-0.1-0.9-0.2c-0.2,0.2-0.3,0.3-0.3,0.6c0,0.4,0.3,0.6,1,0.6h1.1c1.5,0,2.3,0.5,2.3,1.6
		c0,1.3-1.3,2.2-3.4,2.2c-1.5,0-2.7-0.5-2.7-1.7C286.7,113.2,287.1,112.7,287.6,112.3z M289.6,114.4c1,0,1.7-0.5,1.7-1
		s-0.4-0.6-1.1-0.6h-0.9c-0.4,0-0.6,0-0.9-0.1c-0.3,0.3-0.5,0.5-0.5,0.8C288,114,288.6,114.4,289.6,114.4z M290.6,108.3
		c0-0.8-0.5-1.3-1.1-1.3s-1.1,0.5-1.1,1.3c0,0.8,0.5,1.3,1.1,1.3S290.6,109.1,290.6,108.3z"/>
	<path id="XMLID_358_" class="st2" d="M293.9,106.2h1.2l0.1,0.9h0.1c0.6-0.6,1.2-1,2.1-1c1.4,0,2,0.9,2,2.5v4h-1.5v-3.8
		c0-1.1-0.3-1.4-1-1.4c-0.6,0-0.9,0.3-1.5,0.8v4.5h-1.5L293.9,106.2L293.9,106.2z"/>
	<path id="XMLID_360_" class="st2" d="M301,104.2c0-0.5,0.4-0.9,0.9-0.9s0.9,0.4,0.9,0.9s-0.4,0.8-0.9,0.8S301,104.7,301,104.2z
		 M301.2,106.2h1.5v6.4h-1.5V106.2z"/>
	<path id="XMLID_363_" class="st2" d="M304.1,111.7l3-4.4h-2.7v-1.2h4.6v0.8l-3,4.4h3.1v1.2h-5L304.1,111.7L304.1,111.7z"/>
	<path id="XMLID_365_" class="st2" d="M312.8,106c1.7,0,2.6,1.2,2.6,3c0,0.3,0,0.5-0.1,0.7h-4.1c0.1,1.2,0.9,1.8,1.9,1.8
		c0.5,0,1-0.2,1.5-0.5l0.5,0.9c-0.6,0.4-1.4,0.7-2.2,0.7c-1.8,0-3.1-1.2-3.1-3.3C309.8,107.3,311.3,106,312.8,106z M314.1,108.8
		c0-1-0.4-1.6-1.3-1.6c-0.8,0-1.4,0.6-1.5,1.6H314.1z"/>
	<path id="XMLID_368_" class="st2" d="M319.1,106c0.7,0,1.2,0.3,1.7,0.7l-0.1-1v-2.3h1.5v9.2H321l-0.1-0.7h-0.1
		c-0.5,0.5-1.1,0.8-1.8,0.8c-1.6,0-2.6-1.2-2.6-3.3S317.7,106,319.1,106z M319.4,111.5c0.5,0,0.9-0.2,1.3-0.7v-3
		c-0.4-0.4-0.9-0.5-1.3-0.5c-0.8,0-1.5,0.8-1.5,2.1C318,110.7,318.5,111.5,319.4,111.5z"/>
	<path id="XMLID_371_" class="st2" d="M326.7,104.2c0-0.5,0.4-0.9,0.9-0.9s0.9,0.4,0.9,0.9s-0.4,0.8-0.9,0.8
		C327,105,326.7,104.7,326.7,104.2z M326.8,106.2h1.5v6.4h-1.5V106.2z"/>
	<path id="XMLID_374_" class="st2" d="M330.2,106.2h1.2l0.1,0.9h0.1c0.5-0.6,1.2-1,2-1c0.9,0,1.5,0.4,1.8,1.1
		c0.6-0.7,1.2-1.1,2.1-1.1c1.4,0,2,0.9,2,2.5v4H338v-3.8c0-1.1-0.3-1.4-1-1.4c-0.4,0-0.8,0.3-1.3,0.8v4.5H334v-3.8
		c0-1.1-0.3-1.4-1-1.4c-0.4,0-0.8,0.3-1.3,0.8v4.5h-1.5V106.2z"/>
	<path id="XMLID_376_" class="st2" d="M344.7,108.5c0-0.7-0.3-1.2-1.2-1.2c-0.6,0-1.2,0.3-1.8,0.6l-0.5-1c0.7-0.4,1.6-0.8,2.6-0.8
		c1.6,0,2.4,1,2.4,2.8v3.8H345l-0.1-0.7l0,0c-0.6,0.5-1.2,0.9-2,0.9c-1.1,0-1.9-0.8-1.9-1.9C340.9,109.5,342.1,108.7,344.7,108.5z
		 M343.3,111.5c0.5,0,0.9-0.3,1.4-0.7v-1.4c-1.7,0.2-2.3,0.7-2.3,1.3C342.4,111.3,342.7,111.5,343.3,111.5z"/>
	<path id="XMLID_379_" class="st2" d="M348.5,112.3L348.5,112.3c-0.3-0.3-0.6-0.6-0.6-1.1s0.3-0.9,0.7-1.2l0,0
		c-0.4-0.3-0.8-0.9-0.8-1.7c0-1.5,1.2-2.3,2.5-2.3c0.4,0,0.7,0.1,0.9,0.2h2.3v1.1h-1.2c0.2,0.2,0.4,0.6,0.4,1.1
		c0,1.4-1.1,2.2-2.4,2.2c-0.3,0-0.6-0.1-0.9-0.2c-0.2,0.2-0.3,0.3-0.3,0.6c0,0.4,0.3,0.6,1,0.6h1.1c1.5,0,2.3,0.5,2.3,1.6
		c0,1.3-1.3,2.2-3.4,2.2c-1.5,0-2.7-0.5-2.7-1.7C347.6,113.2,347.9,112.7,348.5,112.3z M350.4,114.4c1,0,1.7-0.5,1.7-1
		s-0.4-0.6-1.1-0.6h-0.9c-0.4,0-0.6,0-0.9-0.1c-0.3,0.3-0.5,0.5-0.5,0.8C348.8,114,349.4,114.4,350.4,114.4z M351.4,108.3
		c0-0.8-0.5-1.3-1.1-1.3s-1.1,0.5-1.1,1.3c0,0.8,0.5,1.3,1.1,1.3S351.4,109.1,351.4,108.3z"/>
	<path id="XMLID_383_" class="st2" d="M357.1,106c1.7,0,2.6,1.2,2.6,3c0,0.3,0,0.5-0.1,0.7h-4.1c0.1,1.2,0.9,1.8,1.9,1.8
		c0.5,0,1-0.2,1.5-0.5l0.5,0.9c-0.6,0.4-1.4,0.7-2.2,0.7c-1.8,0-3.1-1.2-3.1-3.3C354.1,107.3,355.6,106,357.1,106z M358.4,108.8
		c0-1-0.4-1.6-1.3-1.6c-0.8,0-1.4,0.6-1.5,1.6H358.4z"/>
	<path id="XMLID_386_" class="st2" d="M361.2,110.8c0.6,0.4,1.1,0.7,1.8,0.7c0.7,0,1-0.3,1-0.8s-0.7-0.8-1.4-1
		c-0.8-0.3-1.8-0.8-1.8-1.9c0-1.1,0.9-1.9,2.3-1.9c0.9,0,1.6,0.4,2.1,0.8l-0.7,0.9c-0.4-0.3-0.9-0.5-1.4-0.5c-0.6,0-0.9,0.3-0.9,0.7
		c0,0.5,0.6,0.7,1.3,0.9c0.9,0.3,1.8,0.7,1.8,1.9c0,1.1-0.9,2-2.5,2c-0.9,0-1.8-0.4-2.4-0.9L361.2,110.8z"/>
	<path id="XMLID_388_" class="st2" d="M86.8,124.1c0-0.7-0.3-1.2-1.2-1.2c-0.6,0-1.2,0.3-1.8,0.6l-0.5-1c0.7-0.4,1.6-0.8,2.6-0.8
		c1.6,0,2.4,1,2.4,2.8v3.8H87l-0.1-0.7l0,0c-0.6,0.5-1.2,0.9-2,0.9c-1.1,0-1.9-0.8-1.9-1.9C83,125.1,84.2,124.3,86.8,124.1z
		 M85.4,127.1c0.5,0,0.9-0.3,1.4-0.7V125c-1.7,0.2-2.3,0.7-2.3,1.3C84.5,126.9,84.8,127.1,85.4,127.1z"/>
	<path id="XMLID_391_" class="st2" d="M90.3,122.9h-0.9v-1.1l1-0.1l0.2-1.7h1.2v1.7h1.6v1.2h-1.6v3c0,0.8,0.3,1.1,0.9,1.1
		c0.2,0,0.5-0.1,0.7-0.1l0.3,1.1c-0.4,0.1-0.8,0.2-1.3,0.2c-1.5,0-2-0.9-2-2.3L90.3,122.9L90.3,122.9z"/>
	<path id="XMLID_393_" class="st2" d="M97.7,122.9h-0.9v-1.1l1-0.1L98,120h1.2v1.7h1.6v1.2h-1.6v3c0,0.8,0.3,1.1,0.9,1.1
		c0.2,0,0.5-0.1,0.7-0.1l0.3,1.1c-0.4,0.1-0.8,0.2-1.3,0.2c-1.5,0-2-0.9-2-2.3v-3H97.7z"/>
	<path id="XMLID_395_" class="st2" d="M102.1,119h1.5v2.4l-0.1,1.2c0.5-0.5,1.2-1,2-1c1.4,0,2,0.9,2,2.5v4H106v-3.8
		c0-1.1-0.3-1.4-1-1.4c-0.6,0-0.9,0.3-1.5,0.8v4.5H102L102.1,119L102.1,119z"/>
	<path id="XMLID_397_" class="st2" d="M111.9,121.6c1.7,0,2.6,1.2,2.6,3c0,0.3,0,0.5-0.1,0.7h-4.1c0.1,1.2,0.9,1.8,1.9,1.8
		c0.5,0,1-0.2,1.5-0.5l0.5,0.9c-0.6,0.4-1.4,0.7-2.2,0.7c-1.8,0-3.1-1.2-3.1-3.3C109,122.9,110.4,121.6,111.9,121.6z M113.2,124.4
		c0-1-0.4-1.6-1.3-1.6c-0.8,0-1.4,0.6-1.5,1.6H113.2z"/>
	<path id="XMLID_400_" class="st2" d="M121.2,121.6c1.7,0,2.6,1.2,2.6,3c0,0.3,0,0.5-0.1,0.7h-4.1c0.1,1.2,0.9,1.8,1.9,1.8
		c0.5,0,1-0.2,1.5-0.5l0.5,0.9c-0.6,0.4-1.4,0.7-2.2,0.7c-1.8,0-3.1-1.2-3.1-3.3C118.2,122.9,119.7,121.6,121.2,121.6z M122.5,124.4
		c0-1-0.4-1.6-1.3-1.6c-0.8,0-1.4,0.6-1.5,1.6H122.5z"/>
	<path id="XMLID_403_" class="st2" d="M125.2,121.8h1.2l0.1,0.9h0.1c0.6-0.6,1.2-1,2.1-1c1.4,0,2,0.9,2,2.5v4h-1.5v-3.8
		c0-1.1-0.3-1.4-1-1.4c-0.6,0-0.9,0.3-1.5,0.8v4.5h-1.5C125.2,128.3,125.2,121.8,125.2,121.8z"/>
	<path id="XMLID_405_" class="st2" d="M134.8,121.6c0.7,0,1.2,0.3,1.7,0.7l-0.1-1V119h1.5v9.2h-1.2l-0.1-0.7h-0.1
		c-0.5,0.5-1.1,0.8-1.8,0.8c-1.6,0-2.6-1.2-2.6-3.3C132.1,122.9,133.4,121.6,134.8,121.6z M135.1,127.1c0.5,0,0.9-0.2,1.3-0.7v-3
		c-0.4-0.4-0.9-0.5-1.3-0.5c-0.8,0-1.5,0.8-1.5,2.1C133.7,126.3,134.2,127.1,135.1,127.1z"/>
	<path id="XMLID_408_" class="st2" d="M145.1,121.6c1.6,0,3,1.2,3,3.4c0,2.1-1.4,3.3-3,3.3c-1.6,0-3-1.2-3-3.3
		C142.1,122.8,143.5,121.6,145.1,121.6z M145.1,127.1c0.9,0,1.5-0.8,1.5-2.1c0-1.3-0.6-2.1-1.5-2.1c-0.9,0-1.5,0.8-1.5,2.1
		C143.6,126.2,144.2,127.1,145.1,127.1z"/>
	<path id="XMLID_411_" class="st2" d="M152.9,120.1c-0.3-0.1-0.5-0.1-0.7-0.1c-0.5,0-0.8,0.3-0.8,1.1v0.7h1.2v1.2h-1.2v5.2h-1.5V123
		H149v-1.1l0.9-0.1v-0.7c0-1.3,0.6-2.3,2.1-2.3c0.5,0,0.9,0.1,1.2,0.2L152.9,120.1z"/>
	<path id="XMLID_413_" class="st2" d="M158.9,121.6c1.7,0,2.6,1.2,2.6,3c0,0.3,0,0.5-0.1,0.7h-4.1c0.1,1.2,0.9,1.8,1.9,1.8
		c0.5,0,1-0.2,1.5-0.5l0.5,0.9c-0.6,0.4-1.4,0.7-2.2,0.7c-1.8,0-3.1-1.2-3.1-3.3C156,122.9,157.4,121.6,158.9,121.6z M160.2,124.4
		c0-1-0.4-1.6-1.3-1.6c-0.8,0-1.4,0.6-1.5,1.6H160.2z"/>
	<path id="XMLID_416_" class="st2" d="M166.3,124.1c0-0.7-0.3-1.2-1.2-1.2c-0.6,0-1.2,0.3-1.8,0.6l-0.5-1c0.7-0.4,1.6-0.8,2.6-0.8
		c1.6,0,2.4,1,2.4,2.8v3.8h-1.2l-0.1-0.7l0,0c-0.6,0.5-1.2,0.9-2,0.9c-1.1,0-1.9-0.8-1.9-1.9C162.5,125.1,163.7,124.3,166.3,124.1z
		 M164.9,127.1c0.5,0,0.9-0.3,1.4-0.7V125c-1.7,0.2-2.3,0.7-2.3,1.3C164,126.9,164.4,127.1,164.9,127.1z"/>
	<path id="XMLID_419_" class="st2" d="M172.4,121.6c0.8,0,1.4,0.3,1.9,0.7l-0.7,0.9c-0.3-0.3-0.7-0.5-1.1-0.5c-1,0-1.7,0.8-1.7,2.1
		c0,1.3,0.7,2.1,1.7,2.1c0.5,0,1-0.3,1.3-0.5l0.6,0.9c-0.6,0.5-1.4,0.8-2.1,0.8c-1.7,0-3.1-1.2-3.1-3.3
		C169.2,122.8,170.7,121.6,172.4,121.6z"/>
	<path id="XMLID_421_" class="st2" d="M175.6,119h1.5v2.4l-0.1,1.2c0.5-0.5,1.2-1,2-1c1.4,0,2,0.9,2,2.5v4h-1.5v-3.8
		c0-1.1-0.3-1.4-1-1.4c-0.6,0-0.9,0.3-1.5,0.8v4.5h-1.5V119H175.6z"/>
	<path id="XMLID_423_" class="st2" d="M188.1,121.6c1.7,0,2.6,1.2,2.6,3c0,0.3,0,0.5-0.1,0.7h-4.1c0.1,1.2,0.9,1.8,1.9,1.8
		c0.5,0,1-0.2,1.5-0.5l0.5,0.9c-0.6,0.4-1.4,0.7-2.2,0.7c-1.8,0-3.1-1.2-3.1-3.3C185.1,122.9,186.6,121.6,188.1,121.6z M189.4,124.4
		c0-1-0.4-1.6-1.3-1.6c-0.8,0-1.4,0.6-1.5,1.6H189.4z"/>
	<path id="XMLID_426_" class="st2" d="M193.6,128.7v2h-1.5v-8.9h1.2l0.1,0.7h0.1c0.5-0.5,1.2-0.8,1.9-0.8c1.6,0,2.5,1.3,2.5,3.2
		c0,2.2-1.3,3.4-2.7,3.4c-0.6,0-1.1-0.3-1.6-0.7V128.7z M194.9,127.1c0.8,0,1.5-0.8,1.5-2.2c0-1.3-0.4-2-1.4-2
		c-0.5,0-0.9,0.2-1.4,0.7v3C194.1,126.9,194.5,127.1,194.9,127.1z"/>
	<path id="XMLID_429_" class="st2" d="M202.1,121.6c1.6,0,3,1.2,3,3.4c0,2.1-1.4,3.3-3,3.3s-3-1.2-3-3.3
		C199,122.8,200.5,121.6,202.1,121.6z M202.1,127.1c0.9,0,1.5-0.8,1.5-2.1c0-1.3-0.6-2.1-1.5-2.1s-1.5,0.8-1.5,2.1
		C200.6,126.2,201.1,127.1,202.1,127.1z"/>
	<path id="XMLID_432_" class="st2" d="M209.4,121.6c0.8,0,1.4,0.3,1.9,0.7l-0.7,0.9c-0.3-0.3-0.7-0.5-1.1-0.5c-1,0-1.7,0.8-1.7,2.1
		c0,1.3,0.7,2.1,1.7,2.1c0.5,0,1-0.3,1.3-0.5l0.6,0.9c-0.6,0.5-1.4,0.8-2.1,0.8c-1.7,0-3.1-1.2-3.1-3.3
		C206.2,122.8,207.7,121.6,209.4,121.6z"/>
	<path id="XMLID_434_" class="st2" d="M212.6,119h1.5v2.4l-0.1,1.2c0.5-0.5,1.2-1,2-1c1.4,0,2,0.9,2,2.5v4h-1.5v-3.8
		c0-1.1-0.3-1.4-1-1.4c-0.6,0-0.9,0.3-1.5,0.8v4.5h-1.5V119H212.6z"/>
</g>
</svg>
