<?xml version="1.0" encoding="utf-8"?>
<!-- Generator: Adobe Illustrator 19.0.0, SVG Export Plug-In . SVG Version: 6.00 Build 0)  -->
<svg version="1.1" id="Layer_1" xmlns="http://www.w3.org/2000/svg" xmlns:xlink="http://www.w3.org/1999/xlink" x="0px" y="0px"
	 viewBox="-4 6 200 200" style="enable-background:new -4 6 200 200;" xml:space="preserve">
<style type="text/css">
	.st0{fill:#264E6E;}
	.st1{fill:#6E9B59;}
	.st2{fill:#595A5C;}
</style>
<g id="XMLID_1190_">
	<path id="XMLID_1191_" class="st0" d="M34.4,97.8c0-0.7-0.3-1.2-1.2-1.2c-0.6,0-1.2,0.3-1.8,0.6l-0.5-1c0.7-0.4,1.6-0.8,2.6-0.8
		c1.6,0,2.4,1,2.4,2.8v3.7h-1.2l-0.1-0.7l0,0c-0.6,0.5-1.2,0.9-2,0.9c-1.1,0-1.9-0.8-1.9-1.9C30.7,98.8,31.8,98.1,34.4,97.8z
		 M33,100.9c0.5,0,0.9-0.3,1.4-0.7v-1.4c-1.7,0.2-2.3,0.7-2.3,1.3C32.1,100.6,32.5,100.9,33,100.9z"/>
	<path id="XMLID_1194_" class="st0" d="M40.1,95.4c0.7,0,1.2,0.3,1.7,0.7l-0.1-1v-2.3h1.5v9.1H42l-0.1-0.7h-0.1
		c-0.5,0.5-1.1,0.8-1.8,0.8c-1.6,0-2.6-1.2-2.6-3.3S38.7,95.4,40.1,95.4z M40.3,100.8c0.5,0,0.9-0.2,1.3-0.7v-3
		c-0.4-0.4-0.9-0.5-1.3-0.5c-0.8,0-1.5,0.8-1.5,2.1C38.9,100.1,39.4,100.8,40.3,100.8z"/>
	<path id="XMLID_1197_" class="st0" d="M47.4,95.4c0.7,0,1.2,0.3,1.7,0.7l-0.1-1v-2.3h1.5v9.1h-1.2l-0.1-0.7h-0.1
		c-0.5,0.5-1.1,0.8-1.8,0.8c-1.6,0-2.6-1.2-2.6-3.3C44.7,96.6,46,95.4,47.4,95.4z M47.7,100.8c0.5,0,0.9-0.2,1.3-0.7v-3
		c-0.4-0.4-0.9-0.5-1.3-0.5c-0.8,0-1.5,0.8-1.5,2.1C46.2,100.1,46.8,100.8,47.7,100.8z"/>
	<path id="XMLID_1200_" class="st0" d="M57.7,95.4c1.6,0,3,1.2,3,3.4c0,2.1-1.4,3.3-3,3.3s-3-1.2-3-3.3
		C54.7,96.6,56.1,95.4,57.7,95.4z M57.7,100.8c0.9,0,1.5-0.8,1.5-2.1c0-1.3-0.6-2.1-1.5-2.1s-1.5,0.8-1.5,2.1S56.8,100.8,57.7,100.8
		z"/>
	<path id="XMLID_1203_" class="st0" d="M62.2,95.5h1.2l0.1,0.9h0.1c0.6-0.6,1.2-1,2.1-1c1.4,0,2,0.9,2,2.5v4h-1.5v-3.8
		c0-1.1-0.3-1.4-1-1.4c-0.6,0-0.9,0.3-1.5,0.8v4.4h-1.5C62.2,101.9,62.2,95.5,62.2,95.5z"/>
	<path id="XMLID_1205_" class="st0" d="M72,95.4c1.7,0,2.6,1.2,2.6,3c0,0.3,0,0.5-0.1,0.7h-4.1c0.1,1.2,0.9,1.8,1.9,1.8
		c0.5,0,1-0.2,1.5-0.5l0.5,0.9c-0.6,0.4-1.4,0.7-2.2,0.7c-1.8,0-3.1-1.2-3.1-3.3C69.1,96.6,70.5,95.4,72,95.4z M73.4,98.1
		c0-1-0.4-1.6-1.3-1.6c-0.8,0-1.4,0.6-1.5,1.6H73.4z"/>
	<path id="XMLID_1208_" class="st0" d="M78.8,95.5H80l0.1,0.9h0.1c0.5-0.6,1.2-1,2-1c0.9,0,1.5,0.4,1.8,1.1c0.6-0.7,1.2-1.1,2.1-1.1
		c1.4,0,2,0.9,2,2.5v4h-1.5v-3.8c0-1.1-0.3-1.4-1-1.4c-0.4,0-0.8,0.3-1.3,0.8v4.4h-1.5v-3.8c0-1.1-0.3-1.4-1-1.4
		c-0.4,0-0.8,0.3-1.3,0.8v4.4H79v-6.4H78.8z"/>
	<path id="XMLID_1210_" class="st0" d="M92.3,95.4c1.6,0,3,1.2,3,3.4c0,2.1-1.4,3.3-3,3.3s-3-1.2-3-3.3
		C89.3,96.6,90.7,95.4,92.3,95.4z M92.3,100.8c0.9,0,1.5-0.8,1.5-2.1c0-1.3-0.6-2.1-1.5-2.1s-1.5,0.8-1.5,2.1S91.4,100.8,92.3,100.8
		z"/>
	<path id="XMLID_1213_" class="st0" d="M96.8,95.5H98l0.1,1.1h0.1c0.5-0.8,1.1-1.3,1.8-1.3c0.3,0,0.5,0,0.7,0.1l-0.3,1.3
		c-0.2-0.1-0.4-0.1-0.7-0.1c-0.5,0-1.1,0.4-1.5,1.3v4h-1.5v-6.4H96.8z"/>
	<path id="XMLID_1215_" class="st0" d="M104.1,95.4c1.7,0,2.6,1.2,2.6,3c0,0.3,0,0.5-0.1,0.7h-4.1c0.1,1.2,0.9,1.8,1.9,1.8
		c0.5,0,1-0.2,1.5-0.5l0.5,0.9c-0.6,0.4-1.4,0.7-2.2,0.7c-1.8,0-3.1-1.2-3.1-3.3C101.1,96.6,102.6,95.4,104.1,95.4z M105.4,98.1
		c0-1-0.4-1.6-1.3-1.6c-0.8,0-1.4,0.6-1.5,1.6H105.4z"/>
	<path id="XMLID_1218_" class="st0" d="M110.8,92.7h1.5v7.6c0,0.4,0.2,0.5,0.3,0.5c0.1,0,0.1,0,0.2,0l0.2,1.1
		c-0.2,0.1-0.4,0.1-0.8,0.1c-1.1,0-1.5-0.7-1.5-1.8v-7.5H110.8z"/>
	<path id="XMLID_1220_" class="st0" d="M117.8,97.8c0-0.7-0.3-1.2-1.2-1.2c-0.6,0-1.2,0.3-1.8,0.6l-0.5-1c0.7-0.4,1.6-0.8,2.6-0.8
		c1.6,0,2.4,1,2.4,2.8v3.7h-1.2l-0.1-0.7l0,0c-0.6,0.5-1.2,0.9-2,0.9c-1.1,0-1.9-0.8-1.9-1.9C114.1,98.8,115.2,98.1,117.8,97.8z
		 M116.4,100.9c0.5,0,0.9-0.3,1.4-0.7v-1.4c-1.7,0.2-2.3,0.7-2.3,1.3C115.5,100.6,115.9,100.9,116.4,100.9z"/>
	<path id="XMLID_1223_" class="st0" d="M121.5,103.3c0.7,0,1.1-0.5,1.3-1.1l0.1-0.4l-2.5-6.3h1.5l1.1,3.1c0.2,0.6,0.4,1.2,0.6,1.8
		h0.1c0.2-0.6,0.3-1.2,0.5-1.8l1-3.1h1.4l-2.3,6.7c-0.5,1.4-1.2,2.3-2.6,2.3c-0.4,0-0.6-0.1-0.8-0.1l0.3-1.2
		C121.1,103.3,121.3,103.3,121.5,103.3z"/>
	<path id="XMLID_1225_" class="st0" d="M130,95.4c1.7,0,2.6,1.2,2.6,3c0,0.3,0,0.5-0.1,0.7h-4.1c0.1,1.2,0.9,1.8,1.9,1.8
		c0.5,0,1-0.2,1.5-0.5l0.5,0.9c-0.6,0.4-1.4,0.7-2.2,0.7c-1.8,0-3.1-1.2-3.1-3.3C127.1,96.6,128.5,95.4,130,95.4z M131.4,98.1
		c0-1-0.4-1.6-1.3-1.6c-0.8,0-1.4,0.6-1.5,1.6H131.4z"/>
	<path id="XMLID_1228_" class="st0" d="M134.1,95.5h1.2l0.1,1.1h0.1c0.5-0.8,1.1-1.3,1.8-1.3c0.3,0,0.5,0,0.7,0.1l-0.3,1.3
		c-0.2-0.1-0.4-0.1-0.7-0.1c-0.5,0-1.1,0.4-1.5,1.3v4H134v-6.4H134.1z"/>
	<path id="XMLID_1230_" class="st0" d="M141.8,96.7h-0.9v-1.1l1-0.1l0.2-1.7h1.2v1.7h1.6v1.2h-1.6v3c0,0.8,0.3,1.1,0.9,1.1
		c0.2,0,0.5-0.1,0.7-0.1l0.3,1.1c-0.4,0.1-0.8,0.2-1.3,0.2c-1.5,0-2-0.9-2-2.3L141.8,96.7L141.8,96.7z"/>
	<path id="XMLID_1232_" class="st0" d="M148.8,95.4c1.6,0,3,1.2,3,3.4c0,2.1-1.4,3.3-3,3.3s-3-1.2-3-3.3
		C145.8,96.6,147.2,95.4,148.8,95.4z M148.8,100.8c0.9,0,1.5-0.8,1.5-2.1c0-1.3-0.6-2.1-1.5-2.1s-1.5,0.8-1.5,2.1
		S147.8,100.8,148.8,100.8z"/>
	<path id="XMLID_1235_" class="st0" d="M156.2,96.7h-0.9v-1.1l1-0.1l0.2-1.7h1.2v1.7h1.6v1.2h-1.6v3c0,0.8,0.3,1.1,0.9,1.1
		c0.2,0,0.5-0.1,0.7-0.1l0.3,1.1c-0.4,0.1-0.8,0.2-1.3,0.2c-1.5,0-2-0.9-2-2.3L156.2,96.7L156.2,96.7z"/>
	<path id="XMLID_1237_" class="st0" d="M160.7,92.7h1.5v2.4l-0.1,1.2c0.5-0.5,1.2-1,2-1c1.4,0,2,0.9,2,2.5v4h-1.5V98
		c0-1.1-0.3-1.4-1-1.4c-0.6,0-0.9,0.3-1.5,0.8v4.5h-1.5v-9.2H160.7z"/>
	<path id="XMLID_1239_" class="st0" d="M170.4,95.4c1.7,0,2.6,1.2,2.6,3c0,0.3,0,0.5-0.1,0.7H169c0.1,1.2,0.9,1.8,1.9,1.8
		c0.5,0,1-0.2,1.5-0.5l0.5,0.9c-0.6,0.4-1.4,0.7-2.2,0.7c-1.8,0-3.1-1.2-3.1-3.3C167.5,96.6,168.9,95.4,170.4,95.4z M171.8,98.1
		c0-1-0.4-1.6-1.3-1.6c-0.8,0-1.4,0.6-1.5,1.6H171.8z"/>
	<path id="XMLID_1242_" class="st0" d="M177.2,95.5h1.2l0.1,0.9h0.1c0.6-0.6,1.2-1,2.1-1c1.4,0,2,0.9,2,2.5v4h-1.5v-3.8
		c0-1.1-0.3-1.4-1-1.4c-0.6,0-0.9,0.3-1.5,0.8v4.4h-1.5L177.2,95.5L177.2,95.5z"/>
	<path id="XMLID_1244_" class="st0" d="M187,95.4c1.7,0,2.6,1.2,2.6,3c0,0.3,0,0.5-0.1,0.7h-4.1c0.1,1.2,0.9,1.8,1.9,1.8
		c0.5,0,1-0.2,1.5-0.5l0.5,0.9c-0.6,0.4-1.4,0.7-2.2,0.7c-1.8,0-3.1-1.2-3.1-3.3C184,96.6,185.5,95.4,187,95.4z M188.3,98.1
		c0-1-0.4-1.6-1.3-1.6c-0.8,0-1.4,0.6-1.5,1.6H188.3z"/>
	<path id="XMLID_1247_" class="st0" d="M191.1,96.7h-0.9v-1.1l1-0.1l0.2-1.7h1.2v1.7h1.6v1.2h-1.6v3c0,0.8,0.3,1.1,0.9,1.1
		c0.2,0,0.5-0.1,0.7-0.1l0.3,1.1c-0.4,0.1-0.8,0.2-1.3,0.2c-1.5,0-2-0.9-2-2.3L191.1,96.7L191.1,96.7z"/>
</g>
<g>
	<circle id="XMLID_5_" class="st1" cx="10" cy="97.9" r="8.4"/>
	<rect id="XMLID_4_" x="9.4" y="94.7" class="st2" width="1.2" height="6.4"/>
	<rect id="XMLID_1_" x="6.8" y="97.3" class="st2" width="6.4" height="1.2"/>
</g>
</svg>
