<?xml version="1.0" encoding="utf-8"?>
<!-- Generator: Adobe Illustrator 19.0.0, SVG Export Plug-In . SVG Version: 6.00 Build 0)  -->
<svg version="1.1" id="Layer_1" xmlns="http://www.w3.org/2000/svg" xmlns:xlink="http://www.w3.org/1999/xlink" x="0px" y="0px"
	 viewBox="0 0 200 200" style="enable-background:new 0 0 200 200;" xml:space="preserve">
<style type="text/css">
	.st0{fill:#264E6E;}
	.st1{fill:none;stroke:#264E6E;stroke-width:2;stroke-miterlimit:10;}
</style>
<g id="XMLID_898_">
	<path id="XMLID_899_" class="st0" d="M65.4,116.4L65.4,116.4c-0.3-0.3-0.6-0.6-0.6-1.1c0-0.5,0.3-0.9,0.7-1.2v-0.1
		c-0.4-0.3-0.8-0.9-0.8-1.7c0-1.5,1.2-2.3,2.5-2.3c0.4,0,0.7,0.1,0.9,0.2h2.3v1.1h-1.2c0.2,0.2,0.4,0.6,0.4,1.1
		c0,1.4-1.1,2.2-2.4,2.2c-0.3,0-0.6-0.1-0.9-0.2c-0.2,0.2-0.3,0.3-0.3,0.6c0,0.4,0.3,0.6,1,0.6h1.1c1.5,0,2.3,0.5,2.3,1.6
		c0,1.3-1.3,2.2-3.4,2.2c-1.5,0-2.7-0.5-2.7-1.7C64.5,117.3,64.9,116.8,65.4,116.4z M67.4,118.5c1,0,1.7-0.5,1.7-1
		c0-0.5-0.4-0.6-1.1-0.6h-0.9c-0.4,0-0.6,0-0.9-0.1c-0.3,0.3-0.5,0.5-0.5,0.8C65.8,118.2,66.4,118.5,67.4,118.5z M68.4,112.4
		c0-0.8-0.5-1.3-1.1-1.3s-1.1,0.5-1.1,1.3c0,0.8,0.5,1.3,1.1,1.3C67.9,113.7,68.4,113.2,68.4,112.4z"/>
	<path id="XMLID_903_" class="st0" d="M75,112.6c0-0.7-0.3-1.2-1.2-1.2c-0.6,0-1.2,0.3-1.8,0.6l-0.5-1c0.7-0.4,1.6-0.8,2.6-0.8
		c1.6,0,2.4,1,2.4,2.8v3.8h-1.2l-0.1-0.7h0c-0.6,0.5-1.2,0.9-2,0.9c-1.1,0-1.9-0.8-1.9-1.9C71.2,113.6,72.4,112.9,75,112.6z
		 M73.6,115.6c0.5,0,0.9-0.3,1.4-0.7v-1.4c-1.7,0.2-2.3,0.7-2.3,1.3C72.7,115.4,73,115.6,73.6,115.6z"/>
	<path id="XMLID_906_" class="st0" d="M78.2,110.3h1.5v3.8c0,1.1,0.3,1.4,1,1.4c0.6,0,0.9-0.3,1.4-0.9v-4.4h1.5v6.4h-1.2l-0.1-0.9h0
		c-0.6,0.7-1.2,1.1-2.1,1.1c-1.4,0-2-0.9-2-2.5V110.3z"/>
	<path id="XMLID_908_" class="st0" d="M85.6,115c0.6,0.4,1.1,0.7,1.8,0.7c0.7,0,1-0.3,1-0.8c0-0.5-0.7-0.8-1.4-1
		c-0.8-0.3-1.8-0.8-1.8-1.9c0-1.1,0.9-1.9,2.3-1.9c0.9,0,1.6,0.4,2.1,0.8l-0.7,0.9c-0.4-0.3-0.9-0.5-1.4-0.5c-0.6,0-0.9,0.3-0.9,0.7
		c0,0.5,0.6,0.7,1.3,0.9c0.9,0.3,1.8,0.7,1.8,1.9c0,1.1-0.9,2-2.5,2c-0.9,0-1.8-0.4-2.4-0.9L85.6,115z"/>
	<path id="XMLID_910_" class="st0" d="M91.2,115c0.6,0.4,1.1,0.7,1.8,0.7c0.7,0,1-0.3,1-0.8c0-0.5-0.7-0.8-1.4-1
		c-0.8-0.3-1.8-0.8-1.8-1.9c0-1.1,0.9-1.9,2.3-1.9c0.9,0,1.6,0.4,2.1,0.8l-0.7,0.9c-0.4-0.3-0.9-0.5-1.4-0.5c-0.6,0-0.9,0.3-0.9,0.7
		c0,0.5,0.6,0.7,1.3,0.9c0.9,0.3,1.8,0.7,1.8,1.9c0,1.1-0.9,2-2.5,2c-0.9,0-1.8-0.4-2.4-0.9L91.2,115z"/>
	<path id="XMLID_912_" class="st0" d="M96.5,108.3c0-0.5,0.4-0.9,0.9-0.9c0.5,0,0.9,0.4,0.9,0.9c0,0.5-0.4,0.8-0.9,0.8
		C96.9,109.2,96.5,108.8,96.5,108.3z M96.7,110.3h1.5v6.4h-1.5V110.3z"/>
	<path id="XMLID_915_" class="st0" d="M103.6,112.6c0-0.7-0.3-1.2-1.2-1.2c-0.6,0-1.2,0.3-1.8,0.6l-0.5-1c0.7-0.4,1.6-0.8,2.6-0.8
		c1.6,0,2.4,1,2.4,2.8v3.8h-1.2l-0.1-0.7h0c-0.6,0.5-1.2,0.9-2,0.9c-1.1,0-1.9-0.8-1.9-1.9C99.9,113.6,101,112.9,103.6,112.6z
		 M102.2,115.6c0.5,0,0.9-0.3,1.4-0.7v-1.4c-1.7,0.2-2.3,0.7-2.3,1.3C101.3,115.4,101.7,115.6,102.2,115.6z"/>
	<path id="XMLID_918_" class="st0" d="M106.9,110.3h1.2l0.1,0.9h0.1c0.6-0.6,1.2-1,2.1-1c1.4,0,2,0.9,2,2.5v4h-1.5v-3.8
		c0-1.1-0.3-1.4-1-1.4c-0.6,0-0.9,0.3-1.5,0.8v4.5h-1.5V110.3z"/>
	<path id="XMLID_920_" class="st0" d="M116.9,107.5h1.5v2.4l0,1.1c0.5-0.5,1.2-0.8,1.8-0.8c1.6,0,2.5,1.3,2.5,3.2
		c0,2.2-1.3,3.5-2.7,3.5c-0.6,0-1.2-0.3-1.7-0.8h0l-0.1,0.7h-1.2V107.5z M119.6,115.6c0.8,0,1.5-0.8,1.5-2.2c0-1.3-0.4-2-1.4-2
		c-0.5,0-0.9,0.2-1.4,0.7v3C118.8,115.4,119.3,115.6,119.6,115.6z"/>
	<path id="XMLID_923_" class="st0" d="M124.2,107.5h1.5v7.6c0,0.4,0.2,0.5,0.3,0.5c0.1,0,0.1,0,0.2,0l0.2,1.1
		c-0.2,0.1-0.4,0.1-0.8,0.1c-1.1,0-1.5-0.7-1.5-1.8V107.5z"/>
	<path id="XMLID_925_" class="st0" d="M127.7,110.3h1.5v3.8c0,1.1,0.3,1.4,1,1.4c0.6,0,0.9-0.3,1.4-0.9v-4.4h1.5v6.4h-1.2l-0.1-0.9
		h0c-0.6,0.7-1.2,1.1-2.1,1.1c-1.4,0-2-0.9-2-2.5V110.3z"/>
	<path id="XMLID_927_" class="st0" d="M135,110.3h1.2l0.1,1.1h0.1c0.5-0.8,1.1-1.3,1.8-1.3c0.3,0,0.5,0,0.7,0.1l-0.3,1.3
		c-0.2-0.1-0.4-0.1-0.7-0.1c-0.5,0-1.1,0.4-1.5,1.3v3.9H135V110.3z"/>
</g>
<g id="XMLID_1603_">
	<path id="XMLID_2_" class="st1" d="M67.1,83c10.1,0.3,17.6,10.3,17.3,22.6"/>
	<polygon id="XMLID_1604_" class="st0" points="70.7,87.5 62.5,82.5 71.6,79.8 	"/>
</g>
</svg>
