<?xml version="1.0" encoding="utf-8"?>
<!-- Generator: Adobe Illustrator 19.0.0, SVG Export Plug-In . SVG Version: 6.00 Build 0)  -->
<svg version="1.1" id="Layer_1" xmlns="http://www.w3.org/2000/svg" xmlns:xlink="http://www.w3.org/1999/xlink" x="0px" y="0px"
	 viewBox="0 0 200 200" style="enable-background:new 0 0 200 200;" xml:space="preserve">
<style type="text/css">
	.st0{fill:#264E6E;}
	.st1{fill:none;stroke:#264E6E;stroke-width:2;stroke-miterlimit:10;}
</style>
<g id="XMLID_674_">
	<path id="XMLID_675_" class="st0" d="M61.1,94.3c1,0,1.9,0.5,2.4,1.1l-0.8,0.9c-0.4-0.4-0.9-0.7-1.6-0.7c-1.4,0-2.4,1.2-2.4,3.1
		c0,1.9,0.9,3.1,2.3,3.1c0.8,0,1.3-0.3,1.8-0.8l0.8,0.9c-0.7,0.8-1.6,1.2-2.7,1.2c-2.2,0-3.9-1.6-3.9-4.4
		C57.2,95.9,59,94.3,61.1,94.3z"/>
	<path id="XMLID_677_" class="st0" d="M65,96.5h1.2l0.1,1.1h0.1c0.5-0.8,1.1-1.3,1.8-1.3c0.3,0,0.5,0,0.7,0.1l-0.3,1.3
		c-0.2-0.1-0.4-0.1-0.7-0.1c-0.5,0-1.1,0.4-1.5,1.3v3.9H65V96.5z"/>
	<path id="XMLID_679_" class="st0" d="M72.2,96.4c1.7,0,2.6,1.2,2.6,3c0,0.3,0,0.5-0.1,0.7h-4.1c0.1,1.2,0.9,1.8,1.9,1.8
		c0.5,0,1-0.2,1.5-0.5l0.5,0.9c-0.6,0.4-1.4,0.7-2.2,0.7c-1.8,0-3.1-1.2-3.1-3.3C69.3,97.6,70.7,96.4,72.2,96.4z M73.6,99.2
		c0-1-0.4-1.6-1.3-1.6c-0.8,0-1.4,0.6-1.5,1.6H73.6z"/>
	<path id="XMLID_682_" class="st0" d="M79.6,98.8c0-0.7-0.3-1.2-1.2-1.2c-0.6,0-1.2,0.3-1.8,0.6l-0.5-1c0.7-0.4,1.6-0.8,2.6-0.8
		c1.6,0,2.4,1,2.4,2.8v3.8h-1.2l-0.1-0.7h0c-0.6,0.5-1.2,0.9-2,0.9c-1.1,0-1.9-0.8-1.9-1.9C75.9,99.8,77,99.1,79.6,98.8z
		 M78.2,101.9c0.5,0,0.9-0.3,1.4-0.7v-1.4c-1.7,0.2-2.3,0.7-2.3,1.3C77.3,101.7,77.7,101.9,78.2,101.9z"/>
	<path id="XMLID_685_" class="st0" d="M83.2,97.7h-0.9v-1.1l1-0.1l0.2-1.7h1.2v1.7h1.6v1.2h-1.6v3c0,0.8,0.3,1.1,0.9,1.1
		c0.2,0,0.5-0.1,0.7-0.1l0.3,1.1c-0.4,0.1-0.8,0.2-1.3,0.2c-1.5,0-2-0.9-2-2.3V97.7z"/>
	<path id="XMLID_687_" class="st0" d="M90,96.4c1.7,0,2.6,1.2,2.6,3c0,0.3,0,0.5-0.1,0.7h-4.1c0.1,1.2,0.9,1.8,1.9,1.8
		c0.5,0,1-0.2,1.5-0.5l0.5,0.9c-0.6,0.4-1.4,0.7-2.2,0.7c-1.8,0-3.1-1.2-3.1-3.3C87.1,97.6,88.5,96.4,90,96.4z M91.4,99.2
		c0-1-0.4-1.6-1.3-1.6c-0.8,0-1.4,0.6-1.5,1.6H91.4z"/>
	<path id="XMLID_690_" class="st0" d="M97.1,104.3c0.7,0,1.1-0.5,1.3-1.1l0.1-0.4L96,96.5h1.5l1.1,3.1c0.2,0.6,0.4,1.2,0.6,1.8h0.1
		c0.2-0.6,0.3-1.2,0.5-1.8l1-3.1h1.4l-2.3,6.7c-0.5,1.4-1.2,2.3-2.6,2.3c-0.4,0-0.6-0.1-0.8-0.1l0.3-1.2
		C96.8,104.3,96.9,104.3,97.1,104.3z"/>
	<path id="XMLID_692_" class="st0" d="M105.7,96.4c1.6,0,3,1.2,3,3.4c0,2.1-1.4,3.3-3,3.3c-1.6,0-3-1.2-3-3.3
		C102.7,97.6,104.2,96.4,105.7,96.4z M105.7,101.8c0.9,0,1.5-0.8,1.5-2.1c0-1.3-0.6-2.1-1.5-2.1s-1.5,0.8-1.5,2.1
		C104.2,101,104.8,101.8,105.7,101.8z"/>
	<path id="XMLID_695_" class="st0" d="M110.2,96.5h1.5v3.8c0,1.1,0.3,1.4,1,1.4c0.6,0,0.9-0.3,1.4-0.9v-4.4h1.5v6.4h-1.2l-0.1-0.9h0
		c-0.6,0.7-1.2,1.1-2.1,1.1c-1.4,0-2-0.9-2-2.5V96.5z"/>
	<path id="XMLID_697_" class="st0" d="M117.5,96.5h1.2l0.1,1.1h0.1c0.5-0.8,1.1-1.3,1.8-1.3c0.3,0,0.5,0,0.7,0.1l-0.3,1.3
		c-0.2-0.1-0.4-0.1-0.7-0.1c-0.5,0-1.1,0.4-1.5,1.3v3.9h-1.5V96.5z"/>
	<path id="XMLID_699_" class="st0" d="M127.6,96.4c1.6,0,3,1.2,3,3.4c0,2.1-1.4,3.3-3,3.3c-1.6,0-3-1.2-3-3.3
		C124.6,97.6,126,96.4,127.6,96.4z M127.6,101.8c0.9,0,1.5-0.8,1.5-2.1c0-1.3-0.6-2.1-1.5-2.1s-1.5,0.8-1.5,2.1
		C126.1,101,126.7,101.8,127.6,101.8z"/>
	<path id="XMLID_702_" class="st0" d="M131.4,96.5h1.5l0.8,3.3c0.1,0.6,0.2,1.2,0.3,1.8h0.1c0.1-0.6,0.2-1.2,0.4-1.8l0.8-3.3h1.4
		l0.8,3.3c0.2,0.6,0.3,1.2,0.4,1.8h0.1c0.1-0.6,0.2-1.2,0.3-1.8l0.8-3.3h1.4l-1.6,6.4h-1.8l-0.7-3c-0.1-0.6-0.2-1.2-0.4-1.9h-0.1
		c-0.1,0.7-0.2,1.3-0.4,1.9l-0.7,3h-1.7L131.4,96.5z"/>
	<path id="XMLID_704_" class="st0" d="M141.8,96.5h1.2l0.1,0.9h0.1c0.6-0.6,1.2-1,2.1-1c1.4,0,2,0.9,2,2.5v4h-1.5v-3.8
		c0-1.1-0.3-1.4-1-1.4c-0.6,0-0.9,0.3-1.5,0.8v4.5h-1.5V96.5z"/>
	<path id="XMLID_706_" class="st0" d="M154,96.4c0.7,0,1.2,0.3,1.7,0.7l-0.1-1v-2.3h1.5v9.2h-1.2l-0.1-0.7h-0.1
		c-0.5,0.5-1.1,0.8-1.8,0.8c-1.6,0-2.6-1.2-2.6-3.3C151.3,97.6,152.7,96.4,154,96.4z M154.3,101.8c0.5,0,0.9-0.2,1.3-0.7v-3
		c-0.4-0.4-0.9-0.5-1.3-0.5c-0.8,0-1.5,0.8-1.5,2.1C152.9,101.1,153.4,101.8,154.3,101.8z"/>
	<path id="XMLID_709_" class="st0" d="M162.6,98.8c0-0.7-0.3-1.2-1.2-1.2c-0.6,0-1.2,0.3-1.8,0.6l-0.5-1c0.7-0.4,1.6-0.8,2.6-0.8
		c1.6,0,2.4,1,2.4,2.8v3.8h-1.2l-0.1-0.7h0c-0.6,0.5-1.2,0.9-2,0.9c-1.1,0-1.9-0.8-1.9-1.9C158.8,99.8,159.9,99.1,162.6,98.8z
		 M161.2,101.9c0.5,0,0.9-0.3,1.4-0.7v-1.4c-1.7,0.2-2.3,0.7-2.3,1.3C160.3,101.7,160.6,101.9,161.2,101.9z"/>
	<path id="XMLID_712_" class="st0" d="M166.1,97.7h-0.9v-1.1l1-0.1l0.2-1.7h1.2v1.7h1.6v1.2h-1.6v3c0,0.8,0.3,1.1,0.9,1.1
		c0.2,0,0.5-0.1,0.7-0.1l0.3,1.1c-0.4,0.1-0.8,0.2-1.3,0.2c-1.5,0-2-0.9-2-2.3V97.7z"/>
	<path id="XMLID_714_" class="st0" d="M173.8,98.8c0-0.7-0.3-1.2-1.2-1.2c-0.6,0-1.2,0.3-1.8,0.6l-0.5-1c0.7-0.4,1.6-0.8,2.6-0.8
		c1.6,0,2.4,1,2.4,2.8v3.8h-1.2l-0.1-0.7h0c-0.6,0.5-1.2,0.9-2,0.9c-1.1,0-1.9-0.8-1.9-1.9C170.1,99.8,171.2,99.1,173.8,98.8z
		 M172.5,101.9c0.5,0,0.9-0.3,1.4-0.7v-1.4c-1.7,0.2-2.3,0.7-2.3,1.3C171.5,101.7,171.9,101.9,172.5,101.9z"/>
	<path id="XMLID_717_" class="st0" d="M177.2,101.2c0.6,0.4,1.1,0.7,1.8,0.7c0.7,0,1-0.3,1-0.8c0-0.5-0.7-0.8-1.4-1
		c-0.8-0.3-1.8-0.8-1.8-1.9c0-1.1,0.9-1.9,2.3-1.9c0.9,0,1.6,0.4,2.1,0.8l-0.7,0.9c-0.4-0.3-0.9-0.5-1.4-0.5c-0.6,0-0.9,0.3-0.9,0.7
		c0,0.5,0.6,0.7,1.3,0.9c0.9,0.3,1.8,0.7,1.8,1.9c0,1.1-0.9,2-2.5,2c-0.9,0-1.8-0.4-2.4-0.9L177.2,101.2z"/>
	<path id="XMLID_719_" class="st0" d="M185.3,96.4c1.7,0,2.6,1.2,2.6,3c0,0.3,0,0.5-0.1,0.7h-4.1c0.1,1.2,0.9,1.8,1.9,1.8
		c0.5,0,1-0.2,1.5-0.5l0.5,0.9c-0.6,0.4-1.4,0.7-2.2,0.7c-1.8,0-3.1-1.2-3.1-3.3C182.4,97.6,183.8,96.4,185.3,96.4z M186.6,99.2
		c0-1-0.4-1.6-1.3-1.6c-0.8,0-1.4,0.6-1.5,1.6H186.6z"/>
	<path id="XMLID_722_" class="st0" d="M189.4,97.7h-0.9v-1.1l1-0.1l0.2-1.7h1.2v1.7h1.6v1.2h-1.6v3c0,0.8,0.3,1.1,0.9,1.1
		c0.2,0,0.5-0.1,0.7-0.1l0.3,1.1c-0.4,0.1-0.8,0.2-1.3,0.2c-1.5,0-2-0.9-2-2.3V97.7z"/>
</g>
<g id="XMLID_1603_">
	<line id="XMLID_1605_" class="st1" x1="13.9" y1="99" x2="45.4" y2="99"/>
	<polygon id="XMLID_1604_" class="st0" points="16,102.9 7.2,99 16,95.2 	"/>
</g>
</svg>
