<?xml version="1.0" encoding="utf-8"?>
<!-- Generator: Adobe Illustrator 19.0.0, SVG Export Plug-In . SVG Version: 6.00 Build 0)  -->
<svg version="1.1" id="Layer_1" xmlns="http://www.w3.org/2000/svg" xmlns:xlink="http://www.w3.org/1999/xlink" x="0px" y="0px"
	 viewBox="0 0 200 200" style="enable-background:new 0 0 200 200;" xml:space="preserve">
<style type="text/css">
	.st0{fill:#264E6E;}
	.st1{fill:none;stroke:#264E6E;stroke-width:2;stroke-miterlimit:10;}
</style>
<g id="XMLID_1530_">
	<path id="XMLID_1531_" class="st0" d="M69.6,87.9h1.2l0.1,0.9H71c0.6-0.6,1.2-1,2.1-1c1.4,0,2,0.9,2,2.5v4h-1.5v-3.8
		c0-1.1-0.3-1.4-1-1.4c-0.6,0-0.9,0.3-1.5,0.8v4.5h-1.5V87.9z"/>
	<path id="XMLID_1533_" class="st0" d="M76.8,87.9h1.5v3.8c0,1.1,0.3,1.4,1,1.4c0.6,0,0.9-0.3,1.4-0.9v-4.4h1.5v6.4H81l-0.1-0.9h0
		c-0.6,0.7-1.2,1.1-2.1,1.1c-1.4,0-2-0.9-2-2.5V87.9z"/>
	<path id="XMLID_1535_" class="st0" d="M84.1,87.9h1.2l0.1,0.9h0.1c0.5-0.6,1.2-1,1.9-1c0.9,0,1.5,0.4,1.8,1.1
		c0.6-0.7,1.2-1.1,2.1-1.1c1.4,0,2,0.9,2,2.5v4h-1.5v-3.8c0-1.1-0.3-1.4-1-1.4c-0.4,0-0.8,0.3-1.3,0.8v4.5h-1.5v-3.8
		c0-1.1-0.3-1.4-1-1.4c-0.4,0-0.8,0.3-1.3,0.8v4.5h-1.5V87.9z"/>
	<path id="XMLID_1537_" class="st0" d="M95.1,85.1h1.5v2.4l0,1.1c0.5-0.5,1.2-0.8,1.8-0.8c1.6,0,2.5,1.3,2.5,3.2
		c0,2.2-1.3,3.5-2.7,3.5c-0.6,0-1.2-0.3-1.7-0.8h0l-0.1,0.6h-1.2V85.1z M97.9,93.2c0.8,0,1.5-0.8,1.5-2.2c0-1.3-0.4-2-1.4-2
		c-0.5,0-0.9,0.2-1.4,0.7v3C97,93,97.5,93.2,97.9,93.2z"/>
	<path id="XMLID_1540_" class="st0" d="M104.9,87.7c1.7,0,2.6,1.2,2.6,3c0,0.3,0,0.5-0.1,0.7h-4.1c0.1,1.2,0.9,1.8,1.9,1.8
		c0.5,0,1-0.2,1.5-0.5l0.5,0.9c-0.6,0.4-1.4,0.7-2.2,0.7c-1.8,0-3.1-1.2-3.1-3.3C102,89,103.4,87.7,104.9,87.7z M106.3,90.5
		c0-1-0.4-1.6-1.3-1.6c-0.8,0-1.4,0.6-1.5,1.6H106.3z"/>
	<path id="XMLID_1543_" class="st0" d="M109,87.9h1.2l0.1,1.1h0.1c0.5-0.8,1.1-1.3,1.8-1.3c0.3,0,0.5,0,0.7,0.1l-0.3,1.3
		c-0.2-0.1-0.4-0.1-0.7-0.1c-0.5,0-1.1,0.4-1.5,1.3v3.9H109V87.9z"/>
	<path id="XMLID_1545_" class="st0" d="M119.1,87.7c1.6,0,3,1.2,3,3.4c0,2.1-1.4,3.3-3,3.3c-1.6,0-3-1.2-3-3.3
		C116.1,89,117.5,87.7,119.1,87.7z M119.1,93.2c0.9,0,1.5-0.8,1.5-2.1c0-1.3-0.6-2.1-1.5-2.1s-1.5,0.8-1.5,2.1
		C117.6,92.4,118.2,93.2,119.1,93.2z"/>
	<path id="XMLID_1548_" class="st0" d="M126.9,86.3c-0.2-0.1-0.5-0.2-0.7-0.2c-0.5,0-0.8,0.3-0.8,1.1v0.7h1.2v1.2h-1.2v5.2h-1.5
		v-5.2H123V88l0.9-0.1v-0.7c0-1.3,0.6-2.3,2.1-2.3c0.5,0,0.9,0.1,1.2,0.2L126.9,86.3z"/>
	<path id="XMLID_1550_" class="st0" d="M132.9,87.7c1.7,0,2.6,1.2,2.6,3c0,0.3,0,0.5-0.1,0.7h-4.1c0.1,1.2,0.9,1.8,1.9,1.8
		c0.5,0,1-0.2,1.5-0.5l0.5,0.9c-0.6,0.4-1.4,0.7-2.2,0.7c-1.8,0-3.1-1.2-3.1-3.3C130,89,131.4,87.7,132.9,87.7z M134.2,90.5
		c0-1-0.4-1.6-1.3-1.6c-0.8,0-1.4,0.6-1.5,1.6H134.2z"/>
	<path id="XMLID_1553_" class="st0" d="M138.5,94.8v2H137v-8.9h1.2l0.1,0.7h0.1c0.5-0.5,1.2-0.8,1.9-0.8c1.6,0,2.5,1.3,2.5,3.2
		c0,2.2-1.3,3.4-2.7,3.4c-0.6,0-1.1-0.3-1.6-0.7L138.5,94.8z M139.8,93.2c0.8,0,1.5-0.8,1.5-2.2c0-1.3-0.4-2-1.4-2
		c-0.5,0-0.9,0.2-1.4,0.7v3C138.9,93,139.4,93.2,139.8,93.2z"/>
	<path id="XMLID_1556_" class="st0" d="M146.9,87.7c1.6,0,3,1.2,3,3.4c0,2.1-1.4,3.3-3,3.3c-1.6,0-3-1.2-3-3.3
		C143.9,89,145.3,87.7,146.9,87.7z M146.9,93.2c0.9,0,1.5-0.8,1.5-2.1c0-1.3-0.6-2.1-1.5-2.1s-1.5,0.8-1.5,2.1
		C145.4,92.4,146,93.2,146.9,93.2z"/>
	<path id="XMLID_1559_" class="st0" d="M154.2,87.7c0.8,0,1.4,0.3,1.9,0.7l-0.7,0.9c-0.3-0.3-0.7-0.5-1.1-0.5c-1,0-1.7,0.8-1.7,2.1
		c0,1.3,0.7,2.1,1.7,2.1c0.5,0,1-0.3,1.3-0.5l0.6,0.9c-0.6,0.5-1.4,0.8-2.1,0.8c-1.7,0-3.1-1.2-3.1-3.3
		C151,89,152.5,87.7,154.2,87.7z"/>
	<path id="XMLID_1561_" class="st0" d="M157.5,85.1h1.5v2.4l-0.1,1.2c0.5-0.5,1.2-1,2-1c1.4,0,2,0.9,2,2.5v4h-1.5v-3.8
		c0-1.1-0.3-1.4-1-1.4c-0.6,0-0.9,0.3-1.5,0.8v4.5h-1.5V85.1z"/>
	<path id="XMLID_1563_" class="st0" d="M164.8,92.6c0.6,0.4,1.1,0.7,1.8,0.7c0.7,0,1-0.3,1-0.8c0-0.5-0.7-0.8-1.4-1
		c-0.8-0.3-1.8-0.8-1.8-1.9c0-1.1,0.9-1.9,2.3-1.9c0.9,0,1.6,0.4,2.1,0.8l-0.7,0.9c-0.4-0.3-0.9-0.5-1.4-0.5c-0.6,0-0.9,0.3-0.9,0.7
		c0,0.5,0.6,0.7,1.3,0.9c0.9,0.3,1.8,0.7,1.8,1.9c0,1.1-0.9,2-2.5,2c-0.9,0-1.8-0.4-2.4-0.9L164.8,92.6z"/>
	<path id="XMLID_1565_" class="st0" d="M69.8,104.7h-0.9v-1.1l1-0.1l0.2-1.7h1.2v1.7H73v1.2h-1.6v3c0,0.8,0.3,1.1,0.9,1.1
		c0.2,0,0.5-0.1,0.7-0.1l0.3,1.1c-0.4,0.1-0.8,0.2-1.3,0.2c-1.5,0-2-0.9-2-2.3V104.7z"/>
	<path id="XMLID_1567_" class="st0" d="M76.8,103.3c1.6,0,3,1.2,3,3.4c0,2.1-1.4,3.3-3,3.3c-1.6,0-3-1.2-3-3.3
		C73.8,104.6,75.2,103.3,76.8,103.3z M76.8,108.8c0.9,0,1.5-0.8,1.5-2.1c0-1.3-0.6-2.1-1.5-2.1s-1.5,0.8-1.5,2.1
		C75.3,108,75.9,108.8,76.8,108.8z"/>
	<path id="XMLID_1570_" class="st0" d="M84.2,104.7h-0.9v-1.1l1-0.1l0.2-1.7h1.2v1.7h1.6v1.2h-1.6v3c0,0.8,0.3,1.1,0.9,1.1
		c0.2,0,0.5-0.1,0.7-0.1l0.3,1.1c-0.4,0.1-0.8,0.2-1.3,0.2c-1.5,0-2-0.9-2-2.3V104.7z"/>
	<path id="XMLID_1572_" class="st0" d="M88.7,103.5h1.2l0.1,1.1h0.1c0.5-0.8,1.1-1.3,1.8-1.3c0.3,0,0.5,0,0.7,0.1l-0.3,1.3
		c-0.2-0.1-0.4-0.1-0.7-0.1c-0.5,0-1.1,0.4-1.5,1.3v3.9h-1.5V103.5z"/>
	<path id="XMLID_1574_" class="st0" d="M96.7,105.8c0-0.7-0.3-1.2-1.2-1.2c-0.6,0-1.2,0.3-1.8,0.6l-0.5-1c0.7-0.4,1.6-0.8,2.6-0.8
		c1.6,0,2.4,1,2.4,2.8v3.8h-1.2l-0.1-0.7h0c-0.6,0.5-1.2,0.9-2,0.9c-1.1,0-1.9-0.8-1.9-1.9C92.9,106.8,94,106.1,96.7,105.8z
		 M95.3,108.9c0.5,0,0.9-0.3,1.4-0.7v-1.4c-1.7,0.2-2.3,0.7-2.3,1.3C94.4,108.6,94.7,108.9,95.3,108.9z"/>
	<path id="XMLID_1577_" class="st0" d="M99.8,101.5c0-0.5,0.4-0.9,0.9-0.9c0.5,0,0.9,0.4,0.9,0.9c0,0.5-0.4,0.8-0.9,0.8
		C100.2,102.4,99.8,102,99.8,101.5z M100,103.5h1.5v6.4H100V103.5z"/>
	<path id="XMLID_1580_" class="st0" d="M103.4,103.5h1.2l0.1,0.9h0.1c0.6-0.6,1.2-1,2.1-1c1.4,0,2,0.9,2,2.5v4h-1.5v-3.8
		c0-1.1-0.3-1.4-1-1.4c-0.6,0-0.9,0.3-1.5,0.8v4.5h-1.5V103.5z"/>
	<path id="XMLID_1582_" class="st0" d="M113.3,103.5h1.2l0.1,0.9h0.1c0.6-0.6,1.2-1,2.1-1c1.4,0,2,0.9,2,2.5v4h-1.5v-3.8
		c0-1.1-0.3-1.4-1-1.4c-0.6,0-0.9,0.3-1.5,0.8v4.5h-1.5V103.5z"/>
	<path id="XMLID_1584_" class="st0" d="M123.1,103.3c1.7,0,2.6,1.2,2.6,3c0,0.3,0,0.5-0.1,0.7h-4.1c0.1,1.2,0.9,1.8,1.9,1.8
		c0.5,0,1-0.2,1.5-0.5l0.5,0.9c-0.6,0.4-1.4,0.7-2.2,0.7c-1.8,0-3.1-1.2-3.1-3.3C120.2,104.6,121.6,103.3,123.1,103.3z M124.5,106.1
		c0-1-0.4-1.6-1.3-1.6c-0.8,0-1.4,0.6-1.5,1.6H124.5z"/>
	<path id="XMLID_1587_" class="st0" d="M127.1,103.5h1.5v3.8c0,1.1,0.3,1.4,1,1.4c0.6,0,0.9-0.3,1.4-0.9v-4.4h1.5v6.4h-1.2l-0.1-0.9
		h0c-0.6,0.7-1.2,1.1-2.1,1.1c-1.4,0-2-0.9-2-2.5V103.5z"/>
	<path id="XMLID_1589_" class="st0" d="M134.4,103.5h1.2l0.1,1.1h0.1c0.5-0.8,1.1-1.3,1.8-1.3c0.3,0,0.5,0,0.7,0.1l-0.3,1.3
		c-0.2-0.1-0.4-0.1-0.7-0.1c-0.5,0-1.1,0.4-1.5,1.3v3.9h-1.5V103.5z"/>
	<path id="XMLID_1591_" class="st0" d="M142.4,105.8c0-0.7-0.3-1.2-1.2-1.2c-0.6,0-1.2,0.3-1.8,0.6l-0.5-1c0.7-0.4,1.6-0.8,2.6-0.8
		c1.6,0,2.4,1,2.4,2.8v3.8h-1.2l-0.1-0.7h0c-0.6,0.5-1.2,0.9-2,0.9c-1.1,0-1.9-0.8-1.9-1.9C138.6,106.8,139.8,106.1,142.4,105.8z
		 M141,108.9c0.5,0,0.9-0.3,1.4-0.7v-1.4c-1.7,0.2-2.3,0.7-2.3,1.3C140.1,108.6,140.5,108.9,141,108.9z"/>
	<path id="XMLID_1594_" class="st0" d="M145.7,100.7h1.5v7.6c0,0.4,0.2,0.5,0.3,0.5c0.1,0,0.1,0,0.2,0l0.2,1.1
		c-0.2,0.1-0.4,0.1-0.8,0.1c-1.1,0-1.5-0.7-1.5-1.8V100.7z"/>
	<path id="XMLID_1596_" class="st0" d="M151.9,103.5h1.2l0.1,0.9h0.1c0.6-0.6,1.2-1,2.1-1c1.4,0,2,0.9,2,2.5v4h-1.5v-3.8
		c0-1.1-0.3-1.4-1-1.4c-0.6,0-0.9,0.3-1.5,0.8v4.5h-1.5V103.5z"/>
	<path id="XMLID_1598_" class="st0" d="M161.7,103.3c1.7,0,2.6,1.2,2.6,3c0,0.3,0,0.5-0.1,0.7h-4.1c0.1,1.2,0.9,1.8,1.9,1.8
		c0.5,0,1-0.2,1.5-0.5l0.5,0.9c-0.6,0.4-1.4,0.7-2.2,0.7c-1.8,0-3.1-1.2-3.1-3.3C158.8,104.6,160.2,103.3,161.7,103.3z M163,106.1
		c0-1-0.4-1.6-1.3-1.6c-0.8,0-1.4,0.6-1.5,1.6H163z"/>
	<path id="XMLID_1601_" class="st0" d="M165.8,104.7h-0.9v-1.1l1-0.1l0.2-1.7h1.2v1.7h1.6v1.2h-1.6v3c0,0.8,0.3,1.1,0.9,1.1
		c0.2,0,0.5-0.1,0.7-0.1l0.3,1.1c-0.4,0.1-0.8,0.2-1.3,0.2c-1.5,0-2-0.9-2-2.3V104.7z"/>
</g>
<g id="XMLID_1603_">
	<path id="XMLID_3_" class="st1" d="M35,109.6c1.2-10,11.9-16.6,24.1-15.1"/>
	<polygon id="XMLID_1604_" class="st0" points="39.8,106.4 34.1,114.1 32.2,104.8 	"/>
</g>
</svg>
