<?xml version="1.0" encoding="utf-8"?>
<!-- Generator: Adobe Illustrator 19.0.0, SVG Export Plug-In . SVG Version: 6.00 Build 0)  -->
<svg version="1.1" id="Layer_1" xmlns="http://www.w3.org/2000/svg" xmlns:xlink="http://www.w3.org/1999/xlink" x="0px" y="0px"
	 viewBox="0 0 200 200" style="enable-background:new 0 0 200 200;" xml:space="preserve">
<style type="text/css">
	.st0{fill:#264E6E;}
	.st1{fill:none;stroke:#264E6E;stroke-width:2;stroke-miterlimit:10;}
</style>
<g id="XMLID_820_">
	<path id="XMLID_821_" class="st0" d="M46.2,80.5h-0.9v-1.1l1-0.1l0.2-1.7h1.2v1.7h1.6v1.2h-1.6v3c0,0.8,0.3,1.1,0.9,1.1
		c0.2,0,0.5-0.1,0.7-0.1l0.3,1.1c-0.4,0.1-0.8,0.2-1.3,0.2c-1.5,0-2-0.9-2-2.3V80.5z"/>
	<path id="XMLID_823_" class="st0" d="M53.1,79.1c1.6,0,3,1.2,3,3.4c0,2.1-1.4,3.3-3,3.3c-1.6,0-3-1.2-3-3.3
		C50.1,80.3,51.6,79.1,53.1,79.1z M53.1,84.6c0.9,0,1.5-0.8,1.5-2.1c0-1.3-0.6-2.1-1.5-2.1s-1.5,0.8-1.5,2.1
		C51.6,83.8,52.2,84.6,53.1,84.6z"/>
	<path id="XMLID_826_" class="st0" d="M60.3,79.1c1.6,0,3,1.2,3,3.4c0,2.1-1.4,3.3-3,3.3c-1.6,0-3-1.2-3-3.3
		C57.2,80.3,58.7,79.1,60.3,79.1z M60.3,84.6c0.9,0,1.5-0.8,1.5-2.1c0-1.3-0.6-2.1-1.5-2.1s-1.5,0.8-1.5,2.1
		C58.8,83.8,59.3,84.6,60.3,84.6z"/>
	<path id="XMLID_829_" class="st0" d="M64.8,76.5h1.5v7.6c0,0.4,0.2,0.5,0.3,0.5c0.1,0,0.1,0,0.2,0l0.2,1.1
		c-0.2,0.1-0.4,0.1-0.8,0.1c-1.1,0-1.5-0.7-1.5-1.8V76.5z"/>
	<path id="XMLID_831_" class="st0" d="M68.4,84c0.6,0.4,1.1,0.7,1.8,0.7c0.7,0,1-0.3,1-0.8c0-0.5-0.7-0.8-1.4-1
		C69,82.6,68,82.1,68,81c0-1.1,0.9-1.9,2.3-1.9c0.9,0,1.6,0.4,2.1,0.8l-0.7,0.9c-0.4-0.3-0.9-0.5-1.4-0.5c-0.6,0-0.9,0.3-0.9,0.7
		c0,0.5,0.6,0.7,1.3,0.9c0.9,0.3,1.8,0.7,1.8,1.9c0,1.1-0.9,2-2.5,2c-0.9,0-1.8-0.4-2.4-0.9L68.4,84z"/>
	<path id="XMLID_833_" class="st0" d="M76.8,80.5h-0.9v-1.1l1-0.1l0.2-1.7h1.2v1.7h1.6v1.2h-1.6v3c0,0.8,0.3,1.1,0.9,1.1
		c0.2,0,0.5-0.1,0.7-0.1l0.3,1.1c-0.4,0.1-0.8,0.2-1.3,0.2c-1.5,0-2-0.9-2-2.3V80.5z"/>
	<path id="XMLID_835_" class="st0" d="M83.8,79.1c1.6,0,3,1.2,3,3.4c0,2.1-1.4,3.3-3,3.3c-1.6,0-3-1.2-3-3.3
		C80.7,80.3,82.2,79.1,83.8,79.1z M83.8,84.6c0.9,0,1.5-0.8,1.5-2.1c0-1.3-0.6-2.1-1.5-2.1s-1.5,0.8-1.5,2.1
		C82.3,83.8,82.8,84.6,83.8,84.6z"/>
	<path id="XMLID_838_" class="st0" d="M93.3,79.1c0.7,0,1.2,0.3,1.7,0.7l-0.1-1v-2.3h1.5v9.2h-1.2L95.1,85H95
		c-0.5,0.5-1.1,0.8-1.8,0.8c-1.6,0-2.6-1.2-2.6-3.3C90.6,80.4,91.9,79.1,93.3,79.1z M93.6,84.6c0.5,0,0.9-0.2,1.3-0.7v-3
		c-0.4-0.4-0.9-0.5-1.3-0.5c-0.8,0-1.5,0.8-1.5,2.1C92.1,83.8,92.6,84.6,93.6,84.6z"/>
	<path id="XMLID_841_" class="st0" d="M98.3,79.3h1.2l0.1,1.1h0.1c0.5-0.8,1.1-1.3,1.8-1.3c0.3,0,0.5,0,0.7,0.1l-0.3,1.3
		c-0.2-0.1-0.4-0.1-0.7-0.1c-0.5,0-1.1,0.4-1.5,1.3v3.9h-1.5V79.3z"/>
	<path id="XMLID_843_" class="st0" d="M106.3,81.6c0-0.7-0.3-1.2-1.2-1.2c-0.6,0-1.2,0.3-1.8,0.6l-0.5-1c0.7-0.4,1.6-0.8,2.6-0.8
		c1.6,0,2.4,1,2.4,2.8v3.8h-1.2l-0.1-0.7h0c-0.6,0.5-1.2,0.9-2,0.9c-1.1,0-1.9-0.8-1.9-1.9C102.5,82.6,103.7,81.9,106.3,81.6z
		 M104.9,84.7c0.5,0,0.9-0.3,1.4-0.7v-1.4c-1.7,0.2-2.3,0.7-2.3,1.3C104,84.4,104.3,84.7,104.9,84.7z"/>
	<path id="XMLID_846_" class="st0" d="M108.9,79.3h1.5l0.8,3.3c0.1,0.6,0.2,1.2,0.3,1.8h0.1c0.1-0.6,0.2-1.2,0.4-1.8l0.8-3.3h1.4
		l0.8,3.3c0.2,0.6,0.3,1.2,0.4,1.8h0.1c0.1-0.6,0.2-1.2,0.3-1.8l0.8-3.3h1.4l-1.6,6.4h-1.8l-0.7-3c-0.1-0.6-0.2-1.2-0.4-1.9h-0.1
		c-0.1,0.7-0.2,1.3-0.4,1.9l-0.7,3h-1.7L108.9,79.3z"/>
	<path id="XMLID_848_" class="st0" d="M121.8,77.3c0-0.5,0.4-0.9,0.9-0.9c0.5,0,0.9,0.4,0.9,0.9c0,0.5-0.4,0.8-0.9,0.8
		C122.2,78.2,121.8,77.8,121.8,77.3z M122,79.3h1.5v6.4H122V79.3z"/>
	<path id="XMLID_851_" class="st0" d="M125.4,79.3h1.2l0.1,0.9h0.1c0.5-0.6,1.2-1,2-1c0.9,0,1.5,0.4,1.8,1.1
		c0.6-0.7,1.2-1.1,2.1-1.1c1.4,0,2,0.9,2,2.5v4H133v-3.8c0-1.1-0.3-1.4-1-1.4c-0.4,0-0.8,0.3-1.3,0.8v4.5h-1.5v-3.8
		c0-1.1-0.3-1.4-1-1.4c-0.4,0-0.8,0.3-1.3,0.8v4.5h-1.5V79.3z"/>
	<path id="XMLID_853_" class="st0" d="M139.8,81.6c0-0.7-0.3-1.2-1.2-1.2c-0.6,0-1.2,0.3-1.8,0.6l-0.5-1c0.7-0.4,1.6-0.8,2.6-0.8
		c1.6,0,2.4,1,2.4,2.8v3.8h-1.2L140,85h0c-0.6,0.5-1.2,0.9-2,0.9c-1.1,0-1.9-0.8-1.9-1.9C136.1,82.6,137.2,81.9,139.8,81.6z
		 M138.4,84.7c0.5,0,0.9-0.3,1.4-0.7v-1.4c-1.7,0.2-2.3,0.7-2.3,1.3C137.5,84.4,137.9,84.7,138.4,84.7z"/>
	<path id="XMLID_856_" class="st0" d="M143.6,85.5L143.6,85.5c-0.3-0.3-0.6-0.6-0.6-1.1c0-0.5,0.3-0.9,0.7-1.2v-0.1
		c-0.4-0.3-0.8-0.9-0.8-1.7c0-1.5,1.2-2.3,2.5-2.3c0.4,0,0.7,0.1,0.9,0.2h2.3v1.1h-1.2c0.2,0.2,0.4,0.6,0.4,1.1
		c0,1.4-1.1,2.2-2.4,2.2c-0.3,0-0.6-0.1-0.9-0.2c-0.2,0.2-0.3,0.3-0.3,0.6c0,0.4,0.3,0.6,1,0.6h1.1c1.5,0,2.3,0.5,2.3,1.6
		c0,1.3-1.3,2.2-3.4,2.2c-1.5,0-2.7-0.5-2.7-1.7C142.7,86.3,143,85.8,143.6,85.5z M145.6,87.5c1,0,1.7-0.5,1.7-1
		c0-0.5-0.4-0.6-1.1-0.6h-0.9c-0.4,0-0.6,0-0.9-0.1c-0.3,0.3-0.5,0.5-0.5,0.8C144,87.2,144.6,87.5,145.6,87.5z M146.5,81.4
		c0-0.8-0.5-1.3-1.1-1.3s-1.1,0.5-1.1,1.3c0,0.8,0.5,1.3,1.1,1.3C146.1,82.7,146.5,82.2,146.5,81.4z"/>
	<path id="XMLID_860_" class="st0" d="M152.2,79.1c1.7,0,2.6,1.2,2.6,3c0,0.3,0,0.5-0.1,0.7h-4.1c0.1,1.2,0.9,1.8,1.9,1.8
		c0.5,0,1-0.2,1.5-0.5l0.5,0.9c-0.6,0.4-1.4,0.7-2.2,0.7c-1.8,0-3.1-1.2-3.1-3.3C149.3,80.4,150.7,79.1,152.2,79.1z M153.6,81.9
		c0-1-0.4-1.6-1.3-1.6c-0.8,0-1.4,0.6-1.5,1.6H153.6z"/>
</g>
<g id="XMLID_1603_">
	<line id="XMLID_1605_" class="st1" x1="86.6" y1="118" x2="86.6" y2="95.5"/>
	<polygon id="XMLID_1604_" class="st0" points="90.5,116.5 86.6,122.8 82.7,116.5 	"/>
</g>
</svg>
