<?xml version="1.0" encoding="utf-8"?>
<!-- Generator: Adobe Illustrator 19.0.0, SVG Export Plug-In . SVG Version: 6.00 Build 0)  -->
<svg version="1.1" id="Layer_1" xmlns="http://www.w3.org/2000/svg" xmlns:xlink="http://www.w3.org/1999/xlink" x="0px" y="0px"
	 viewBox="0 0 200 200" style="enable-background:new 0 0 200 200;" xml:space="preserve">
<style type="text/css">
	.st0{fill:#264E6E;}
	.st1{fill:none;stroke:#264E6E;stroke-width:2;stroke-miterlimit:10;}
</style>
<g id="XMLID_1085_">
	<path id="XMLID_1086_" class="st0" d="M24.3,68.8c0-0.5,0.4-0.9,0.9-0.9c0.5,0,0.9,0.4,0.9,0.9c0,0.5-0.4,0.8-0.9,0.8
		C24.7,69.7,24.3,69.3,24.3,68.8z M24.4,70.8h1.5v6.4h-1.5V70.8z"/>
	<path id="XMLID_1089_" class="st0" d="M27.8,70.8h1.2l0.1,0.9h0.1c0.6-0.6,1.2-1,2.1-1c1.4,0,2,0.9,2,2.5v4h-1.5v-3.8
		c0-1.1-0.3-1.4-1-1.4c-0.6,0-0.9,0.3-1.5,0.8v4.5h-1.5V70.8z"/>
	<path id="XMLID_1091_" class="st0" d="M37.9,70.6c0.8,0,1.4,0.3,1.9,0.7l-0.7,0.9c-0.3-0.3-0.7-0.5-1.1-0.5c-1,0-1.7,0.8-1.7,2.1
		c0,1.3,0.7,2.1,1.7,2.1c0.5,0,1-0.3,1.3-0.5l0.6,0.9c-0.6,0.5-1.4,0.8-2.1,0.8c-1.7,0-3.1-1.2-3.1-3.3
		C34.7,71.8,36.2,70.6,37.9,70.6z"/>
	<path id="XMLID_1093_" class="st0" d="M41.1,70.8h1.2l0.1,1.1h0.1c0.5-0.8,1.1-1.3,1.8-1.3c0.3,0,0.5,0,0.7,0.1L44.8,72
		c-0.2-0.1-0.4-0.1-0.7-0.1c-0.5,0-1.1,0.4-1.5,1.3v3.9h-1.5V70.8z"/>
	<path id="XMLID_1095_" class="st0" d="M48.4,70.6c1.7,0,2.6,1.2,2.6,3c0,0.3,0,0.5-0.1,0.7h-4.1c0.1,1.2,0.9,1.8,1.9,1.8
		c0.5,0,1-0.2,1.5-0.5l0.5,0.9c-0.6,0.4-1.4,0.7-2.2,0.7c-1.8,0-3.1-1.2-3.1-3.3C45.4,71.9,46.9,70.6,48.4,70.6z M49.7,73.4
		c0-1-0.4-1.6-1.3-1.6c-0.8,0-1.4,0.6-1.5,1.6H49.7z"/>
	<path id="XMLID_1098_" class="st0" d="M55.8,73.1c0-0.7-0.3-1.2-1.2-1.2c-0.6,0-1.2,0.3-1.8,0.6l-0.5-1c0.7-0.4,1.6-0.8,2.6-0.8
		c1.6,0,2.4,1,2.4,2.8v3.8H56l-0.1-0.7h0c-0.6,0.5-1.2,0.9-2,0.9c-1.1,0-1.9-0.8-1.9-1.9C52,74.1,53.2,73.4,55.8,73.1z M54.4,76.1
		c0.5,0,0.9-0.3,1.4-0.7V74c-1.7,0.2-2.3,0.7-2.3,1.3C53.5,75.9,53.8,76.1,54.4,76.1z"/>
	<path id="XMLID_1101_" class="st0" d="M59.1,75.5c0.6,0.4,1.1,0.7,1.8,0.7c0.7,0,1-0.3,1-0.8c0-0.5-0.7-0.8-1.4-1
		c-0.8-0.3-1.8-0.8-1.8-1.9c0-1.1,0.9-1.9,2.3-1.9c0.9,0,1.6,0.4,2.1,0.8l-0.7,0.9c-0.4-0.3-0.9-0.5-1.4-0.5c-0.6,0-0.9,0.3-0.9,0.7
		c0,0.5,0.6,0.7,1.3,0.9c0.9,0.3,1.8,0.7,1.8,1.9c0,1.1-0.9,2-2.5,2c-0.9,0-1.8-0.4-2.4-0.9L59.1,75.5z"/>
	<path id="XMLID_1103_" class="st0" d="M67.2,70.6c1.7,0,2.6,1.2,2.6,3c0,0.3,0,0.5-0.1,0.7h-4.1c0.1,1.2,0.9,1.8,1.9,1.8
		c0.5,0,1-0.2,1.5-0.5l0.5,0.9c-0.6,0.4-1.4,0.7-2.2,0.7c-1.8,0-3.1-1.2-3.1-3.3C64.3,71.9,65.7,70.6,67.2,70.6z M68.5,73.4
		c0-1-0.4-1.6-1.3-1.6c-0.8,0-1.4,0.6-1.5,1.6H68.5z"/>
	<path id="XMLID_1106_" class="st0" d="M76.2,67.9h1l-3,11.3h-1L76.2,67.9z"/>
	<path id="XMLID_1108_" class="st0" d="M83.4,70.6c0.7,0,1.2,0.3,1.7,0.7l-0.1-1V68h1.5v9.2h-1.2l-0.1-0.7h-0.1
		c-0.5,0.5-1.1,0.8-1.8,0.8c-1.6,0-2.6-1.2-2.6-3.3C80.7,71.9,82,70.6,83.4,70.6z M83.7,76.1c0.5,0,0.9-0.2,1.3-0.7v-3
		c-0.4-0.4-0.9-0.5-1.3-0.5c-0.8,0-1.5,0.8-1.5,2.1C82.2,75.3,82.8,76.1,83.7,76.1z"/>
	<path id="XMLID_1111_" class="st0" d="M90.9,70.6c1.7,0,2.6,1.2,2.6,3c0,0.3,0,0.5-0.1,0.7h-4.1c0.1,1.2,0.9,1.8,1.9,1.8
		c0.5,0,1-0.2,1.5-0.5l0.5,0.9c-0.6,0.4-1.4,0.7-2.2,0.7c-1.8,0-3.1-1.2-3.1-3.3C88,71.9,89.4,70.6,90.9,70.6z M92.3,73.4
		c0-1-0.4-1.6-1.3-1.6c-0.8,0-1.4,0.6-1.5,1.6H92.3z"/>
	<path id="XMLID_1114_" class="st0" d="M97.8,70.6c0.8,0,1.4,0.3,1.9,0.7l-0.7,0.9c-0.3-0.3-0.7-0.5-1.1-0.5c-1,0-1.7,0.8-1.7,2.1
		c0,1.3,0.7,2.1,1.7,2.1c0.5,0,1-0.3,1.3-0.5l0.6,0.9c-0.6,0.5-1.4,0.8-2.1,0.8c-1.7,0-3.1-1.2-3.1-3.3
		C94.6,71.8,96.1,70.6,97.8,70.6z"/>
	<path id="XMLID_1116_" class="st0" d="M101,70.8h1.2l0.1,1.1h0.1c0.5-0.8,1.1-1.3,1.8-1.3c0.3,0,0.5,0,0.7,0.1l-0.3,1.3
		c-0.2-0.1-0.4-0.1-0.7-0.1c-0.5,0-1.1,0.4-1.5,1.3v3.9H101V70.8z"/>
	<path id="XMLID_1118_" class="st0" d="M108.2,70.6c1.7,0,2.6,1.2,2.6,3c0,0.3,0,0.5-0.1,0.7h-4.1c0.1,1.2,0.9,1.8,1.9,1.8
		c0.5,0,1-0.2,1.5-0.5l0.5,0.9c-0.6,0.4-1.4,0.7-2.2,0.7c-1.8,0-3.1-1.2-3.1-3.3C105.3,71.9,106.8,70.6,108.2,70.6z M109.6,73.4
		c0-1-0.4-1.6-1.3-1.6c-0.8,0-1.4,0.6-1.5,1.6H109.6z"/>
	<path id="XMLID_1121_" class="st0" d="M115.6,73.1c0-0.7-0.3-1.2-1.2-1.2c-0.6,0-1.2,0.3-1.8,0.6l-0.5-1c0.7-0.4,1.6-0.8,2.6-0.8
		c1.6,0,2.4,1,2.4,2.8v3.8h-1.2l-0.1-0.7h0c-0.6,0.5-1.2,0.9-2,0.9c-1.1,0-1.9-0.8-1.9-1.9C111.9,74.1,113,73.4,115.6,73.1z
		 M114.3,76.1c0.5,0,0.9-0.3,1.4-0.7V74c-1.7,0.2-2.3,0.7-2.3,1.3C113.3,75.9,113.7,76.1,114.3,76.1z"/>
	<path id="XMLID_1124_" class="st0" d="M119,75.5c0.6,0.4,1.1,0.7,1.8,0.7c0.7,0,1-0.3,1-0.8c0-0.5-0.7-0.8-1.4-1
		c-0.8-0.3-1.8-0.8-1.8-1.9c0-1.1,0.9-1.9,2.3-1.9c0.9,0,1.6,0.4,2.1,0.8l-0.7,0.9c-0.4-0.3-0.9-0.5-1.4-0.5c-0.6,0-0.9,0.3-0.9,0.7
		c0,0.5,0.6,0.7,1.3,0.9c0.9,0.3,1.8,0.7,1.8,1.9c0,1.1-0.9,2-2.5,2c-0.9,0-1.8-0.4-2.4-0.9L119,75.5z"/>
	<path id="XMLID_1126_" class="st0" d="M127.1,70.6c1.7,0,2.6,1.2,2.6,3c0,0.3,0,0.5-0.1,0.7h-4.1c0.1,1.2,0.9,1.8,1.9,1.8
		c0.5,0,1-0.2,1.5-0.5l0.5,0.9c-0.6,0.4-1.4,0.7-2.2,0.7c-1.8,0-3.1-1.2-3.1-3.3C124.1,71.9,125.6,70.6,127.1,70.6z M128.4,73.4
		c0-1-0.4-1.6-1.3-1.6c-0.8,0-1.4,0.6-1.5,1.6H128.4z"/>
	<path id="XMLID_1129_" class="st0" d="M133.8,70.8h1.2l0.1,0.9h0.1c0.6-0.6,1.2-1,2.1-1c1.4,0,2,0.9,2,2.5v4h-1.5v-3.8
		c0-1.1-0.3-1.4-1-1.4c-0.6,0-0.9,0.3-1.5,0.8v4.5h-1.5V70.8z"/>
	<path id="XMLID_1131_" class="st0" d="M141,70.8h1.5v3.8c0,1.1,0.3,1.4,1,1.4c0.6,0,0.9-0.3,1.4-0.9v-4.4h1.5v6.4h-1.2l-0.1-0.9h0
		c-0.6,0.7-1.2,1.1-2.1,1.1c-1.4,0-2-0.9-2-2.5V70.8z"/>
	<path id="XMLID_1133_" class="st0" d="M148.3,70.8h1.2l0.1,0.9h0.1c0.5-0.6,1.2-1,2-1c0.9,0,1.5,0.4,1.8,1.1
		c0.6-0.7,1.2-1.1,2.1-1.1c1.4,0,2,0.9,2,2.5v4H156v-3.8c0-1.1-0.3-1.4-1-1.4c-0.4,0-0.8,0.3-1.3,0.8v4.5h-1.5v-3.8
		c0-1.1-0.3-1.4-1-1.4c-0.4,0-0.8,0.3-1.3,0.8v4.5h-1.5V70.8z"/>
	<path id="XMLID_1135_" class="st0" d="M159.3,68h1.5v2.4l0,1.1c0.5-0.5,1.2-0.8,1.8-0.8c1.6,0,2.5,1.3,2.5,3.2
		c0,2.2-1.3,3.5-2.7,3.5c-0.6,0-1.2-0.3-1.7-0.8h0l-0.1,0.6h-1.2V68z M162.1,76.1c0.8,0,1.5-0.8,1.5-2.2c0-1.3-0.4-2-1.4-2
		c-0.5,0-0.9,0.2-1.4,0.7v3C161.2,75.9,161.7,76.1,162.1,76.1z"/>
	<path id="XMLID_1138_" class="st0" d="M169.1,70.6c1.7,0,2.6,1.2,2.6,3c0,0.3,0,0.5-0.1,0.7h-4.1c0.1,1.2,0.9,1.8,1.9,1.8
		c0.5,0,1-0.2,1.5-0.5l0.5,0.9c-0.6,0.4-1.4,0.7-2.2,0.7c-1.8,0-3.1-1.2-3.1-3.3C166.2,71.9,167.6,70.6,169.1,70.6z M170.5,73.4
		c0-1-0.4-1.6-1.3-1.6c-0.8,0-1.4,0.6-1.5,1.6H170.5z"/>
	<path id="XMLID_1141_" class="st0" d="M173.2,70.8h1.2l0.1,1.1h0.1c0.5-0.8,1.1-1.3,1.8-1.3c0.3,0,0.5,0,0.7,0.1l-0.3,1.3
		c-0.2-0.1-0.4-0.1-0.7-0.1c-0.5,0-1.1,0.4-1.5,1.3v3.9h-1.5V70.8z"/>
	<path id="XMLID_1143_" class="st0" d="M27.1,86.2c1.6,0,3,1.2,3,3.4c0,2.1-1.4,3.3-3,3.3c-1.6,0-3-1.2-3-3.3
		C24,87.4,25.5,86.2,27.1,86.2z M27.1,91.7c0.9,0,1.5-0.8,1.5-2.1c0-1.3-0.6-2.1-1.5-2.1s-1.5,0.8-1.5,2.1
		C25.6,90.8,26.1,91.7,27.1,91.7z"/>
	<path id="XMLID_1146_" class="st0" d="M34.8,84.8c-0.2-0.1-0.5-0.2-0.7-0.2c-0.5,0-0.8,0.3-0.8,1.1v0.7h1.2v1.2h-1.2v5.2h-1.5v-5.2
		h-0.9v-1.1l0.9-0.1v-0.7c0-1.3,0.6-2.3,2.1-2.3c0.5,0,0.9,0.1,1.2,0.2L34.8,84.8z"/>
	<path id="XMLID_1148_" class="st0" d="M38.3,86.4h1.2l0.1,0.9h0.1c0.6-0.6,1.2-1,2.1-1c1.4,0,2,0.9,2,2.5v4h-1.5v-3.8
		c0-1.1-0.3-1.4-1-1.4c-0.6,0-0.9,0.3-1.5,0.8v4.5h-1.5V86.4z"/>
	<path id="XMLID_1150_" class="st0" d="M48.1,86.2c1.7,0,2.6,1.2,2.6,3c0,0.3,0,0.5-0.1,0.7h-4.1c0.1,1.2,0.9,1.8,1.9,1.8
		c0.5,0,1-0.2,1.5-0.5l0.5,0.9c-0.6,0.4-1.4,0.7-2.2,0.7c-1.8,0-3.1-1.2-3.1-3.3C45.2,87.5,46.6,86.2,48.1,86.2z M49.5,89
		c0-1-0.4-1.6-1.3-1.6c-0.8,0-1.4,0.6-1.5,1.6H49.5z"/>
	<path id="XMLID_1153_" class="st0" d="M52.1,86.4h1.5v3.8c0,1.1,0.3,1.4,1,1.4c0.6,0,0.9-0.3,1.4-0.9v-4.4h1.5v6.4h-1.2l-0.1-0.9h0
		c-0.6,0.7-1.2,1.1-2.1,1.1c-1.4,0-2-0.9-2-2.5V86.4z"/>
	<path id="XMLID_1155_" class="st0" d="M59.4,86.4h1.2l0.1,1.1h0.1c0.5-0.8,1.1-1.3,1.8-1.3c0.3,0,0.5,0,0.7,0.1l-0.3,1.3
		c-0.2-0.1-0.4-0.1-0.7-0.1c-0.5,0-1.1,0.4-1.5,1.3v3.9h-1.5V86.4z"/>
	<path id="XMLID_1157_" class="st0" d="M66.7,86.2c1.6,0,3,1.2,3,3.4c0,2.1-1.4,3.3-3,3.3c-1.6,0-3-1.2-3-3.3
		C63.7,87.4,65.2,86.2,66.7,86.2z M66.7,91.7c0.9,0,1.5-0.8,1.5-2.1c0-1.3-0.6-2.1-1.5-2.1s-1.5,0.8-1.5,2.1
		C65.2,90.8,65.8,91.7,66.7,91.7z"/>
	<path id="XMLID_1160_" class="st0" d="M71.3,86.4h1.2l0.1,0.9h0.1c0.6-0.6,1.2-1,2.1-1c1.4,0,2,0.9,2,2.5v4h-1.5v-3.8
		c0-1.1-0.3-1.4-1-1.4c-0.6,0-0.9,0.3-1.5,0.8v4.5h-1.5V86.4z"/>
	<path id="XMLID_1162_" class="st0" d="M78.6,91.1c0.6,0.4,1.1,0.7,1.8,0.7c0.7,0,1-0.3,1-0.8c0-0.5-0.7-0.8-1.4-1
		c-0.8-0.3-1.8-0.8-1.8-1.9c0-1.1,0.9-1.9,2.3-1.9c0.9,0,1.6,0.4,2.1,0.8L82,87.9c-0.4-0.3-0.9-0.5-1.4-0.5c-0.6,0-0.9,0.3-0.9,0.7
		c0,0.5,0.6,0.7,1.3,0.9c0.9,0.3,1.8,0.7,1.8,1.9c0,1.1-0.9,2-2.5,2c-0.9,0-1.8-0.4-2.4-0.9L78.6,91.1z"/>
	<path id="XMLID_1164_" class="st0" d="M89.4,86.2c1.6,0,3,1.2,3,3.4c0,2.1-1.4,3.3-3,3.3c-1.6,0-3-1.2-3-3.3
		C86.4,87.4,87.8,86.2,89.4,86.2z M89.4,91.7c0.9,0,1.5-0.8,1.5-2.1c0-1.3-0.6-2.1-1.5-2.1s-1.5,0.8-1.5,2.1
		C87.9,90.8,88.5,91.7,89.4,91.7z"/>
	<path id="XMLID_1167_" class="st0" d="M93.9,86.4h1.2l0.1,0.9h0.1c0.6-0.6,1.2-1,2.1-1c1.4,0,2,0.9,2,2.5v4h-1.5v-3.8
		c0-1.1-0.3-1.4-1-1.4c-0.6,0-0.9,0.3-1.5,0.8v4.5h-1.5V86.4z"/>
	<path id="XMLID_1169_" class="st0" d="M104.1,87.6h-0.9v-1.1l1-0.1l0.2-1.7h1.2v1.7h1.6v1.2h-1.6v3c0,0.8,0.3,1.1,0.9,1.1
		c0.2,0,0.5-0.1,0.7-0.1l0.3,1.1c-0.4,0.1-0.8,0.2-1.3,0.2c-1.5,0-2-0.9-2-2.3V87.6z"/>
	<path id="XMLID_1171_" class="st0" d="M108.6,83.6h1.5v2.4l-0.1,1.2c0.5-0.5,1.2-1,2-1c1.4,0,2,0.9,2,2.5v4h-1.5v-3.8
		c0-1.1-0.3-1.4-1-1.4c-0.6,0-0.9,0.3-1.5,0.8v4.5h-1.5V83.6z"/>
	<path id="XMLID_1173_" class="st0" d="M119.3,88.7c0-0.7-0.3-1.2-1.2-1.2c-0.6,0-1.2,0.3-1.8,0.6l-0.5-1c0.7-0.4,1.6-0.8,2.6-0.8
		c1.6,0,2.4,1,2.4,2.8v3.8h-1.2l-0.1-0.7h0c-0.6,0.5-1.2,0.9-2,0.9c-1.1,0-1.9-0.8-1.9-1.9C115.6,89.7,116.7,89,119.3,88.7z
		 M117.9,91.7c0.5,0,0.9-0.3,1.4-0.7v-1.4c-1.7,0.2-2.3,0.7-2.3,1.3C117,91.5,117.4,91.7,117.9,91.7z"/>
	<path id="XMLID_1176_" class="st0" d="M122.9,87.6H122v-1.1l1-0.1l0.2-1.7h1.2v1.7h1.6v1.2h-1.6v3c0,0.8,0.3,1.1,0.9,1.1
		c0.2,0,0.5-0.1,0.7-0.1l0.3,1.1c-0.4,0.1-0.8,0.2-1.3,0.2c-1.5,0-2-0.9-2-2.3V87.6z"/>
	<path id="XMLID_1178_" class="st0" d="M130,83.6h1.5v7.6c0,0.4,0.2,0.5,0.3,0.5c0.1,0,0.1,0,0.2,0l0.2,1.1
		c-0.2,0.1-0.4,0.1-0.8,0.1c-1.1,0-1.5-0.7-1.5-1.8V83.6z"/>
	<path id="XMLID_1180_" class="st0" d="M137,88.7c0-0.7-0.3-1.2-1.2-1.2c-0.6,0-1.2,0.3-1.8,0.6l-0.5-1c0.7-0.4,1.6-0.8,2.6-0.8
		c1.6,0,2.4,1,2.4,2.8v3.8h-1.2l-0.1-0.7h0c-0.6,0.5-1.2,0.9-2,0.9c-1.1,0-1.9-0.8-1.9-1.9C133.2,89.7,134.4,89,137,88.7z
		 M135.6,91.7c0.5,0,0.9-0.3,1.4-0.7v-1.4c-1.7,0.2-2.3,0.7-2.3,1.3C134.7,91.5,135.1,91.7,135.6,91.7z"/>
	<path id="XMLID_1183_" class="st0" d="M140.6,94.2c0.7,0,1.1-0.5,1.3-1.1l0.1-0.4l-2.5-6.3h1.5l1.1,3.1c0.2,0.6,0.4,1.2,0.6,1.8
		h0.1c0.2-0.6,0.3-1.2,0.5-1.8l1-3.1h1.4l-2.3,6.7c-0.5,1.4-1.2,2.3-2.6,2.3c-0.4,0-0.6-0.1-0.8-0.1l0.3-1.2
		C140.3,94.1,140.5,94.2,140.6,94.2z"/>
	<path id="XMLID_1185_" class="st0" d="M149.2,86.2c1.7,0,2.6,1.2,2.6,3c0,0.3,0,0.5-0.1,0.7h-4.1c0.1,1.2,0.9,1.8,1.9,1.8
		c0.5,0,1-0.2,1.5-0.5l0.5,0.9c-0.6,0.4-1.4,0.7-2.2,0.7c-1.8,0-3.1-1.2-3.1-3.3C146.3,87.5,147.7,86.2,149.2,86.2z M150.5,89
		c0-1-0.4-1.6-1.3-1.6c-0.8,0-1.4,0.6-1.5,1.6H150.5z"/>
	<path id="XMLID_1188_" class="st0" d="M153.3,86.4h1.2l0.1,1.1h0.1c0.5-0.8,1.1-1.3,1.8-1.3c0.3,0,0.5,0,0.7,0.1l-0.3,1.3
		c-0.2-0.1-0.4-0.1-0.7-0.1c-0.5,0-1.1,0.4-1.5,1.3v3.9h-1.5V86.4z"/>
</g>
<g id="XMLID_1603_">
	<path id="XMLID_7_" class="st1" d="M70.4,127.9c-7.7-6.4-7.6-18.9,0.3-28.4"/>
	<polygon id="XMLID_1604_" class="st0" points="70.3,122.2 73.7,131.1 64.8,127.6 	"/>
</g>
</svg>
