<?xml version="1.0" encoding="utf-8"?>
<!-- Generator: Adobe Illustrator 19.0.0, SVG Export Plug-In . SVG Version: 6.00 Build 0)  -->
<svg version="1.1" id="Layer_1" xmlns="http://www.w3.org/2000/svg" xmlns:xlink="http://www.w3.org/1999/xlink" x="0px" y="0px"
	 viewBox="0 0 200 200" style="enable-background:new 0 0 200 200;" xml:space="preserve">
<style type="text/css">
	.st0{fill:#264E6E;}
	.st1{fill:none;stroke:#264E6E;stroke-width:2;stroke-miterlimit:10;}
</style>
<g id="XMLID_724_">
	<path id="XMLID_725_" class="st0" d="M24.3,126.4c0.6,0.6,1.4,1,2.2,1c0.9,0,1.5-0.4,1.5-1.1c0-0.7-0.5-0.9-1.3-1.2l-1.2-0.5
		c-0.8-0.4-1.7-1-1.7-2.3c0-1.4,1.2-2.4,2.8-2.4c1,0,2,0.4,2.6,1.1l-0.8,1c-0.5-0.5-1.1-0.7-1.8-0.7c-0.8,0-1.3,0.4-1.3,1
		c0,0.7,0.7,0.9,1.4,1.2l1.1,0.5c1,0.4,1.7,1.1,1.7,2.3c0,1.4-1.1,2.5-3.1,2.5c-1.1,0-2.2-0.5-3.1-1.2L24.3,126.4z"/>
	<path id="XMLID_727_" class="st0" d="M31,119.3h1.5v2.4l-0.1,1.2c0.5-0.5,1.2-1,2-1c1.4,0,2,0.9,2,2.5v4h-1.5v-3.8
		c0-1.1-0.3-1.4-1-1.4c-0.6,0-0.9,0.3-1.5,0.8v4.5H31V119.3z"/>
	<path id="XMLID_729_" class="st0" d="M40.8,122c1.6,0,3,1.2,3,3.4c0,2.1-1.4,3.3-3,3.3c-1.6,0-3-1.2-3-3.3
		C37.8,123.2,39.2,122,40.8,122z M40.8,127.4c0.9,0,1.5-0.8,1.5-2.1c0-1.3-0.6-2.1-1.5-2.1s-1.5,0.8-1.5,2.1
		C39.3,126.6,39.9,127.4,40.8,127.4z"/>
	<path id="XMLID_732_" class="st0" d="M44.6,122.1h1.5l0.8,3.3c0.1,0.6,0.2,1.2,0.3,1.8h0.1c0.1-0.6,0.2-1.2,0.4-1.8l0.8-3.3h1.4
		l0.8,3.3c0.2,0.6,0.3,1.2,0.4,1.8h0.1c0.1-0.6,0.2-1.2,0.3-1.8l0.8-3.3h1.4l-1.6,6.4h-1.8l-0.7-3c-0.1-0.6-0.2-1.2-0.4-1.9h-0.1
		c-0.1,0.7-0.2,1.3-0.4,1.9l-0.7,3h-1.7L44.6,122.1z"/>
	<path id="XMLID_734_" class="st0" d="M57.7,122.1h1.2l0.1,1.1h0.1c0.5-0.8,1.1-1.3,1.8-1.3c0.3,0,0.5,0,0.7,0.1l-0.3,1.3
		c-0.2-0.1-0.4-0.1-0.7-0.1c-0.5,0-1.1,0.4-1.5,1.3v3.9h-1.5V122.1z"/>
	<path id="XMLID_736_" class="st0" d="M64.9,122c1.7,0,2.6,1.2,2.6,3c0,0.3,0,0.5-0.1,0.7h-4.1c0.1,1.2,0.9,1.8,1.9,1.8
		c0.5,0,1-0.2,1.5-0.5l0.5,0.9c-0.6,0.4-1.4,0.7-2.2,0.7c-1.8,0-3.1-1.2-3.1-3.3C62,123.2,63.4,122,64.9,122z M66.2,124.7
		c0-1-0.4-1.6-1.3-1.6c-0.8,0-1.4,0.6-1.5,1.6H66.2z"/>
	<path id="XMLID_739_" class="st0" d="M69,126.8c0.6,0.4,1.1,0.7,1.8,0.7c0.7,0,1-0.3,1-0.8c0-0.5-0.7-0.8-1.4-1
		c-0.8-0.3-1.8-0.8-1.8-1.9c0-1.1,0.9-1.9,2.3-1.9c0.9,0,1.6,0.4,2.1,0.8l-0.7,0.9c-0.4-0.3-0.9-0.5-1.4-0.5c-0.6,0-0.9,0.3-0.9,0.7
		c0,0.5,0.6,0.7,1.3,0.9c0.9,0.3,1.8,0.7,1.8,1.9c0,1.1-0.9,2-2.5,2c-0.9,0-1.8-0.4-2.4-0.9L69,126.8z"/>
	<path id="XMLID_741_" class="st0" d="M74.5,122.1H76v3.8c0,1.1,0.3,1.4,1,1.4c0.6,0,0.9-0.3,1.4-0.9v-4.4h1.5v6.4h-1.2l-0.1-0.9h0
		c-0.6,0.7-1.2,1.1-2.1,1.1c-1.4,0-2-0.9-2-2.5V122.1z"/>
	<path id="XMLID_743_" class="st0" d="M81.8,119.3h1.5v7.6c0,0.4,0.2,0.5,0.3,0.5c0.1,0,0.1,0,0.2,0l0.2,1.1
		c-0.2,0.1-0.4,0.1-0.8,0.1c-1.1,0-1.5-0.7-1.5-1.8V119.3z"/>
	<path id="XMLID_745_" class="st0" d="M85.5,123.3h-0.9v-1.1l1-0.1l0.2-1.7h1.2v1.7h1.6v1.2h-1.6v3c0,0.8,0.3,1.1,0.9,1.1
		c0.2,0,0.5-0.1,0.7-0.1l0.3,1.1c-0.4,0.1-0.8,0.2-1.3,0.2c-1.5,0-2-0.9-2-2.3V123.3z"/>
	<path id="XMLID_747_" class="st0" d="M90.1,126.8c0.6,0.4,1.1,0.7,1.8,0.7c0.7,0,1-0.3,1-0.8c0-0.5-0.7-0.8-1.4-1
		c-0.8-0.3-1.8-0.8-1.8-1.9c0-1.1,0.9-1.9,2.3-1.9c0.9,0,1.6,0.4,2.1,0.8l-0.7,0.9c-0.4-0.3-0.9-0.5-1.4-0.5c-0.6,0-0.9,0.3-0.9,0.7
		c0,0.5,0.6,0.7,1.3,0.9c0.9,0.3,1.8,0.7,1.8,1.9c0,1.1-0.9,2-2.5,2c-0.9,0-1.8-0.4-2.4-0.9L90.1,126.8z"/>
	<path id="XMLID_749_" class="st0" d="M100.9,122c1.6,0,3,1.2,3,3.4c0,2.1-1.4,3.3-3,3.3c-1.6,0-3-1.2-3-3.3
		C97.9,123.2,99.3,122,100.9,122z M100.9,127.4c0.9,0,1.5-0.8,1.5-2.1c0-1.3-0.6-2.1-1.5-2.1s-1.5,0.8-1.5,2.1
		C99.4,126.6,100,127.4,100.9,127.4z"/>
	<path id="XMLID_752_" class="st0" d="M105.4,122.1h1.2l0.1,0.9h0.1c0.6-0.6,1.2-1,2.1-1c1.4,0,2,0.9,2,2.5v4h-1.5v-3.8
		c0-1.1-0.3-1.4-1-1.4c-0.6,0-0.9,0.3-1.5,0.8v4.5h-1.5V122.1z"/>
	<path id="XMLID_754_" class="st0" d="M117.9,122c1.7,0,2.6,1.2,2.6,3c0,0.3,0,0.5-0.1,0.7h-4.1c0.1,1.2,0.9,1.8,1.9,1.8
		c0.5,0,1-0.2,1.5-0.5l0.5,0.9c-0.6,0.4-1.4,0.7-2.2,0.7c-1.8,0-3.1-1.2-3.1-3.3C114.9,123.2,116.4,122,117.9,122z M119.2,124.7
		c0-1-0.4-1.6-1.3-1.6c-0.8,0-1.4,0.6-1.5,1.6H119.2z"/>
	<path id="XMLID_757_" class="st0" d="M125.3,124.4c0-0.7-0.3-1.2-1.2-1.2c-0.6,0-1.2,0.3-1.8,0.6l-0.5-1c0.7-0.4,1.6-0.8,2.6-0.8
		c1.6,0,2.4,1,2.4,2.8v3.8h-1.2l-0.1-0.7h0c-0.6,0.5-1.2,0.9-2,0.9c-1.1,0-1.9-0.8-1.9-1.9C121.5,125.4,122.7,124.7,125.3,124.4z
		 M123.9,127.5c0.5,0,0.9-0.3,1.4-0.7v-1.4c-1.7,0.2-2.3,0.7-2.3,1.3C123,127.2,123.4,127.5,123.9,127.5z"/>
	<path id="XMLID_760_" class="st0" d="M131.4,122c0.8,0,1.4,0.3,1.9,0.7l-0.7,0.9c-0.3-0.3-0.7-0.5-1.1-0.5c-1,0-1.7,0.8-1.7,2.1
		c0,1.3,0.7,2.1,1.7,2.1c0.5,0,1-0.3,1.3-0.5l0.6,0.9c-0.6,0.5-1.4,0.8-2.1,0.8c-1.7,0-3.1-1.2-3.1-3.3
		C128.2,123.2,129.7,122,131.4,122z"/>
	<path id="XMLID_762_" class="st0" d="M134.6,119.3h1.5v2.4l-0.1,1.2c0.5-0.5,1.2-1,2-1c1.4,0,2,0.9,2,2.5v4h-1.5v-3.8
		c0-1.1-0.3-1.4-1-1.4c-0.6,0-0.9,0.3-1.5,0.8v4.5h-1.5V119.3z"/>
	<path id="XMLID_764_" class="st0" d="M147,122c1.7,0,2.6,1.2,2.6,3c0,0.3,0,0.5-0.1,0.7h-4.1c0.1,1.2,0.9,1.8,1.9,1.8
		c0.5,0,1-0.2,1.5-0.5l0.5,0.9c-0.6,0.4-1.4,0.7-2.2,0.7c-1.8,0-3.1-1.2-3.1-3.3C144.1,123.2,145.6,122,147,122z M148.4,124.7
		c0-1-0.4-1.6-1.3-1.6c-0.8,0-1.4,0.6-1.5,1.6H148.4z"/>
	<path id="XMLID_767_" class="st0" d="M152.6,129v2h-1.5v-8.9h1.2l0.1,0.7h0.1c0.5-0.5,1.2-0.8,1.9-0.8c1.6,0,2.5,1.3,2.5,3.2
		c0,2.2-1.3,3.4-2.7,3.4c-0.6,0-1.1-0.3-1.6-0.7L152.6,129z M153.9,127.4c0.8,0,1.5-0.8,1.5-2.2c0-1.3-0.4-2-1.4-2
		c-0.5,0-0.9,0.2-1.4,0.7v3C153.1,127.3,153.5,127.4,153.9,127.4z"/>
	<path id="XMLID_770_" class="st0" d="M161.1,122c1.6,0,3,1.2,3,3.4c0,2.1-1.4,3.3-3,3.3c-1.6,0-3-1.2-3-3.3
		C158,123.2,159.5,122,161.1,122z M161.1,127.4c0.9,0,1.5-0.8,1.5-2.1c0-1.3-0.6-2.1-1.5-2.1s-1.5,0.8-1.5,2.1
		C159.6,126.6,160.1,127.4,161.1,127.4z"/>
	<path id="XMLID_773_" class="st0" d="M168.4,122c0.8,0,1.4,0.3,1.9,0.7l-0.7,0.9c-0.3-0.3-0.7-0.5-1.1-0.5c-1,0-1.7,0.8-1.7,2.1
		c0,1.3,0.7,2.1,1.7,2.1c0.5,0,1-0.3,1.3-0.5l0.6,0.9c-0.6,0.5-1.4,0.8-2.1,0.8c-1.7,0-3.1-1.2-3.1-3.3
		C165.2,123.2,166.7,122,168.4,122z"/>
	<path id="XMLID_775_" class="st0" d="M171.6,119.3h1.5v2.4l-0.1,1.2c0.5-0.5,1.2-1,2-1c1.4,0,2,0.9,2,2.5v4h-1.5v-3.8
		c0-1.1-0.3-1.4-1-1.4c-0.6,0-0.9,0.3-1.5,0.8v4.5h-1.5V119.3z"/>
	<path id="XMLID_777_" class="st0" d="M26.5,137.6c1.6,0,3,1.2,3,3.4c0,2.1-1.4,3.3-3,3.3c-1.6,0-3-1.2-3-3.3
		C23.5,138.8,24.9,137.6,26.5,137.6z M26.5,143c0.9,0,1.5-0.8,1.5-2.1c0-1.3-0.6-2.1-1.5-2.1s-1.5,0.8-1.5,2.1
		C25,142.2,25.6,143,26.5,143z"/>
	<path id="XMLID_780_" class="st0" d="M31,137.7h1.2l0.1,1.1h0.1c0.5-0.8,1.1-1.3,1.8-1.3c0.3,0,0.5,0,0.7,0.1l-0.3,1.3
		c-0.2-0.1-0.4-0.1-0.7-0.1c-0.5,0-1.1,0.4-1.5,1.3v3.9H31V137.7z"/>
	<path id="XMLID_782_" class="st0" d="M41.2,137.6c1.6,0,3,1.2,3,3.4c0,2.1-1.4,3.3-3,3.3c-1.6,0-3-1.2-3-3.3
		C38.1,138.8,39.6,137.6,41.2,137.6z M41.2,143c0.9,0,1.5-0.8,1.5-2.1c0-1.3-0.6-2.1-1.5-2.1s-1.5,0.8-1.5,2.1
		C39.7,142.2,40.2,143,41.2,143z"/>
	<path id="XMLID_785_" class="st0" d="M45.7,137.7h1.2l0.1,0.9h0.1c0.6-0.6,1.2-1,2.1-1c1.4,0,2,0.9,2,2.5v4h-1.5v-3.8
		c0-1.1-0.3-1.4-1-1.4c-0.6,0-0.9,0.3-1.5,0.8v4.5h-1.5V137.7z"/>
	<path id="XMLID_787_" class="st0" d="M53,134.9h1.5v7.6c0,0.4,0.2,0.5,0.3,0.5c0.1,0,0.1,0,0.2,0l0.2,1.1c-0.2,0.1-0.4,0.1-0.8,0.1
		c-1.1,0-1.5-0.7-1.5-1.8V134.9z"/>
	<path id="XMLID_789_" class="st0" d="M56.8,145.5c0.7,0,1.1-0.5,1.3-1.1l0.1-0.4l-2.5-6.3h1.5l1.1,3.1c0.2,0.6,0.4,1.2,0.6,1.8h0.1
		c0.2-0.6,0.3-1.2,0.5-1.8l1-3.1h1.4l-2.3,6.7c-0.5,1.4-1.2,2.3-2.6,2.3c-0.4,0-0.6-0.1-0.8-0.1l0.3-1.2
		C56.5,145.5,56.7,145.5,56.8,145.5z"/>
	<path id="XMLID_791_" class="st0" d="M69.1,140c0-0.7-0.3-1.2-1.2-1.2c-0.6,0-1.2,0.3-1.8,0.6l-0.5-1c0.7-0.4,1.6-0.8,2.6-0.8
		c1.6,0,2.4,1,2.4,2.8v3.8h-1.2l-0.1-0.7h0c-0.6,0.5-1.2,0.9-2,0.9c-1.1,0-1.9-0.8-1.9-1.9C65.3,141,66.5,140.3,69.1,140z
		 M67.7,143.1c0.5,0,0.9-0.3,1.4-0.7V141c-1.7,0.2-2.3,0.7-2.3,1.3C66.8,142.8,67.2,143.1,67.7,143.1z"/>
	<path id="XMLID_794_" class="st0" d="M72.6,138.9h-0.9v-1.1l1-0.1l0.2-1.7h1.2v1.7h1.6v1.2h-1.6v3c0,0.8,0.3,1.1,0.9,1.1
		c0.2,0,0.5-0.1,0.7-0.1L76,144c-0.4,0.1-0.8,0.2-1.3,0.2c-1.5,0-2-0.9-2-2.3V138.9z"/>
	<path id="XMLID_796_" class="st0" d="M80,138.9h-0.9v-1.1l1-0.1l0.2-1.7h1.2v1.7h1.6v1.2h-1.6v3c0,0.8,0.3,1.1,0.9,1.1
		c0.2,0,0.5-0.1,0.7-0.1l0.3,1.1c-0.4,0.1-0.8,0.2-1.3,0.2c-1.5,0-2-0.9-2-2.3V138.9z"/>
	<path id="XMLID_798_" class="st0" d="M84.5,134.9h1.5v2.4l-0.1,1.2c0.5-0.5,1.2-1,2-1c1.4,0,2,0.9,2,2.5v4h-1.5v-3.8
		c0-1.1-0.3-1.4-1-1.4c-0.6,0-0.9,0.3-1.5,0.8v4.5h-1.5V134.9z"/>
	<path id="XMLID_800_" class="st0" d="M94.2,137.6c1.7,0,2.6,1.2,2.6,3c0,0.3,0,0.5-0.1,0.7h-4.1c0.1,1.2,0.9,1.8,1.9,1.8
		c0.5,0,1-0.2,1.5-0.5l0.5,0.9c-0.6,0.4-1.4,0.7-2.2,0.7c-1.8,0-3.1-1.2-3.1-3.3C91.3,138.8,92.7,137.6,94.2,137.6z M95.6,140.3
		c0-1-0.4-1.6-1.3-1.6c-0.8,0-1.4,0.6-1.5,1.6H95.6z"/>
	<path id="XMLID_803_" class="st0" d="M101,134.9h1.5v7.6c0,0.4,0.2,0.5,0.3,0.5c0.1,0,0.1,0,0.2,0l0.2,1.1
		c-0.2,0.1-0.4,0.1-0.8,0.1c-1.1,0-1.5-0.7-1.5-1.8V134.9z"/>
	<path id="XMLID_805_" class="st0" d="M108,140c0-0.7-0.3-1.2-1.2-1.2c-0.6,0-1.2,0.3-1.8,0.6l-0.5-1c0.7-0.4,1.6-0.8,2.6-0.8
		c1.6,0,2.4,1,2.4,2.8v3.8h-1.2l-0.1-0.7h0c-0.6,0.5-1.2,0.9-2,0.9c-1.1,0-1.9-0.8-1.9-1.9C104.2,141,105.4,140.3,108,140z
		 M106.6,143.1c0.5,0,0.9-0.3,1.4-0.7V141c-1.7,0.2-2.3,0.7-2.3,1.3C105.7,142.8,106,143.1,106.6,143.1z"/>
	<path id="XMLID_808_" class="st0" d="M111.3,142.4c0.6,0.4,1.1,0.7,1.8,0.7c0.7,0,1-0.3,1-0.8c0-0.5-0.7-0.8-1.4-1
		c-0.8-0.3-1.8-0.8-1.8-1.9c0-1.1,0.9-1.9,2.3-1.9c0.9,0,1.6,0.4,2.1,0.8l-0.7,0.9c-0.4-0.3-0.9-0.5-1.4-0.5c-0.6,0-0.9,0.3-0.9,0.7
		c0,0.5,0.6,0.7,1.3,0.9c0.9,0.3,1.8,0.7,1.8,1.9c0,1.1-0.9,2-2.5,2c-0.9,0-1.8-0.4-2.4-0.9L111.3,142.4z"/>
	<path id="XMLID_810_" class="st0" d="M117.1,138.9h-0.9v-1.1l1-0.1l0.2-1.7h1.2v1.7h1.6v1.2h-1.6v3c0,0.8,0.3,1.1,0.9,1.1
		c0.2,0,0.5-0.1,0.7-0.1l0.3,1.1c-0.4,0.1-0.8,0.2-1.3,0.2c-1.5,0-2-0.9-2-2.3V138.9z"/>
	<path id="XMLID_812_" class="st0" d="M126.9,137.6c1.6,0,3,1.2,3,3.4c0,2.1-1.4,3.3-3,3.3c-1.6,0-3-1.2-3-3.3
		C123.8,138.8,125.3,137.6,126.9,137.6z M126.9,143c0.9,0,1.5-0.8,1.5-2.1c0-1.3-0.6-2.1-1.5-2.1s-1.5,0.8-1.5,2.1
		C125.4,142.2,125.9,143,126.9,143z"/>
	<path id="XMLID_815_" class="st0" d="M131.4,137.7h1.2l0.1,0.9h0.1c0.6-0.6,1.2-1,2.1-1c1.4,0,2,0.9,2,2.5v4h-1.5v-3.8
		c0-1.1-0.3-1.4-1-1.4c-0.6,0-0.9,0.3-1.5,0.8v4.5h-1.5V137.7z"/>
	<path id="XMLID_817_" class="st0" d="M141.2,137.6c1.7,0,2.6,1.2,2.6,3c0,0.3,0,0.5-0.1,0.7h-4.1c0.1,1.2,0.9,1.8,1.9,1.8
		c0.5,0,1-0.2,1.5-0.5l0.5,0.9c-0.6,0.4-1.4,0.7-2.2,0.7c-1.8,0-3.1-1.2-3.1-3.3C138.2,138.8,139.7,137.6,141.2,137.6z M142.5,140.3
		c0-1-0.4-1.6-1.3-1.6c-0.8,0-1.4,0.6-1.5,1.6H142.5z"/>
</g>
<g id="XMLID_1603_">
	<line id="XMLID_1605_" class="st1" x1="34.3" y1="63.8" x2="34.3" y2="114.2"/>
	<polygon id="XMLID_1604_" class="st0" points="30.5,67.1 34.4,53 38.2,67.1 	"/>
</g>
</svg>
