<?xml version="1.0" encoding="utf-8"?>
<!-- Generator: Adobe Illustrator 19.0.0, SVG Export Plug-In . SVG Version: 6.00 Build 0)  -->
<svg version="1.1" id="Layer_1" xmlns="http://www.w3.org/2000/svg" xmlns:xlink="http://www.w3.org/1999/xlink" x="0px" y="0px"
	 viewBox="0 0 200 200" style="enable-background:new 0 0 200 200;" xml:space="preserve">
<style type="text/css">
	.st0{fill:#264E6E;}
	.st1{fill:none;stroke:#264E6E;stroke-width:2;stroke-miterlimit:10;}
</style>
<g id="XMLID_581_">
	<path id="XMLID_582_" class="st0" d="M59.7,88.4h1.5v7.2h3.5v1.3h-5V88.4z"/>
	<path id="XMLID_584_" class="st0" d="M68.5,90.3c1.6,0,3,1.2,3,3.4c0,2.1-1.4,3.3-3,3.3c-1.6,0-3-1.2-3-3.3
		C65.5,91.6,66.9,90.3,68.5,90.3z M68.5,95.8c0.9,0,1.5-0.8,1.5-2.1c0-1.3-0.6-2.1-1.5-2.1S67,92.4,67,93.7
		C67,95,67.5,95.8,68.5,95.8z"/>
	<path id="XMLID_587_" class="st0" d="M76.3,92.8c0-0.7-0.3-1.2-1.2-1.2c-0.6,0-1.2,0.3-1.8,0.6l-0.5-1c0.7-0.4,1.6-0.8,2.6-0.8
		c1.6,0,2.4,1,2.4,2.8v3.8h-1.2l-0.1-0.7h0c-0.6,0.5-1.2,0.9-2,0.9c-1.1,0-1.9-0.8-1.9-1.9C72.6,93.8,73.7,93.1,76.3,92.8z
		 M74.9,95.9c0.5,0,0.9-0.3,1.4-0.7v-1.4C74.6,93.9,74,94.4,74,95C74,95.6,74.4,95.9,74.9,95.9z"/>
	<path id="XMLID_590_" class="st0" d="M82,90.3c0.7,0,1.2,0.3,1.7,0.7l-0.1-1v-2.3h1.5v9.2h-1.2l-0.1-0.7h-0.1
		c-0.5,0.5-1.1,0.8-1.8,0.8c-1.6,0-2.6-1.2-2.6-3.3C79.3,91.6,80.6,90.3,82,90.3z M82.3,95.8c0.5,0,0.9-0.2,1.3-0.7v-3
		c-0.4-0.4-0.9-0.5-1.3-0.5c-0.8,0-1.5,0.8-1.5,2.1C80.8,95.1,81.3,95.8,82.3,95.8z"/>
	<path id="XMLID_593_" class="st0" d="M89.7,95.2c0.6,0.4,1.1,0.7,1.8,0.7c0.7,0,1-0.3,1-0.8c0-0.5-0.7-0.8-1.4-1
		c-0.8-0.3-1.8-0.8-1.8-1.9c0-1.1,0.9-1.9,2.3-1.9c0.9,0,1.6,0.4,2.1,0.8L93.1,92c-0.4-0.3-0.9-0.5-1.4-0.5c-0.6,0-0.9,0.3-0.9,0.7
		c0,0.5,0.6,0.7,1.3,0.9c0.9,0.3,1.8,0.7,1.8,1.9c0,1.1-0.9,2-2.5,2c-0.9,0-1.8-0.4-2.4-0.9L89.7,95.2z"/>
	<path id="XMLID_595_" class="st0" d="M97.9,90.3c1.6,0,3,1.2,3,3.4c0,2.1-1.4,3.3-3,3.3c-1.6,0-3-1.2-3-3.3
		C94.8,91.6,96.3,90.3,97.9,90.3z M97.9,95.8c0.9,0,1.5-0.8,1.5-2.1c0-1.3-0.6-2.1-1.5-2.1s-1.5,0.8-1.5,2.1
		C96.4,95,96.9,95.8,97.9,95.8z"/>
	<path id="XMLID_598_" class="st0" d="M102.4,90.5h1.2l0.1,0.9h0.1c0.5-0.6,1.2-1,1.9-1c0.9,0,1.5,0.4,1.8,1.1
		c0.6-0.7,1.2-1.1,2.1-1.1c1.4,0,2,0.9,2,2.5v4H110v-3.8c0-1.1-0.3-1.4-1-1.4c-0.4,0-0.8,0.3-1.3,0.8v4.5h-1.5v-3.8
		c0-1.1-0.3-1.4-1-1.4c-0.4,0-0.8,0.3-1.3,0.8v4.5h-1.5V90.5z"/>
	<path id="XMLID_600_" class="st0" d="M115.9,90.3c1.7,0,2.6,1.2,2.6,3c0,0.3,0,0.5-0.1,0.7h-4.1c0.1,1.2,0.9,1.8,1.9,1.8
		c0.5,0,1-0.2,1.5-0.5l0.5,0.9c-0.6,0.4-1.4,0.7-2.2,0.7c-1.8,0-3.1-1.2-3.1-3.3C112.9,91.6,114.4,90.3,115.9,90.3z M117.2,93.1
		c0-1-0.4-1.6-1.3-1.6c-0.8,0-1.4,0.6-1.5,1.6H117.2z"/>
	<path id="XMLID_603_" class="st0" d="M125.2,90.3c1.6,0,3,1.2,3,3.4c0,2.1-1.4,3.3-3,3.3c-1.6,0-3-1.2-3-3.3
		C122.2,91.6,123.6,90.3,125.2,90.3z M125.2,95.8c0.9,0,1.5-0.8,1.5-2.1c0-1.3-0.6-2.1-1.5-2.1s-1.5,0.8-1.5,2.1
		C123.7,95,124.3,95.8,125.2,95.8z"/>
	<path id="XMLID_606_" class="st0" d="M130,91.7H129v-1.1l1-0.1l0.2-1.7h1.2v1.7h1.6v1.2h-1.6v3c0,0.8,0.3,1.1,0.9,1.1
		c0.2,0,0.5-0.1,0.7-0.1l0.3,1.1c-0.4,0.1-0.8,0.2-1.3,0.2c-1.5,0-2-0.9-2-2.3V91.7z"/>
	<path id="XMLID_608_" class="st0" d="M134.4,87.7h1.5v2.4l-0.1,1.2c0.5-0.5,1.2-1,2-1c1.4,0,2,0.9,2,2.5v4h-1.5v-3.8
		c0-1.1-0.3-1.4-1-1.4c-0.6,0-0.9,0.3-1.5,0.8v4.5h-1.5V87.7z"/>
	<path id="XMLID_610_" class="st0" d="M144.2,90.3c1.7,0,2.6,1.2,2.6,3c0,0.3,0,0.5-0.1,0.7h-4.1c0.1,1.2,0.9,1.8,1.9,1.8
		c0.5,0,1-0.2,1.5-0.5l0.5,0.9c-0.6,0.4-1.4,0.7-2.2,0.7c-1.8,0-3.1-1.2-3.1-3.3C141.3,91.6,142.7,90.3,144.2,90.3z M145.5,93.1
		c0-1-0.4-1.6-1.3-1.6c-0.8,0-1.4,0.6-1.5,1.6H145.5z"/>
	<path id="XMLID_613_" class="st0" d="M148.3,90.5h1.2l0.1,1.1h0.1c0.5-0.8,1.1-1.3,1.8-1.3c0.3,0,0.5,0,0.7,0.1l-0.3,1.3
		c-0.2-0.1-0.4-0.1-0.7-0.1c-0.5,0-1.1,0.4-1.5,1.3v3.9h-1.5V90.5z"/>
	<path id="XMLID_615_" class="st0" d="M158.1,90.3c0.7,0,1.2,0.3,1.7,0.7l-0.1-1v-2.3h1.5v9.2H160l-0.1-0.7h-0.1
		c-0.5,0.5-1.1,0.8-1.8,0.8c-1.6,0-2.6-1.2-2.6-3.3C155.4,91.6,156.7,90.3,158.1,90.3z M158.4,95.8c0.5,0,0.9-0.2,1.3-0.7v-3
		c-0.4-0.4-0.9-0.5-1.3-0.5c-0.8,0-1.5,0.8-1.5,2.1C156.9,95.1,157.5,95.8,158.4,95.8z"/>
	<path id="XMLID_618_" class="st0" d="M166.6,92.8c0-0.7-0.3-1.2-1.2-1.2c-0.6,0-1.2,0.3-1.8,0.6l-0.5-1c0.7-0.4,1.6-0.8,2.6-0.8
		c1.6,0,2.4,1,2.4,2.8v3.8h-1.2l-0.1-0.7h0c-0.6,0.5-1.2,0.9-2,0.9c-1.1,0-1.9-0.8-1.9-1.9C162.8,93.8,164,93.1,166.6,92.8z
		 M165.2,95.9c0.5,0,0.9-0.3,1.4-0.7v-1.4c-1.7,0.2-2.3,0.7-2.3,1.3C164.3,95.6,164.7,95.9,165.2,95.9z"/>
	<path id="XMLID_621_" class="st0" d="M170.1,91.7h-0.9v-1.1l1-0.1l0.2-1.7h1.2v1.7h1.6v1.2h-1.6v3c0,0.8,0.3,1.1,0.9,1.1
		c0.2,0,0.5-0.1,0.7-0.1l0.3,1.1c-0.4,0.1-0.8,0.2-1.3,0.2c-1.5,0-2-0.9-2-2.3V91.7z"/>
	<path id="XMLID_623_" class="st0" d="M177.9,92.8c0-0.7-0.3-1.2-1.2-1.2c-0.6,0-1.2,0.3-1.8,0.6l-0.5-1c0.7-0.4,1.6-0.8,2.6-0.8
		c1.6,0,2.4,1,2.4,2.8v3.8h-1.2l-0.1-0.7h0c-0.6,0.5-1.2,0.9-2,0.9c-1.1,0-1.9-0.8-1.9-1.9C174.1,93.8,175.3,93.1,177.9,92.8z
		 M176.5,95.9c0.5,0,0.9-0.3,1.4-0.7v-1.4c-1.7,0.2-2.3,0.7-2.3,1.3C175.6,95.6,176,95.9,176.5,95.9z"/>
	<path id="XMLID_626_" class="st0" d="M181.3,95.2c0.6,0.4,1.1,0.7,1.8,0.7c0.7,0,1-0.3,1-0.8c0-0.5-0.7-0.8-1.4-1
		c-0.8-0.3-1.8-0.8-1.8-1.9c0-1.1,0.9-1.9,2.3-1.9c0.9,0,1.6,0.4,2.1,0.8l-0.7,0.9c-0.4-0.3-0.9-0.5-1.4-0.5c-0.6,0-0.9,0.3-0.9,0.7
		c0,0.5,0.6,0.7,1.3,0.9c0.9,0.3,1.8,0.7,1.8,1.9c0,1.1-0.9,2-2.5,2c-0.9,0-1.8-0.4-2.4-0.9L181.3,95.2z"/>
	<path id="XMLID_628_" class="st0" d="M189.3,90.3c1.7,0,2.6,1.2,2.6,3c0,0.3,0,0.5-0.1,0.7h-4.1c0.1,1.2,0.9,1.8,1.9,1.8
		c0.5,0,1-0.2,1.5-0.5l0.5,0.9c-0.6,0.4-1.4,0.7-2.2,0.7c-1.8,0-3.1-1.2-3.1-3.3C186.4,91.6,187.8,90.3,189.3,90.3z M190.7,93.1
		c0-1-0.4-1.6-1.3-1.6c-0.8,0-1.4,0.6-1.5,1.6H190.7z"/>
	<path id="XMLID_631_" class="st0" d="M193.4,91.7h-0.9v-1.1l1-0.1l0.2-1.7h1.2v1.7h1.6v1.2h-1.6v3c0,0.8,0.3,1.1,0.9,1.1
		c0.2,0,0.5-0.1,0.7-0.1l0.3,1.1c-0.4,0.1-0.8,0.2-1.3,0.2c-1.5,0-2-0.9-2-2.3V91.7z"/>
	<path id="XMLID_633_" class="st0" d="M62.3,105.9c0.8,0,1.4,0.3,1.9,0.7l-0.7,0.9c-0.3-0.3-0.7-0.5-1.1-0.5c-1,0-1.7,0.8-1.7,2.1
		c0,1.3,0.7,2.1,1.7,2.1c0.5,0,1-0.3,1.3-0.5l0.6,0.9c-0.6,0.5-1.4,0.8-2.1,0.8c-1.7,0-3.1-1.2-3.1-3.3
		C59.1,107.2,60.6,105.9,62.3,105.9z"/>
	<path id="XMLID_635_" class="st0" d="M65.6,106.1h1.2l0.1,1.1H67c0.5-0.8,1.1-1.3,1.8-1.3c0.3,0,0.5,0,0.7,0.1l-0.3,1.3
		c-0.2-0.1-0.4-0.1-0.7-0.1c-0.5,0-1.1,0.4-1.5,1.3v3.9h-1.5V106.1z"/>
	<path id="XMLID_637_" class="st0" d="M72.8,105.9c1.7,0,2.6,1.2,2.6,3c0,0.3,0,0.5-0.1,0.7h-4.1c0.1,1.2,0.9,1.8,1.9,1.8
		c0.5,0,1-0.2,1.5-0.5l0.5,0.9c-0.6,0.4-1.4,0.7-2.2,0.7c-1.8,0-3.1-1.2-3.1-3.3C69.9,107.2,71.3,105.9,72.8,105.9z M74.1,108.7
		c0-1-0.4-1.6-1.3-1.6c-0.8,0-1.4,0.6-1.5,1.6H74.1z"/>
	<path id="XMLID_640_" class="st0" d="M80.2,108.4c0-0.7-0.3-1.2-1.2-1.2c-0.6,0-1.2,0.3-1.8,0.6l-0.5-1c0.7-0.4,1.6-0.8,2.6-0.8
		c1.6,0,2.4,1,2.4,2.8v3.8h-1.2l-0.1-0.7h0c-0.6,0.5-1.2,0.9-2,0.9c-1.1,0-1.9-0.8-1.9-1.9C76.4,109.4,77.6,108.7,80.2,108.4z
		 M78.8,111.5c0.5,0,0.9-0.3,1.4-0.7v-1.4c-1.7,0.2-2.3,0.7-2.3,1.3C77.9,111.2,78.3,111.5,78.8,111.5z"/>
	<path id="XMLID_643_" class="st0" d="M83.7,107.3h-0.9v-1.1l1-0.1l0.2-1.7h1.2v1.7h1.6v1.2h-1.6v3c0,0.8,0.3,1.1,0.9,1.1
		c0.2,0,0.5-0.1,0.7-0.1l0.3,1.1c-0.4,0.1-0.8,0.2-1.3,0.2c-1.5,0-2-0.9-2-2.3V107.3z"/>
	<path id="XMLID_645_" class="st0" d="M90.6,105.9c1.7,0,2.6,1.2,2.6,3c0,0.3,0,0.5-0.1,0.7h-4.1c0.1,1.2,0.9,1.8,1.9,1.8
		c0.5,0,1-0.2,1.5-0.5l0.5,0.9c-0.6,0.4-1.4,0.7-2.2,0.7c-1.8,0-3.1-1.2-3.1-3.3C87.7,107.2,89.1,105.9,90.6,105.9z M91.9,108.7
		c0-1-0.4-1.6-1.3-1.6c-0.8,0-1.4,0.6-1.5,1.6H91.9z"/>
	<path id="XMLID_648_" class="st0" d="M97,105.9c0.7,0,1.2,0.3,1.7,0.7l-0.1-1v-2.3h1.5v9.2h-1.2l-0.1-0.7h-0.1
		c-0.5,0.5-1.1,0.8-1.8,0.8c-1.6,0-2.6-1.2-2.6-3.3C94.3,107.2,95.6,105.9,97,105.9z M97.3,111.4c0.5,0,0.9-0.2,1.3-0.7v-3
		c-0.4-0.4-0.9-0.5-1.3-0.5c-0.8,0-1.5,0.8-1.5,2.1C95.8,110.7,96.3,111.4,97.3,111.4z"/>
	<path id="XMLID_651_" class="st0" d="M104.5,104.1c0-0.5,0.4-0.9,0.9-0.9c0.5,0,0.9,0.4,0.9,0.9c0,0.5-0.4,0.8-0.9,0.8
		C104.9,105,104.5,104.6,104.5,104.1z M104.7,106.1h1.5v6.4h-1.5V106.1z"/>
	<path id="XMLID_654_" class="st0" d="M108.1,106.1h1.2l0.1,0.9h0.1c0.6-0.6,1.2-1,2.1-1c1.4,0,2,0.9,2,2.5v4H112v-3.8
		c0-1.1-0.3-1.4-1-1.4c-0.6,0-0.9,0.3-1.5,0.8v4.5h-1.5V106.1z"/>
	<path id="XMLID_656_" class="st0" d="M118.1,104h5.1v1.3h-3.6v2.4h3.1v1.3h-3.1v3.5h-1.5V104z"/>
	<path id="XMLID_658_" class="st0" d="M126.9,105.9c1.7,0,2.6,1.2,2.6,3c0,0.3,0,0.5-0.1,0.7h-4.1c0.1,1.2,0.9,1.8,1.9,1.8
		c0.5,0,1-0.2,1.5-0.5l0.5,0.9c-0.6,0.4-1.4,0.7-2.2,0.7c-1.8,0-3.1-1.2-3.1-3.3C124,107.2,125.4,105.9,126.9,105.9z M128.2,108.7
		c0-1-0.4-1.6-1.3-1.6c-0.8,0-1.4,0.6-1.5,1.6H128.2z"/>
	<path id="XMLID_661_" class="st0" d="M133.5,105.9c1.7,0,2.6,1.2,2.6,3c0,0.3,0,0.5-0.1,0.7H132c0.1,1.2,0.9,1.8,1.9,1.8
		c0.5,0,1-0.2,1.5-0.5l0.5,0.9c-0.6,0.4-1.4,0.7-2.2,0.7c-1.8,0-3.1-1.2-3.1-3.3C130.6,107.2,132,105.9,133.5,105.9z M134.8,108.7
		c0-1-0.4-1.6-1.3-1.6c-0.8,0-1.4,0.6-1.5,1.6H134.8z"/>
	<path id="XMLID_664_" class="st0" d="M139.9,105.9c0.7,0,1.2,0.3,1.7,0.7l-0.1-1v-2.3h1.5v9.2h-1.2l-0.1-0.7h-0.1
		c-0.5,0.5-1.1,0.8-1.8,0.8c-1.6,0-2.6-1.2-2.6-3.3C137.2,107.2,138.5,105.9,139.9,105.9z M140.2,111.4c0.5,0,0.9-0.2,1.3-0.7v-3
		c-0.4-0.4-0.9-0.5-1.3-0.5c-0.8,0-1.5,0.8-1.5,2.1C138.7,110.7,139.2,111.4,140.2,111.4z"/>
	<path id="XMLID_667_" class="st0" d="M144.9,106.1h1.2l0.1,0.9h0.1c0.6-0.6,1.2-1,2.1-1c1.4,0,2,0.9,2,2.5v4h-1.5v-3.8
		c0-1.1-0.3-1.4-1-1.4c-0.6,0-0.9,0.3-1.5,0.8v4.5h-1.5V106.1z"/>
	<path id="XMLID_669_" class="st0" d="M154.7,105.9c1.7,0,2.6,1.2,2.6,3c0,0.3,0,0.5-0.1,0.7h-4.1c0.1,1.2,0.9,1.8,1.9,1.8
		c0.5,0,1-0.2,1.5-0.5l0.5,0.9c-0.6,0.4-1.4,0.7-2.2,0.7c-1.8,0-3.1-1.2-3.1-3.3C151.8,107.2,153.2,105.9,154.7,105.9z M156,108.7
		c0-1-0.4-1.6-1.3-1.6c-0.8,0-1.4,0.6-1.5,1.6H156z"/>
	<path id="XMLID_672_" class="st0" d="M158.8,107.3h-0.9v-1.1l1-0.1l0.2-1.7h1.2v1.7h1.6v1.2h-1.6v3c0,0.8,0.3,1.1,0.9,1.1
		c0.2,0,0.5-0.1,0.7-0.1l0.3,1.1c-0.4,0.1-0.8,0.2-1.3,0.2c-1.5,0-2-0.9-2-2.3V107.3z"/>
</g>
<g id="XMLID_1603_">
	<line id="XMLID_1605_" class="st1" x1="10.9" y1="93" x2="42.4" y2="93"/>
	<polygon id="XMLID_1604_" class="st0" points="13,96.9 4.2,93 13,89.1 	"/>
</g>
</svg>
