<?xml version="1.0" encoding="utf-8"?>
<!-- Generator: Adobe Illustrator 19.0.0, SVG Export Plug-In . SVG Version: 6.00 Build 0)  -->
<svg version="1.1" id="Layer_1" xmlns="http://www.w3.org/2000/svg" xmlns:xlink="http://www.w3.org/1999/xlink" x="0px" y="0px"
	 viewBox="0 0 200 200" style="enable-background:new 0 0 200 200;" xml:space="preserve">
<style type="text/css">
	.st0{fill:#264E6E;}
	.st1{fill:none;stroke:#264E6E;stroke-width:2;stroke-miterlimit:10;}
</style>
<g id="XMLID_1445_">
	<path id="XMLID_1446_" class="st0" d="M49.3,88.9h1.2l0.1,0.9h0.1c0.6-0.6,1.2-1,2.1-1c1.4,0,2,0.9,2,2.5v4h-1.5v-3.8
		c0-1.1-0.3-1.4-1-1.4c-0.6,0-0.9,0.3-1.5,0.8v4.5h-1.5V88.9z"/>
	<path id="XMLID_1448_" class="st0" d="M56.5,88.9H58v3.8c0,1.1,0.3,1.4,1,1.4c0.6,0,0.9-0.3,1.4-0.9v-4.4h1.5v6.4h-1.2l-0.1-0.9h0
		c-0.6,0.7-1.2,1.1-2.1,1.1c-1.4,0-2-0.9-2-2.5V88.9z"/>
	<path id="XMLID_1450_" class="st0" d="M63.8,88.9H65l0.1,0.9h0.1c0.5-0.6,1.2-1,1.9-1c0.9,0,1.5,0.4,1.8,1.1
		c0.6-0.7,1.2-1.1,2.1-1.1c1.4,0,2,0.9,2,2.5v4h-1.5v-3.8c0-1.1-0.3-1.4-1-1.4c-0.4,0-0.8,0.3-1.3,0.8v4.5h-1.5v-3.8
		c0-1.1-0.3-1.4-1-1.4c-0.4,0-0.8,0.3-1.3,0.8v4.5h-1.5V88.9z"/>
	<path id="XMLID_1452_" class="st0" d="M74.7,86.2h1.5v2.4l0,1.1c0.5-0.5,1.2-0.8,1.8-0.8c1.6,0,2.5,1.3,2.5,3.2
		c0,2.2-1.3,3.5-2.7,3.5c-0.6,0-1.2-0.3-1.7-0.8h0l-0.1,0.6h-1.2V86.2z M77.5,94.3c0.8,0,1.5-0.8,1.5-2.2c0-1.3-0.4-2-1.4-2
		c-0.5,0-0.9,0.2-1.4,0.7v3C76.7,94.1,77.2,94.3,77.5,94.3z"/>
	<path id="XMLID_1455_" class="st0" d="M84.6,88.8c1.7,0,2.6,1.2,2.6,3c0,0.3,0,0.5-0.1,0.7h-4.1c0.1,1.2,0.9,1.8,1.9,1.8
		c0.5,0,1-0.2,1.5-0.5l0.5,0.9c-0.6,0.4-1.4,0.7-2.2,0.7c-1.8,0-3.1-1.2-3.1-3.3C81.7,90.1,83.1,88.8,84.6,88.8z M85.9,91.6
		c0-1-0.4-1.6-1.3-1.6c-0.8,0-1.4,0.6-1.5,1.6H85.9z"/>
	<path id="XMLID_1458_" class="st0" d="M88.7,88.9h1.2l0.1,1.1h0.1c0.5-0.8,1.1-1.3,1.8-1.3c0.3,0,0.5,0,0.7,0.1l-0.3,1.3
		c-0.2-0.1-0.4-0.1-0.7-0.1c-0.5,0-1.1,0.4-1.5,1.3v3.9h-1.5V88.9z"/>
	<path id="XMLID_1460_" class="st0" d="M98.8,88.8c1.6,0,3,1.2,3,3.4c0,2.1-1.4,3.3-3,3.3c-1.6,0-3-1.2-3-3.3
		C95.8,90,97.2,88.8,98.8,88.8z M98.8,94.3c0.9,0,1.5-0.8,1.5-2.1c0-1.3-0.6-2.1-1.5-2.1s-1.5,0.8-1.5,2.1
		C97.3,93.4,97.9,94.3,98.8,94.3z"/>
	<path id="XMLID_1463_" class="st0" d="M106.5,87.3c-0.2-0.1-0.5-0.2-0.7-0.2c-0.5,0-0.8,0.3-0.8,1.1v0.7h1.2v1.2H105v5.2h-1.5v-5.2
		h-0.9V89l0.9-0.1v-0.7c0-1.3,0.6-2.3,2.1-2.3c0.5,0,0.9,0.1,1.2,0.2L106.5,87.3z"/>
	<path id="XMLID_1465_" class="st0" d="M110.3,90.1h-0.9V89l1-0.1l0.2-1.7h1.2v1.7h1.6v1.2h-1.6v3c0,0.8,0.3,1.1,0.9,1.1
		c0.2,0,0.5-0.1,0.7-0.1l0.3,1.1c-0.4,0.1-0.8,0.2-1.3,0.2c-1.5,0-2-0.9-2-2.3V90.1z"/>
	<path id="XMLID_1467_" class="st0" d="M114.7,88.9h1.2l0.1,1.1h0.1c0.5-0.8,1.1-1.3,1.8-1.3c0.3,0,0.5,0,0.7,0.1l-0.3,1.3
		c-0.2-0.1-0.4-0.1-0.7-0.1c-0.5,0-1.1,0.4-1.5,1.3v3.9h-1.5V88.9z"/>
	<path id="XMLID_1469_" class="st0" d="M122.7,91.3c0-0.7-0.3-1.2-1.2-1.2c-0.6,0-1.2,0.3-1.8,0.6l-0.5-1c0.7-0.4,1.6-0.8,2.6-0.8
		c1.6,0,2.4,1,2.4,2.8v3.8H123l-0.1-0.7h0c-0.6,0.5-1.2,0.9-2,0.9c-1.1,0-1.9-0.8-1.9-1.9C119,92.3,120.1,91.5,122.7,91.3z
		 M121.3,94.3c0.5,0,0.9-0.3,1.4-0.7v-1.4c-1.7,0.2-2.3,0.7-2.3,1.3C120.4,94.1,120.8,94.3,121.3,94.3z"/>
	<path id="XMLID_1472_" class="st0" d="M125.9,87c0-0.5,0.4-0.9,0.9-0.9c0.5,0,0.9,0.4,0.9,0.9c0,0.5-0.4,0.8-0.9,0.8
		C126.3,87.8,125.9,87.5,125.9,87z M126,88.9h1.5v6.4H126V88.9z"/>
	<path id="XMLID_1475_" class="st0" d="M129.5,88.9h1.2l0.1,0.9h0.1c0.6-0.6,1.2-1,2.1-1c1.4,0,2,0.9,2,2.5v4h-1.5v-3.8
		c0-1.1-0.3-1.4-1-1.4c-0.6,0-0.9,0.3-1.5,0.8v4.5h-1.5V88.9z"/>
	<path id="XMLID_1477_" class="st0" d="M136.6,87c0-0.5,0.4-0.9,0.9-0.9s0.9,0.4,0.9,0.9c0,0.5-0.4,0.8-0.9,0.8S136.6,87.5,136.6,87
		z M136.7,88.9h1.5v6.4h-1.5V88.9z"/>
	<path id="XMLID_1480_" class="st0" d="M140.1,88.9h1.2l0.1,0.9h0.1c0.6-0.6,1.2-1,2.1-1c1.4,0,2,0.9,2,2.5v4h-1.5v-3.8
		c0-1.1-0.3-1.4-1-1.4c-0.6,0-0.9,0.3-1.5,0.8v4.5h-1.5V88.9z"/>
	<path id="XMLID_1482_" class="st0" d="M147.9,95.1L147.9,95.1c-0.3-0.3-0.6-0.6-0.6-1.1c0-0.5,0.3-0.9,0.7-1.2v-0.1
		c-0.4-0.3-0.8-0.9-0.8-1.7c0-1.5,1.2-2.3,2.5-2.3c0.4,0,0.7,0.1,0.9,0.2h2.3v1.1h-1.2c0.2,0.2,0.4,0.6,0.4,1.1
		c0,1.4-1.1,2.2-2.4,2.2c-0.3,0-0.6-0.1-0.9-0.2c-0.2,0.2-0.3,0.3-0.3,0.6c0,0.4,0.3,0.6,1,0.6h1.1c1.5,0,2.3,0.5,2.3,1.6
		c0,1.3-1.3,2.2-3.4,2.2c-1.5,0-2.7-0.5-2.7-1.7C147,96,147.3,95.5,147.9,95.1z M149.9,97.2c1,0,1.7-0.5,1.7-1
		c0-0.5-0.4-0.6-1.1-0.6h-0.9c-0.4,0-0.6,0-0.9-0.1c-0.3,0.3-0.5,0.5-0.5,0.8C148.2,96.8,148.9,97.2,149.9,97.2z M150.8,91.1
		c0-0.8-0.5-1.3-1.1-1.3s-1.1,0.5-1.1,1.3c0,0.8,0.5,1.3,1.1,1.3C150.3,92.4,150.8,91.9,150.8,91.1z"/>
	<path id="XMLID_1486_" class="st0" d="M156.7,87c0-0.5,0.4-0.9,0.9-0.9s0.9,0.4,0.9,0.9c0,0.5-0.4,0.8-0.9,0.8S156.7,87.5,156.7,87
		z M156.8,88.9h1.5v6.4h-1.5V88.9z"/>
	<path id="XMLID_1489_" class="st0" d="M160.2,88.9h1.2l0.1,0.9h0.1c0.5-0.6,1.2-1,1.9-1c0.9,0,1.5,0.4,1.8,1.1
		c0.6-0.7,1.2-1.1,2.1-1.1c1.4,0,2,0.9,2,2.5v4h-1.5v-3.8c0-1.1-0.3-1.4-1-1.4c-0.4,0-0.8,0.3-1.3,0.8v4.5h-1.5v-3.8
		c0-1.1-0.3-1.4-1-1.4c-0.4,0-0.8,0.3-1.3,0.8v4.5h-1.5V88.9z"/>
	<path id="XMLID_1491_" class="st0" d="M174.7,91.3c0-0.7-0.3-1.2-1.2-1.2c-0.6,0-1.2,0.3-1.8,0.6l-0.5-1c0.7-0.4,1.6-0.8,2.6-0.8
		c1.6,0,2.4,1,2.4,2.8v3.8H175l-0.1-0.7h0c-0.6,0.5-1.2,0.9-2,0.9c-1.1,0-1.9-0.8-1.9-1.9C170.9,92.3,172.1,91.5,174.7,91.3z
		 M173.3,94.3c0.5,0,0.9-0.3,1.4-0.7v-1.4c-1.7,0.2-2.3,0.7-2.3,1.3C172.4,94.1,172.8,94.3,173.3,94.3z"/>
	<path id="XMLID_1494_" class="st0" d="M178.5,95.1L178.5,95.1c-0.3-0.3-0.6-0.6-0.6-1.1c0-0.5,0.3-0.9,0.7-1.2v-0.1
		c-0.4-0.3-0.8-0.9-0.8-1.7c0-1.5,1.2-2.3,2.5-2.3c0.4,0,0.7,0.1,0.9,0.2h2.3v1.1h-1.2c0.2,0.2,0.4,0.6,0.4,1.1
		c0,1.4-1.1,2.2-2.4,2.2c-0.3,0-0.6-0.1-0.9-0.2c-0.2,0.2-0.3,0.3-0.3,0.6c0,0.4,0.3,0.6,1,0.6h1.1c1.5,0,2.3,0.5,2.3,1.6
		c0,1.3-1.3,2.2-3.4,2.2c-1.5,0-2.7-0.5-2.7-1.7C177.6,96,177.9,95.5,178.5,95.1z M180.5,97.2c1,0,1.7-0.5,1.7-1
		c0-0.5-0.4-0.6-1.1-0.6h-0.9c-0.4,0-0.6,0-0.9-0.1c-0.3,0.3-0.5,0.5-0.5,0.8C178.8,96.8,179.4,97.2,180.5,97.2z M181.4,91.1
		c0-0.8-0.5-1.3-1.1-1.3s-1.1,0.5-1.1,1.3c0,0.8,0.5,1.3,1.1,1.3C180.9,92.4,181.4,91.9,181.4,91.1z"/>
	<path id="XMLID_1498_" class="st0" d="M187.1,88.8c1.7,0,2.6,1.2,2.6,3c0,0.3,0,0.5-0.1,0.7h-4.1c0.1,1.2,0.9,1.8,1.9,1.8
		c0.5,0,1-0.2,1.5-0.5l0.5,0.9c-0.6,0.4-1.4,0.7-2.2,0.7c-1.8,0-3.1-1.2-3.1-3.3C184.1,90.1,185.6,88.8,187.1,88.8z M188.4,91.6
		c0-1-0.4-1.6-1.3-1.6c-0.8,0-1.4,0.6-1.5,1.6H188.4z"/>
	<path id="XMLID_1501_" class="st0" d="M191.2,93.6c0.6,0.4,1.1,0.7,1.8,0.7c0.7,0,1-0.3,1-0.8c0-0.5-0.7-0.8-1.4-1
		c-0.8-0.3-1.8-0.8-1.8-1.9c0-1.1,0.9-1.9,2.3-1.9c0.9,0,1.6,0.4,2.1,0.8l-0.7,0.9c-0.4-0.3-0.9-0.5-1.4-0.5c-0.6,0-0.9,0.3-0.9,0.7
		c0,0.5,0.6,0.7,1.3,0.9c0.9,0.3,1.8,0.7,1.8,1.9c0,1.1-0.9,2-2.5,2c-0.9,0-1.8-0.4-2.4-0.9L191.2,93.6z"/>
	<path id="XMLID_1503_" class="st0" d="M48.6,104.5h1.5l0.8,3.3c0.1,0.6,0.2,1.2,0.3,1.8h0.1c0.1-0.6,0.2-1.2,0.4-1.8l0.8-3.3h1.4
		l0.8,3.3c0.2,0.6,0.3,1.2,0.4,1.8h0.1c0.1-0.6,0.2-1.2,0.3-1.8l0.8-3.3h1.4l-1.6,6.4h-1.8l-0.7-3c-0.1-0.6-0.2-1.2-0.4-1.9h-0.1
		c-0.1,0.7-0.2,1.3-0.4,1.9l-0.7,3h-1.7L48.6,104.5z"/>
	<path id="XMLID_1505_" class="st0" d="M58.8,102.6c0-0.5,0.4-0.9,0.9-0.9c0.5,0,0.9,0.4,0.9,0.9c0,0.5-0.4,0.8-0.9,0.8
		C59.2,103.4,58.8,103.1,58.8,102.6z M59,104.5h1.5v6.4H59V104.5z"/>
	<path id="XMLID_1508_" class="st0" d="M62.6,105.7h-0.9v-1.1l1-0.1l0.2-1.7h1.2v1.7h1.6v1.2h-1.6v3c0,0.8,0.3,1.1,0.9,1.1
		c0.2,0,0.5-0.1,0.7-0.1l0.3,1.1c-0.4,0.1-0.8,0.2-1.3,0.2c-1.5,0-2-0.9-2-2.3V105.7z"/>
	<path id="XMLID_1510_" class="st0" d="M67.1,101.8h1.5v2.4l-0.1,1.2c0.5-0.5,1.2-1,2-1c1.4,0,2,0.9,2,2.5v4h-1.5v-3.8
		c0-1.1-0.3-1.4-1-1.4c-0.6,0-0.9,0.3-1.5,0.8v4.5h-1.5V101.8z"/>
	<path id="XMLID_1512_" class="st0" d="M74.2,102.6c0-0.5,0.4-0.9,0.9-0.9s0.9,0.4,0.9,0.9c0,0.5-0.4,0.8-0.9,0.8
		S74.2,103.1,74.2,102.6z M74.4,104.5h1.5v6.4h-1.5V104.5z"/>
	<path id="XMLID_1515_" class="st0" d="M77.8,104.5H79l0.1,0.9h0.1c0.6-0.6,1.2-1,2.1-1c1.4,0,2,0.9,2,2.5v4h-1.5v-3.8
		c0-1.1-0.3-1.4-1-1.4c-0.6,0-0.9,0.3-1.5,0.8v4.5h-1.5V104.5z"/>
	<path id="XMLID_1517_" class="st0" d="M90.2,104.4c1.7,0,2.6,1.2,2.6,3c0,0.3,0,0.5-0.1,0.7h-4.1c0.1,1.2,0.9,1.8,1.9,1.8
		c0.5,0,1-0.2,1.5-0.5l0.5,0.9c-0.6,0.4-1.4,0.7-2.2,0.7c-1.8,0-3.1-1.2-3.1-3.3C87.3,105.7,88.7,104.4,90.2,104.4z M91.6,107.2
		c0-1-0.4-1.6-1.3-1.6c-0.8,0-1.4,0.6-1.5,1.6H91.6z"/>
	<path id="XMLID_1520_" class="st0" d="M95.8,111.5v2h-1.5v-8.9h1.2l0.1,0.7h0.1c0.5-0.5,1.2-0.8,1.9-0.8c1.6,0,2.5,1.3,2.5,3.2
		c0,2.2-1.3,3.4-2.7,3.4c-0.6,0-1.1-0.3-1.6-0.7L95.8,111.5z M97.1,109.9c0.8,0,1.5-0.8,1.5-2.2c0-1.3-0.4-2-1.4-2
		c-0.5,0-0.9,0.2-1.4,0.7v3C96.3,109.7,96.7,109.9,97.1,109.9z"/>
	<path id="XMLID_1523_" class="st0" d="M104.2,104.4c1.6,0,3,1.2,3,3.4c0,2.1-1.4,3.3-3,3.3c-1.6,0-3-1.2-3-3.3
		C101.2,105.6,102.7,104.4,104.2,104.4z M104.2,109.9c0.9,0,1.5-0.8,1.5-2.1c0-1.3-0.6-2.1-1.5-2.1s-1.5,0.8-1.5,2.1
		C102.8,109,103.3,109.9,104.2,109.9z"/>
	<path id="XMLID_1526_" class="st0" d="M111.6,104.4c0.8,0,1.4,0.3,1.9,0.7l-0.7,0.9c-0.3-0.3-0.7-0.5-1.1-0.5c-1,0-1.7,0.8-1.7,2.1
		c0,1.3,0.7,2.1,1.7,2.1c0.5,0,1-0.3,1.3-0.5l0.6,0.9c-0.6,0.5-1.4,0.8-2.1,0.8c-1.7,0-3.1-1.2-3.1-3.3
		C108.4,105.6,109.8,104.4,111.6,104.4z"/>
	<path id="XMLID_1528_" class="st0" d="M114.8,101.8h1.5v2.4l-0.1,1.2c0.5-0.5,1.2-1,2-1c1.4,0,2,0.9,2,2.5v4h-1.5v-3.8
		c0-1.1-0.3-1.4-1-1.4c-0.6,0-0.9,0.3-1.5,0.8v4.5h-1.5V101.8z"/>
</g>
<g id="XMLID_1603_">
	<line id="XMLID_1605_" class="st1" x1="13.1" y1="98" x2="44.5" y2="98"/>
	<polygon id="XMLID_1604_" class="st0" points="15.1,101.9 6.4,98 15.1,94.1 	"/>
</g>
</svg>
