<?xml version="1.0" encoding="utf-8"?>
<!-- Generator: Adobe Illustrator 19.0.0, SVG Export Plug-In . SVG Version: 6.00 Build 0)  -->
<svg version="1.1" id="Layer_1" xmlns="http://www.w3.org/2000/svg" xmlns:xlink="http://www.w3.org/1999/xlink" x="0px" y="0px"
	 viewBox="-4 6 200 200" style="enable-background:new -4 6 200 200;" xml:space="preserve">
<style type="text/css">
	.st0{fill:#264E6E;}
	.st1{fill:#F9F9F9;}
	.st2{fill:#595A5C;}
</style>
<g id="XMLID_1056_">
	<path id="XMLID_1057_" class="st0" d="M69.9,103.2c0.7,0,1.2,0.3,1.7,0.7l-0.1-1v-2.3H73v9.2h-1.2l-0.1-0.7l0,0
		c-0.5,0.5-1.1,0.8-1.8,0.8c-1.6,0-2.6-1.2-2.6-3.3C67.2,104.5,68.6,103.2,69.9,103.2z M70.2,108.7c0.5,0,0.9-0.2,1.3-0.7v-3
		c-0.4-0.4-0.9-0.5-1.3-0.5c-0.8,0-1.5,0.8-1.5,2.1C68.8,107.9,69.3,108.7,70.2,108.7z"/>
	<path id="XMLID_1060_" class="st0" d="M77.5,103.2c1.7,0,2.6,1.2,2.6,3c0,0.3,0,0.5-0.1,0.7h-4.1c0.1,1.2,0.9,1.8,1.9,1.8
		c0.5,0,1-0.2,1.5-0.5l0.5,0.9c-0.6,0.4-1.4,0.7-2.2,0.7c-1.8,0-3.1-1.2-3.1-3.3C74.6,104.5,76,103.2,77.5,103.2z M78.8,106
		c0-1-0.4-1.6-1.3-1.6c-0.8,0-1.4,0.6-1.5,1.6H78.8z"/>
	<path id="XMLID_1063_" class="st0" d="M81.6,100.6h1.5v7.6c0,0.4,0.2,0.5,0.3,0.5c0.1,0,0.1,0,0.2,0l0.2,1.1
		c-0.2,0.1-0.4,0.1-0.8,0.1c-1.1,0-1.5-0.7-1.5-1.8v-7.5H81.6z"/>
	<path id="XMLID_1065_" class="st0" d="M87.6,103.2c1.7,0,2.6,1.2,2.6,3c0,0.3,0,0.5-0.1,0.7H86c0.1,1.2,0.9,1.8,1.9,1.8
		c0.5,0,1-0.2,1.5-0.5l0.5,0.9c-0.6,0.4-1.4,0.7-2.2,0.7c-1.8,0-3.1-1.2-3.1-3.3C84.7,104.5,86.1,103.2,87.6,103.2z M88.9,106
		c0-1-0.4-1.6-1.3-1.6c-0.8,0-1.4,0.6-1.5,1.6H88.9z"/>
	<path id="XMLID_1068_" class="st0" d="M91.7,104.6h-0.9v-1.1l1-0.1l0.2-1.7h1.2v1.7h1.6v1.2h-1.6v3c0,0.8,0.3,1.1,0.9,1.1
		c0.2,0,0.5-0.1,0.7-0.1l0.3,1.1c-0.4,0.1-0.8,0.2-1.3,0.2c-1.5,0-2-0.9-2-2.3L91.7,104.6L91.7,104.6z"/>
	<path id="XMLID_1070_" class="st0" d="M98.5,103.2c1.7,0,2.6,1.2,2.6,3c0,0.3,0,0.5-0.1,0.7h-4.1c0.1,1.2,0.9,1.8,1.9,1.8
		c0.5,0,1-0.2,1.5-0.5l0.5,0.9c-0.6,0.4-1.4,0.7-2.2,0.7c-1.8,0-3.1-1.2-3.1-3.3C95.6,104.5,97.1,103.2,98.5,103.2z M99.9,106
		c0-1-0.4-1.6-1.3-1.6c-0.8,0-1.4,0.6-1.5,1.6H99.9z"/>
	<path id="XMLID_1073_" class="st0" d="M105.3,100.6h1.5v7.6c0,0.4,0.2,0.5,0.3,0.5c0.1,0,0.1,0,0.2,0l0.2,1.1
		c-0.2,0.1-0.4,0.1-0.8,0.1c-1.1,0-1.5-0.7-1.5-1.8v-7.5H105.3z"/>
	<path id="XMLID_1075_" class="st0" d="M112.3,105.7c0-0.7-0.3-1.2-1.2-1.2c-0.6,0-1.2,0.3-1.8,0.6l-0.5-1c0.7-0.4,1.6-0.8,2.6-0.8
		c1.6,0,2.4,1,2.4,2.8v3.8h-1.2l-0.1-0.7l0,0c-0.6,0.5-1.2,0.9-2,0.9c-1.1,0-1.9-0.8-1.9-1.9C108.5,106.7,109.7,106,112.3,105.7z
		 M110.9,108.8c0.5,0,0.9-0.3,1.4-0.7v-1.5c-1.7,0.2-2.3,0.7-2.3,1.3C110,108.5,110.4,108.8,110.9,108.8z"/>
	<path id="XMLID_1078_" class="st0" d="M115.9,111.2c0.7,0,1.1-0.5,1.3-1.1l0.1-0.4l-2.5-6.3h1.5l1.1,3.1c0.2,0.6,0.4,1.2,0.6,1.8
		h0.1c0.2-0.6,0.3-1.2,0.5-1.8l1-3.1h1.4l-2.3,6.7c-0.5,1.4-1.2,2.3-2.6,2.3c-0.4,0-0.6-0.1-0.8-0.1l0.3-1.2
		C115.6,111.1,115.8,111.2,115.9,111.2z"/>
	<path id="XMLID_1080_" class="st0" d="M124.5,103.2c1.7,0,2.6,1.2,2.6,3c0,0.3,0,0.5-0.1,0.7h-4.1c0.1,1.2,0.9,1.8,1.9,1.8
		c0.5,0,1-0.2,1.5-0.5l0.5,0.9c-0.6,0.4-1.4,0.7-2.2,0.7c-1.8,0-3.1-1.2-3.1-3.3C121.5,104.5,123,103.2,124.5,103.2z M125.8,106
		c0-1-0.4-1.6-1.3-1.6c-0.8,0-1.4,0.6-1.5,1.6H125.8z"/>
	<path id="XMLID_1083_" class="st0" d="M128.6,103.4h1.2l0.1,1.1h0.1c0.5-0.8,1.1-1.3,1.8-1.3c0.3,0,0.5,0,0.7,0.1l-0.3,1.3
		c-0.2-0.1-0.4-0.1-0.7-0.1c-0.5,0-1.1,0.4-1.5,1.3v3.9h-1.5L128.6,103.4L128.6,103.4z"/>
</g>
<ellipse id="XMLID_1_" class="st1" cx="9.2" cy="105.2" rx="8.4" ry="8.4"/>
<polygon id="XMLID_2_" class="st2" points="7.3,107.9 6.5,107 11,102.6 11.9,103.4 "/>
<polygon id="XMLID_3_" class="st2" points="11,107.9 6.5,103.4 7.3,102.5 11.8,107 "/>
</svg>
