<?xml version="1.0" encoding="utf-8"?>
<!-- Generator: Adobe Illustrator 19.0.0, SVG Export Plug-In . SVG Version: 6.00 Build 0)  -->
<svg version="1.1" id="Layer_1" xmlns="http://www.w3.org/2000/svg" xmlns:xlink="http://www.w3.org/1999/xlink" x="0px" y="0px"
	 viewBox="0 0 200 200" style="enable-background:new 0 0 200 200;" xml:space="preserve">
<style type="text/css">
	.st0{fill:#264E6E;}
	.st1{fill:none;stroke:#264E6E;stroke-width:2;stroke-miterlimit:10;}
</style>
<g id="XMLID_1_">
	<path id="XMLID_2_" class="st0" d="M56.4,79.9h-2.5v-1.3h6.4v1.3h-2.4v7.2h-1.5V79.9z"/>
	<path id="XMLID_4_" class="st0" d="M61,80.7h1.5v3.8c0,1.1,0.3,1.4,1,1.4c0.6,0,0.9-0.3,1.4-0.9v-4.4h1.5v6.4h-1.2L65,86.2h0
		c-0.6,0.7-1.2,1.1-2.1,1.1c-1.4,0-2-0.9-2-2.5V80.7z"/>
	<path id="XMLID_6_" class="st0" d="M68.3,80.7h1.2l0.1,1.1h0.1c0.5-0.8,1.1-1.3,1.8-1.3c0.3,0,0.5,0,0.7,0.1L71.9,82
		c-0.2-0.1-0.4-0.1-0.7-0.1c-0.5,0-1.1,0.4-1.5,1.3v3.9h-1.5V80.7z"/>
	<path id="XMLID_8_" class="st0" d="M73.1,80.7h1.2l0.1,0.9h0.1c0.6-0.6,1.2-1,2.1-1c1.4,0,2,0.9,2,2.5v4h-1.5v-3.8
		c0-1.1-0.3-1.4-1-1.4c-0.6,0-0.9,0.3-1.5,0.8v4.5h-1.5V80.7z"/>
	<path id="XMLID_10_" class="st0" d="M83.3,81.9h-0.9v-1.1l1-0.1l0.2-1.7h1.2v1.7h1.6v1.2h-1.6v3c0,0.8,0.3,1.1,0.9,1.1
		c0.2,0,0.5-0.1,0.7-0.1l0.3,1.1c-0.4,0.1-0.8,0.2-1.3,0.2c-1.5,0-2-0.9-2-2.3V81.9z"/>
	<path id="XMLID_12_" class="st0" d="M87.7,77.9h1.5v2.4l-0.1,1.2c0.5-0.5,1.2-1,2-1c1.4,0,2,0.9,2,2.5v4h-1.5v-3.8
		c0-1.1-0.3-1.4-1-1.4c-0.6,0-0.9,0.3-1.5,0.8v4.5h-1.5V77.9z"/>
	<path id="XMLID_14_" class="st0" d="M94.8,78.7c0-0.5,0.4-0.9,0.9-0.9s0.9,0.4,0.9,0.9c0,0.5-0.4,0.8-0.9,0.8S94.8,79.2,94.8,78.7z
		 M95,80.7h1.5v6.4H95V80.7z"/>
	<path id="XMLID_21_" class="st0" d="M98.5,85.4c0.6,0.4,1.1,0.7,1.8,0.7c0.7,0,1-0.3,1-0.8c0-0.5-0.7-0.8-1.4-1
		c-0.8-0.3-1.8-0.8-1.8-1.9c0-1.1,0.9-1.9,2.3-1.9c0.9,0,1.6,0.4,2.1,0.8l-0.7,0.9c-0.4-0.3-0.9-0.5-1.4-0.5c-0.6,0-0.9,0.3-0.9,0.7
		c0,0.5,0.6,0.7,1.3,0.9c0.9,0.3,1.8,0.7,1.8,1.9c0,1.1-0.9,2-2.5,2c-0.9,0-1.8-0.4-2.4-0.9L98.5,85.4z"/>
	<path id="XMLID_23_" class="st0" d="M109.3,80.6c1.6,0,3,1.2,3,3.4c0,2.1-1.4,3.3-3,3.3c-1.6,0-3-1.2-3-3.3
		C106.3,81.8,107.7,80.6,109.3,80.6z M109.3,86c0.9,0,1.5-0.8,1.5-2.1c0-1.3-0.6-2.1-1.5-2.1c-0.9,0-1.5,0.8-1.5,2.1
		C107.8,85.2,108.4,86,109.3,86z"/>
	<path id="XMLID_26_" class="st0" d="M115.3,87.6v2h-1.5v-8.9h1.2l0.1,0.7h0.1c0.5-0.5,1.2-0.8,1.9-0.8c1.6,0,2.5,1.3,2.5,3.2
		c0,2.2-1.3,3.4-2.7,3.4c-0.6,0-1.1-0.3-1.6-0.7L115.3,87.6z M116.6,86c0.8,0,1.5-0.8,1.5-2.2c0-1.3-0.4-2-1.4-2
		c-0.5,0-0.9,0.2-1.4,0.7v3C115.8,85.9,116.2,86,116.6,86z"/>
	<path id="XMLID_29_" class="st0" d="M121.4,81.9h-0.9v-1.1l1-0.1l0.2-1.7h1.2v1.7h1.6v1.2h-1.6v3c0,0.8,0.3,1.1,0.9,1.1
		c0.2,0,0.5-0.1,0.7-0.1l0.3,1.1c-0.4,0.1-0.8,0.2-1.3,0.2c-1.5,0-2-0.9-2-2.3V81.9z"/>
	<path id="XMLID_31_" class="st0" d="M125.7,78.7c0-0.5,0.4-0.9,0.9-0.9c0.5,0,0.9,0.4,0.9,0.9c0,0.5-0.4,0.8-0.9,0.8
		C126.1,79.6,125.7,79.2,125.7,78.7z M125.8,80.7h1.5v6.4h-1.5V80.7z"/>
	<path id="XMLID_34_" class="st0" d="M131.9,80.6c1.6,0,3,1.2,3,3.4c0,2.1-1.4,3.3-3,3.3c-1.6,0-3-1.2-3-3.3
		C128.8,81.8,130.3,80.6,131.9,80.6z M131.9,86c0.9,0,1.5-0.8,1.5-2.1c0-1.3-0.6-2.1-1.5-2.1c-0.9,0-1.5,0.8-1.5,2.1
		C130.4,85.2,130.9,86,131.9,86z"/>
	<path id="XMLID_37_" class="st0" d="M136.4,80.7h1.2l0.1,0.9h0.1c0.6-0.6,1.2-1,2.1-1c1.4,0,2,0.9,2,2.5v4h-1.5v-3.8
		c0-1.1-0.3-1.4-1-1.4c-0.6,0-0.9,0.3-1.5,0.8v4.5h-1.5V80.7z"/>
	<path id="XMLID_39_" class="st0" d="M148.9,80.6c1.6,0,3,1.2,3,3.4c0,2.1-1.4,3.3-3,3.3c-1.6,0-3-1.2-3-3.3
		C145.9,81.8,147.4,80.6,148.9,80.6z M148.9,86c0.9,0,1.5-0.8,1.5-2.1c0-1.3-0.6-2.1-1.5-2.1c-0.9,0-1.5,0.8-1.5,2.1
		C147.4,85.2,148,86,148.9,86z"/>
	<path id="XMLID_42_" class="st0" d="M153.5,80.7h1.2l0.1,0.9h0.1c0.6-0.6,1.2-1,2.1-1c1.4,0,2,0.9,2,2.5v4h-1.5v-3.8
		c0-1.1-0.3-1.4-1-1.4c-0.6,0-0.9,0.3-1.5,0.8v4.5h-1.5V80.7z"/>
	<path id="XMLID_44_" class="st0" d="M58,98.6c0-0.7-0.3-1.2-1.2-1.2c-0.6,0-1.2,0.3-1.8,0.6l-0.5-1c0.7-0.4,1.6-0.8,2.6-0.8
		c1.6,0,2.4,1,2.4,2.8v3.8h-1.2l-0.1-0.7h0c-0.6,0.5-1.2,0.9-2,0.9c-1.1,0-1.9-0.8-1.9-1.9C54.3,99.6,55.4,98.9,58,98.6z
		 M56.6,101.7c0.5,0,0.9-0.3,1.4-0.7v-1.4c-1.7,0.2-2.3,0.7-2.3,1.3C55.7,101.4,56.1,101.7,56.6,101.7z"/>
	<path id="XMLID_47_" class="st0" d="M61.3,96.3h1.2l0.1,0.9h0.1c0.6-0.6,1.2-1,2.1-1c1.4,0,2,0.9,2,2.5v4h-1.5v-3.8
		c0-1.1-0.3-1.4-1-1.4c-0.6,0-0.9,0.3-1.5,0.8v4.5h-1.5V96.3z"/>
	<path id="XMLID_49_" class="st0" d="M70.9,96.2c0.7,0,1.2,0.3,1.7,0.7l-0.1-1v-2.3h1.5v9.2h-1.2l-0.1-0.7h-0.1
		c-0.5,0.5-1.1,0.8-1.8,0.8c-1.6,0-2.6-1.2-2.6-3.3C68.2,97.4,69.5,96.2,70.9,96.2z M71.2,101.6c0.5,0,0.9-0.2,1.3-0.7v-3
		c-0.4-0.4-0.9-0.5-1.3-0.5c-0.8,0-1.5,0.8-1.5,2.1C69.8,100.9,70.3,101.6,71.2,101.6z"/>
	<path id="XMLID_52_" class="st0" d="M78.7,101c0.6,0.4,1.1,0.7,1.8,0.7c0.7,0,1-0.3,1-0.8c0-0.5-0.7-0.8-1.4-1
		c-0.8-0.3-1.8-0.8-1.8-1.9c0-1.1,0.9-1.9,2.3-1.9c0.9,0,1.6,0.4,2.1,0.8l-0.7,0.9c-0.4-0.3-0.9-0.5-1.4-0.5c-0.6,0-0.9,0.3-0.9,0.7
		c0,0.5,0.6,0.7,1.3,0.9c0.9,0.3,1.8,0.7,1.8,1.9c0,1.1-0.9,2-2.5,2c-0.9,0-1.8-0.4-2.4-0.9L78.7,101z"/>
	<path id="XMLID_54_" class="st0" d="M84.2,93.5h1.5v2.4l-0.1,1.2c0.5-0.5,1.2-1,2-1c1.4,0,2,0.9,2,2.5v4h-1.5v-3.8
		c0-1.1-0.3-1.4-1-1.4c-0.6,0-0.9,0.3-1.5,0.8v4.5h-1.5V93.5z"/>
	<path id="XMLID_56_" class="st0" d="M91.3,94.3c0-0.5,0.4-0.9,0.9-0.9c0.5,0,0.9,0.4,0.9,0.9c0,0.5-0.4,0.8-0.9,0.8
		C91.7,95.2,91.3,94.8,91.3,94.3z M91.5,96.3H93v6.4h-1.5V96.3z"/>
	<path id="XMLID_59_" class="st0" d="M102.1,102.6c-0.4,0.1-0.8,0.2-1.3,0.2c-1.5,0-2-0.9-2-2.3v-3h-2.1v5.2h-1.5v-5.2h-0.9v-1.1
		l0.9-0.1v-0.7c0-1.3,0.6-2.3,2.1-2.3c0.5,0,0.9,0.1,1.2,0.2l-0.3,1.1c-0.2-0.1-0.5-0.2-0.7-0.2c-0.5,0-0.8,0.3-0.8,1.1v0.7h2.2
		l0.2-1.7h1.2v1.7h1.6v1.2h-1.6v3c0,0.8,0.3,1.1,0.9,1.1c0.2,0,0.5-0.1,0.7-0.1L102.1,102.6z"/>
	<path id="XMLID_61_" class="st0" d="M105.6,96.2c1.7,0,2.6,1.2,2.6,3c0,0.3,0,0.5-0.1,0.7h-4.1c0.1,1.2,0.9,1.8,1.9,1.8
		c0.5,0,1-0.2,1.5-0.5l0.5,0.9c-0.6,0.4-1.4,0.7-2.2,0.7c-1.8,0-3.1-1.2-3.1-3.3C102.7,97.4,104.1,96.2,105.6,96.2z M107,98.9
		c0-1-0.4-1.6-1.3-1.6c-0.8,0-1.4,0.6-1.5,1.6H107z"/>
	<path id="XMLID_64_" class="st0" d="M112,96.2c0.7,0,1.2,0.3,1.7,0.7l-0.1-1v-2.3h1.5v9.2h-1.2l-0.1-0.7h-0.1
		c-0.5,0.5-1.1,0.8-1.8,0.8c-1.6,0-2.6-1.2-2.6-3.3C109.3,97.4,110.6,96.2,112,96.2z M112.3,101.6c0.5,0,0.9-0.2,1.3-0.7v-3
		c-0.4-0.4-0.9-0.5-1.3-0.5c-0.8,0-1.5,0.8-1.5,2.1C110.8,100.9,111.4,101.6,112.3,101.6z"/>
	<path id="XMLID_67_" class="st0" d="M119.5,94.3c0-0.5,0.4-0.9,0.9-0.9s0.9,0.4,0.9,0.9c0,0.5-0.4,0.8-0.9,0.8
		S119.5,94.8,119.5,94.3z M119.7,96.3h1.5v6.4h-1.5V96.3z"/>
	<path id="XMLID_70_" class="st0" d="M123.1,96.3h1.2l0.1,0.9h0.1c0.5-0.6,1.2-1,2-1c0.9,0,1.5,0.4,1.8,1.1c0.6-0.7,1.2-1.1,2.1-1.1
		c1.4,0,2,0.9,2,2.5v4h-1.5v-3.8c0-1.1-0.3-1.4-1-1.4c-0.4,0-0.8,0.3-1.3,0.8v4.5h-1.5v-3.8c0-1.1-0.3-1.4-1-1.4
		c-0.4,0-0.8,0.3-1.3,0.8v4.5h-1.5V96.3z"/>
	<path id="XMLID_72_" class="st0" d="M137.5,98.6c0-0.7-0.3-1.2-1.2-1.2c-0.6,0-1.2,0.3-1.8,0.6l-0.5-1c0.7-0.4,1.6-0.8,2.6-0.8
		c1.6,0,2.4,1,2.4,2.8v3.8h-1.2l-0.1-0.7h0c-0.6,0.5-1.2,0.9-2,0.9c-1.1,0-1.9-0.8-1.9-1.9C133.8,99.6,134.9,98.9,137.5,98.6z
		 M136.1,101.7c0.5,0,0.9-0.3,1.4-0.7v-1.4c-1.7,0.2-2.3,0.7-2.3,1.3C135.2,101.4,135.6,101.7,136.1,101.7z"/>
	<path id="XMLID_75_" class="st0" d="M141.3,102.5L141.3,102.5c-0.3-0.3-0.6-0.6-0.6-1.1c0-0.5,0.3-0.9,0.7-1.2v-0.1
		c-0.4-0.3-0.8-0.9-0.8-1.7c0-1.5,1.2-2.3,2.5-2.3c0.4,0,0.7,0.1,0.9,0.2h2.3v1.1h-1.2c0.2,0.2,0.4,0.6,0.4,1.1
		c0,1.4-1.1,2.2-2.4,2.2c-0.3,0-0.6-0.1-0.9-0.2c-0.2,0.2-0.3,0.3-0.3,0.6c0,0.4,0.3,0.6,1,0.6h1.1c1.5,0,2.3,0.5,2.3,1.6
		c0,1.3-1.3,2.2-3.4,2.2c-1.5,0-2.7-0.5-2.7-1.7C140.4,103.3,140.7,102.8,141.3,102.5z M143.3,104.5c1,0,1.7-0.5,1.7-1
		c0-0.5-0.4-0.6-1.1-0.6H143c-0.4,0-0.6,0-0.9-0.1c-0.3,0.3-0.5,0.5-0.5,0.8C141.7,104.2,142.3,104.5,143.3,104.5z M144.3,98.4
		c0-0.8-0.5-1.3-1.1-1.3s-1.1,0.5-1.1,1.3c0,0.8,0.5,1.3,1.1,1.3C143.8,99.7,144.3,99.3,144.3,98.4z"/>
	<path id="XMLID_79_" class="st0" d="M149.9,96.2c1.7,0,2.6,1.2,2.6,3c0,0.3,0,0.5-0.1,0.7h-4.1c0.1,1.2,0.9,1.8,1.9,1.8
		c0.5,0,1-0.2,1.5-0.5l0.5,0.9c-0.6,0.4-1.4,0.7-2.2,0.7c-1.8,0-3.1-1.2-3.1-3.3C147,97.4,148.4,96.2,149.9,96.2z M151.3,98.9
		c0-1-0.4-1.6-1.3-1.6c-0.8,0-1.4,0.6-1.5,1.6H151.3z"/>
	<path id="XMLID_82_" class="st0" d="M156,96.3h1.5l0.8,3.3c0.1,0.6,0.2,1.2,0.3,1.8h0.1c0.1-0.6,0.2-1.2,0.4-1.8l0.8-3.3h1.4
		l0.8,3.3c0.2,0.6,0.3,1.2,0.4,1.8h0.1c0.1-0.6,0.2-1.2,0.3-1.8l0.8-3.3h1.4l-1.6,6.4h-1.8l-0.7-3c-0.1-0.6-0.2-1.2-0.4-1.9h-0.1
		c-0.1,0.7-0.2,1.3-0.4,1.9l-0.7,3h-1.7L156,96.3z"/>
	<path id="XMLID_84_" class="st0" d="M166.2,94.3c0-0.5,0.4-0.9,0.9-0.9s0.9,0.4,0.9,0.9c0,0.5-0.4,0.8-0.9,0.8
		S166.2,94.8,166.2,94.3z M166.4,96.3h1.5v6.4h-1.5V96.3z"/>
	<path id="XMLID_87_" class="st0" d="M169.8,93.5h1.5v7.6c0,0.4,0.2,0.5,0.3,0.5c0.1,0,0.1,0,0.2,0l0.2,1.1
		c-0.2,0.1-0.4,0.1-0.8,0.1c-1.1,0-1.5-0.7-1.5-1.8V93.5z"/>
	<path id="XMLID_89_" class="st0" d="M173.3,93.5h1.5v7.6c0,0.4,0.2,0.5,0.3,0.5c0.1,0,0.1,0,0.2,0l0.2,1.1
		c-0.2,0.1-0.4,0.1-0.8,0.1c-1.1,0-1.5-0.7-1.5-1.8V93.5z"/>
	<path id="XMLID_91_" class="st0" d="M54.5,109.1H56v2.4l0,1.1c0.5-0.5,1.2-0.8,1.8-0.8c1.6,0,2.5,1.3,2.5,3.2
		c0,2.2-1.3,3.5-2.7,3.5c-0.6,0-1.2-0.3-1.7-0.8h0l-0.1,0.6h-1.2V109.1z M57.3,117.2c0.8,0,1.5-0.8,1.5-2.2c0-1.3-0.4-2-1.4-2
		c-0.5,0-0.9,0.2-1.4,0.7v3C56.5,117.1,57,117.2,57.3,117.2z"/>
	<path id="XMLID_94_" class="st0" d="M64.4,111.8c1.7,0,2.6,1.2,2.6,3c0,0.3,0,0.5-0.1,0.7h-4.1c0.1,1.2,0.9,1.8,1.9,1.8
		c0.5,0,1-0.2,1.5-0.5l0.5,0.9c-0.6,0.4-1.4,0.7-2.2,0.7c-1.8,0-3.1-1.2-3.1-3.3C61.5,113,62.9,111.8,64.4,111.8z M65.7,114.5
		c0-1-0.4-1.6-1.3-1.6c-0.8,0-1.4,0.6-1.5,1.6H65.7z"/>
	<path id="XMLID_97_" class="st0" d="M74.6,114.2c0-0.7-0.3-1.2-1.2-1.2c-0.6,0-1.2,0.3-1.8,0.6l-0.5-1c0.7-0.4,1.6-0.8,2.6-0.8
		c1.6,0,2.4,1,2.4,2.8v3.8h-1.2l-0.1-0.7h0c-0.6,0.5-1.2,0.9-2,0.9c-1.1,0-1.9-0.8-1.9-1.9C70.9,115.2,72,114.5,74.6,114.2z
		 M73.2,117.3c0.5,0,0.9-0.3,1.4-0.7v-1.4c-1.7,0.2-2.3,0.7-2.3,1.3C72.3,117,72.7,117.3,73.2,117.3z"/>
	<path id="XMLID_100_" class="st0" d="M80.2,111.8c0.7,0,1.2,0.3,1.7,0.7l-0.1-1v-2.3h1.5v9.2h-1.2l-0.1-0.7H82
		c-0.5,0.5-1.1,0.8-1.8,0.8c-1.6,0-2.6-1.2-2.6-3.3C77.5,113,78.9,111.8,80.2,111.8z M80.5,117.2c0.5,0,0.9-0.2,1.3-0.7v-3
		c-0.4-0.4-0.9-0.5-1.3-0.5c-0.8,0-1.5,0.8-1.5,2.1C79.1,116.5,79.6,117.2,80.5,117.2z"/>
	<path id="XMLID_103_" class="st0" d="M87.6,111.8c0.7,0,1.2,0.3,1.7,0.7l-0.1-1v-2.3h1.5v9.2h-1.2l-0.1-0.7h-0.1
		c-0.5,0.5-1.1,0.8-1.8,0.8c-1.6,0-2.6-1.2-2.6-3.3C84.9,113,86.2,111.8,87.6,111.8z M87.9,117.2c0.5,0,0.9-0.2,1.3-0.7v-3
		c-0.4-0.4-0.9-0.5-1.3-0.5c-0.8,0-1.5,0.8-1.5,2.1C86.4,116.5,86.9,117.2,87.9,117.2z"/>
	<path id="XMLID_106_" class="st0" d="M95.1,111.8c1.7,0,2.6,1.2,2.6,3c0,0.3,0,0.5-0.1,0.7h-4.1c0.1,1.2,0.9,1.8,1.9,1.8
		c0.5,0,1-0.2,1.5-0.5l0.5,0.9c-0.6,0.4-1.4,0.7-2.2,0.7c-1.8,0-3.1-1.2-3.1-3.3C92.2,113,93.6,111.8,95.1,111.8z M96.5,114.5
		c0-1-0.4-1.6-1.3-1.6c-0.8,0-1.4,0.6-1.5,1.6H96.5z"/>
	<path id="XMLID_109_" class="st0" d="M101.5,111.8c0.7,0,1.2,0.3,1.7,0.7l-0.1-1v-2.3h1.5v9.2h-1.2l-0.1-0.7h-0.1
		c-0.5,0.5-1.1,0.8-1.8,0.8c-1.6,0-2.6-1.2-2.6-3.3C98.8,113,100.1,111.8,101.5,111.8z M101.8,117.2c0.5,0,0.9-0.2,1.3-0.7v-3
		c-0.4-0.4-0.9-0.5-1.3-0.5c-0.8,0-1.5,0.8-1.5,2.1C100.3,116.5,100.9,117.2,101.8,117.2z"/>
	<path id="XMLID_112_" class="st0" d="M109.4,113.1h-0.9V112l1-0.1l0.2-1.7h1.2v1.7h1.6v1.2h-1.6v3c0,0.8,0.3,1.1,0.9,1.1
		c0.2,0,0.5-0.1,0.7-0.1l0.3,1.1c-0.4,0.1-0.8,0.2-1.3,0.2c-1.5,0-2-0.9-2-2.3V113.1z"/>
	<path id="XMLID_114_" class="st0" d="M116.4,111.8c1.6,0,3,1.2,3,3.4c0,2.1-1.4,3.3-3,3.3c-1.6,0-3-1.2-3-3.3
		C113.3,113,114.8,111.8,116.4,111.8z M116.4,117.2c0.9,0,1.5-0.8,1.5-2.1c0-1.3-0.6-2.1-1.5-2.1c-0.9,0-1.5,0.8-1.5,2.1
		C114.9,116.4,115.4,117.2,116.4,117.2z"/>
	<path id="XMLID_117_" class="st0" d="M123.8,113.1h-0.9V112l1-0.1l0.2-1.7h1.2v1.7h1.6v1.2h-1.6v3c0,0.8,0.3,1.1,0.9,1.1
		c0.2,0,0.5-0.1,0.7-0.1l0.3,1.1c-0.4,0.1-0.8,0.2-1.3,0.2c-1.5,0-2-0.9-2-2.3V113.1z"/>
	<path id="XMLID_119_" class="st0" d="M128.2,109.1h1.5v2.4l-0.1,1.2c0.5-0.5,1.2-1,2-1c1.4,0,2,0.9,2,2.5v4h-1.5v-3.8
		c0-1.1-0.3-1.4-1-1.4c-0.6,0-0.9,0.3-1.5,0.8v4.5h-1.5V109.1z"/>
	<path id="XMLID_121_" class="st0" d="M138,111.8c1.7,0,2.6,1.2,2.6,3c0,0.3,0,0.5-0.1,0.7h-4.1c0.1,1.2,0.9,1.8,1.9,1.8
		c0.5,0,1-0.2,1.5-0.5l0.5,0.9c-0.6,0.4-1.4,0.7-2.2,0.7c-1.8,0-3.1-1.2-3.1-3.3C135.1,113,136.5,111.8,138,111.8z M139.4,114.5
		c0-1-0.4-1.6-1.3-1.6c-0.8,0-1.4,0.6-1.5,1.6H139.4z"/>
	<path id="XMLID_124_" class="st0" d="M147.1,111.8c0.7,0,1.2,0.3,1.7,0.7l-0.1-1v-2.3h1.5v9.2H149l-0.1-0.7h-0.1
		c-0.5,0.5-1.1,0.8-1.8,0.8c-1.6,0-2.6-1.2-2.6-3.3C144.4,113,145.7,111.8,147.1,111.8z M147.4,117.2c0.5,0,0.9-0.2,1.3-0.7v-3
		c-0.4-0.4-0.9-0.5-1.3-0.5c-0.8,0-1.5,0.8-1.5,2.1C145.9,116.5,146.4,117.2,147.4,117.2z"/>
	<path id="XMLID_127_" class="st0" d="M155.6,114.2c0-0.7-0.3-1.2-1.2-1.2c-0.6,0-1.2,0.3-1.8,0.6l-0.5-1c0.7-0.4,1.6-0.8,2.6-0.8
		c1.6,0,2.4,1,2.4,2.8v3.8h-1.2l-0.1-0.7h0c-0.6,0.5-1.2,0.9-2,0.9c-1.1,0-1.9-0.8-1.9-1.9C151.8,115.2,153,114.5,155.6,114.2z
		 M154.2,117.3c0.5,0,0.9-0.3,1.4-0.7v-1.4c-1.7,0.2-2.3,0.7-2.3,1.3C153.3,117,153.6,117.3,154.2,117.3z"/>
	<path id="XMLID_130_" class="st0" d="M159.1,113.1h-0.9V112l1-0.1l0.2-1.7h1.2v1.7h1.6v1.2h-1.6v3c0,0.8,0.3,1.1,0.9,1.1
		c0.2,0,0.5-0.1,0.7-0.1l0.3,1.1c-0.4,0.1-0.8,0.2-1.3,0.2c-1.5,0-2-0.9-2-2.3V113.1z"/>
	<path id="XMLID_132_" class="st0" d="M166.9,114.2c0-0.7-0.3-1.2-1.2-1.2c-0.6,0-1.2,0.3-1.8,0.6l-0.5-1c0.7-0.4,1.6-0.8,2.6-0.8
		c1.6,0,2.4,1,2.4,2.8v3.8h-1.2l-0.1-0.7h0c-0.6,0.5-1.2,0.9-2,0.9c-1.1,0-1.9-0.8-1.9-1.9C163.1,115.2,164.2,114.5,166.9,114.2z
		 M165.5,117.3c0.5,0,0.9-0.3,1.4-0.7v-1.4c-1.7,0.2-2.3,0.7-2.3,1.3C164.6,117,164.9,117.3,165.5,117.3z"/>
	<path id="XMLID_135_" class="st0" d="M170.2,116.6c0.6,0.4,1.1,0.7,1.8,0.7c0.7,0,1-0.3,1-0.8c0-0.5-0.7-0.8-1.4-1
		c-0.8-0.3-1.8-0.8-1.8-1.9c0-1.1,0.9-1.9,2.3-1.9c0.9,0,1.6,0.4,2.1,0.8l-0.7,0.9c-0.4-0.3-0.9-0.5-1.4-0.5c-0.6,0-0.9,0.3-0.9,0.7
		c0,0.5,0.6,0.7,1.3,0.9c0.9,0.3,1.8,0.7,1.8,1.9c0,1.1-0.9,2-2.5,2c-0.9,0-1.8-0.4-2.4-0.9L170.2,116.6z"/>
	<path id="XMLID_137_" class="st0" d="M178.3,111.8c1.7,0,2.6,1.2,2.6,3c0,0.3,0,0.5-0.1,0.7h-4.1c0.1,1.2,0.9,1.8,1.9,1.8
		c0.5,0,1-0.2,1.5-0.5l0.5,0.9c-0.6,0.4-1.4,0.7-2.2,0.7c-1.8,0-3.1-1.2-3.1-3.3C175.4,113,176.8,111.8,178.3,111.8z M179.6,114.5
		c0-1-0.4-1.6-1.3-1.6c-0.8,0-1.4,0.6-1.5,1.6H179.6z"/>
	<path id="XMLID_140_" class="st0" d="M182.4,113.1h-0.9V112l1-0.1l0.2-1.7h1.2v1.7h1.6v1.2h-1.6v3c0,0.8,0.3,1.1,0.9,1.1
		c0.2,0,0.5-0.1,0.7-0.1l0.3,1.1c-0.4,0.1-0.8,0.2-1.3,0.2c-1.5,0-2-0.9-2-2.3V113.1z"/>
</g>
<g id="XMLID_17_">
	<line id="XMLID_19_" class="st1" x1="14.1" y1="99" x2="45.5" y2="99"/>
	<polygon id="XMLID_18_" class="st0" points="16.1,102.9 7.4,99 16.1,95.1 	"/>
</g>
</svg>
