<?xml version="1.0" encoding="utf-8"?>
<!-- Generator: Adobe Illustrator 19.0.0, SVG Export Plug-In . SVG Version: 6.00 Build 0)  -->
<svg version="1.1" id="Layer_1" xmlns="http://www.w3.org/2000/svg" xmlns:xlink="http://www.w3.org/1999/xlink" x="0px" y="0px"
	 viewBox="0 0 210 210" style="enable-background:new 0 0 210 210;" xml:space="preserve">
<style type="text/css">
	.st0{fill:#264E6E;}
	.st1{fill:none;stroke:#264E6E;stroke-width:2;stroke-miterlimit:10;}
</style>
<g id="XMLID_929_">
	<path id="XMLID_930_" class="st0" d="M4.6,116h1.5l2.6,4.8l0.9,1.8h0.1c-0.1-0.9-0.2-2-0.2-2.9V116h1.4v8.5H9.4l-2.6-4.8l-0.9-1.8
		H5.8c0.1,0.9,0.2,1.9,0.2,2.9v3.7H4.6V116z"/>
	<path id="XMLID_932_" class="st0" d="M15.5,118c1.7,0,2.6,1.2,2.6,3c0,0.3,0,0.5-0.1,0.7H14c0.1,1.2,0.9,1.8,1.9,1.8
		c0.5,0,1-0.2,1.5-0.5l0.5,0.9c-0.6,0.4-1.4,0.7-2.2,0.7c-1.8,0-3.1-1.2-3.1-3.3C12.5,119.2,14,118,15.5,118z M16.8,120.7
		c0-1-0.4-1.6-1.3-1.6c-0.8,0-1.4,0.6-1.5,1.6H16.8z"/>
	<path id="XMLID_935_" class="st0" d="M19.5,118.1H21v3.8c0,1.1,0.3,1.4,1,1.4c0.6,0,0.9-0.3,1.4-0.9v-4.4h1.5v6.4h-1.2l-0.1-0.9h0
		c-0.6,0.7-1.2,1.1-2.1,1.1c-1.4,0-2-0.9-2-2.5V118.1z"/>
	<path id="XMLID_937_" class="st0" d="M26.8,118.1H28l0.1,1.1h0.1c0.5-0.8,1.1-1.3,1.8-1.3c0.3,0,0.5,0,0.7,0.1l-0.3,1.3
		c-0.2-0.1-0.4-0.1-0.7-0.1c-0.5,0-1.1,0.4-1.5,1.3v3.9h-1.5V118.1z"/>
	<path id="XMLID_939_" class="st0" d="M34.7,120.4c0-0.7-0.3-1.2-1.2-1.2c-0.6,0-1.2,0.3-1.8,0.6l-0.5-1c0.7-0.4,1.6-0.8,2.6-0.8
		c1.6,0,2.4,1,2.4,2.8v3.8H35l-0.1-0.7h0c-0.6,0.5-1.2,0.9-2,0.9c-1.1,0-1.9-0.8-1.9-1.9C31,121.4,32.1,120.7,34.7,120.4z
		 M33.3,123.5c0.5,0,0.9-0.3,1.4-0.7v-1.4c-1.7,0.2-2.3,0.7-2.3,1.3C32.4,123.2,32.8,123.5,33.3,123.5z"/>
	<path id="XMLID_942_" class="st0" d="M38.1,115.3h1.5v7.6c0,0.4,0.2,0.5,0.3,0.5c0.1,0,0.1,0,0.2,0l0.2,1.1
		c-0.2,0.1-0.4,0.1-0.8,0.1c-1.1,0-1.5-0.7-1.5-1.8V115.3z"/>
	<path id="XMLID_944_" class="st0" d="M44.4,116h1.5l2.6,4.8l0.9,1.8h0.1c-0.1-0.9-0.2-2-0.2-2.9V116h1.4v8.5h-1.5l-2.6-4.8
		l-0.9-1.8h-0.1c0.1,0.9,0.2,1.9,0.2,2.9v3.7h-1.4V116z"/>
	<path id="XMLID_946_" class="st0" d="M55.3,118c1.7,0,2.6,1.2,2.6,3c0,0.3,0,0.5-0.1,0.7h-4.1c0.1,1.2,0.9,1.8,1.9,1.8
		c0.5,0,1-0.2,1.5-0.5l0.5,0.9c-0.6,0.4-1.4,0.7-2.2,0.7c-1.8,0-3.1-1.2-3.1-3.3C52.3,119.2,53.8,118,55.3,118z M56.6,120.7
		c0-1-0.4-1.6-1.3-1.6c-0.8,0-1.4,0.6-1.5,1.6H56.6z"/>
	<path id="XMLID_949_" class="st0" d="M59.3,119.3h-0.9v-1.1l1-0.1l0.2-1.7h1.2v1.7h1.6v1.2h-1.6v3c0,0.8,0.3,1.1,0.9,1.1
		c0.2,0,0.5-0.1,0.7-0.1l0.3,1.1c-0.4,0.1-0.8,0.2-1.3,0.2c-1.5,0-2-0.9-2-2.3V119.3z"/>
	<path id="XMLID_951_" class="st0" d="M63.2,118.1h1.5l0.8,3.3c0.1,0.6,0.2,1.2,0.3,1.8h0.1c0.1-0.6,0.2-1.2,0.4-1.8l0.8-3.3h1.4
		l0.8,3.3c0.2,0.6,0.3,1.2,0.4,1.8h0.1c0.1-0.6,0.2-1.2,0.3-1.8l0.8-3.3h1.4l-1.6,6.4h-1.8l-0.7-3c-0.1-0.6-0.2-1.2-0.4-1.9h-0.1
		c-0.1,0.7-0.2,1.3-0.4,1.9l-0.7,3h-1.7L63.2,118.1z"/>
	<path id="XMLID_953_" class="st0" d="M76.1,118c1.6,0,3,1.2,3,3.4c0,2.1-1.4,3.3-3,3.3c-1.6,0-3-1.2-3-3.3
		C73,119.2,74.5,118,76.1,118z M76.1,123.4c0.9,0,1.5-0.8,1.5-2.1c0-1.3-0.6-2.1-1.5-2.1s-1.5,0.8-1.5,2.1
		C74.6,122.6,75.1,123.4,76.1,123.4z"/>
	<path id="XMLID_956_" class="st0" d="M80.6,118.1h1.2l0.1,1.1H82c0.5-0.8,1.1-1.3,1.8-1.3c0.3,0,0.5,0,0.7,0.1l-0.3,1.3
		c-0.2-0.1-0.4-0.1-0.7-0.1c-0.5,0-1.1,0.4-1.5,1.3v3.9h-1.5V118.1z"/>
	<path id="XMLID_958_" class="st0" d="M85.4,115.3h1.5v5.7h0l2.4-2.9H91l-2.2,2.6l2.4,3.8h-1.6l-1.6-2.8l-1,1.1v1.6h-1.5V115.3z"/>
	<path id="XMLID_960_" class="st0" d="M94.7,116.2c0-0.5,0.4-0.9,0.9-0.9s0.9,0.4,0.9,0.9c0,0.5-0.4,0.8-0.9,0.8
		S94.7,116.6,94.7,116.2z M94.9,118.1h1.5v6.4h-1.5V118.1z"/>
	<path id="XMLID_963_" class="st0" d="M98.3,118.1h1.2l0.1,0.9h0.1c0.6-0.6,1.2-1,2.1-1c1.4,0,2,0.9,2,2.5v4h-1.5v-3.8
		c0-1.1-0.3-1.4-1-1.4c-0.6,0-0.9,0.3-1.5,0.8v4.5h-1.5V118.1z"/>
	<path id="XMLID_965_" class="st0" d="M105.8,119.3h-0.9v-1.1l1-0.1l0.2-1.7h1.2v1.7h1.6v1.2h-1.6v3c0,0.8,0.3,1.1,0.9,1.1
		c0.2,0,0.5-0.1,0.7-0.1l0.3,1.1c-0.4,0.1-0.8,0.2-1.3,0.2c-1.5,0-2-0.9-2-2.3V119.3z"/>
	<path id="XMLID_967_" class="st0" d="M112.7,118c1.7,0,2.6,1.2,2.6,3c0,0.3,0,0.5-0.1,0.7h-4.1c0.1,1.2,0.9,1.8,1.9,1.8
		c0.5,0,1-0.2,1.5-0.5l0.5,0.9c-0.6,0.4-1.4,0.7-2.2,0.7c-1.8,0-3.1-1.2-3.1-3.3C109.7,119.2,111.2,118,112.7,118z M114,120.7
		c0-1-0.4-1.6-1.3-1.6c-0.8,0-1.4,0.6-1.5,1.6H114z"/>
	<path id="XMLID_970_" class="st0" d="M116.7,118.1h1.2l0.1,1.1h0.1c0.5-0.8,1.1-1.3,1.8-1.3c0.3,0,0.5,0,0.7,0.1l-0.3,1.3
		c-0.2-0.1-0.4-0.1-0.7-0.1c-0.5,0-1.1,0.4-1.5,1.3v3.9h-1.5V118.1z"/>
	<path id="XMLID_972_" class="st0" d="M121.6,118.1h1.2l0.1,0.9h0.1c0.6-0.6,1.2-1,2.1-1c1.4,0,2,0.9,2,2.5v4h-1.5v-3.8
		c0-1.1-0.3-1.4-1-1.4c-0.6,0-0.9,0.3-1.5,0.8v4.5h-1.5V118.1z"/>
	<path id="XMLID_974_" class="st0" d="M132.3,120.4c0-0.7-0.3-1.2-1.2-1.2c-0.6,0-1.2,0.3-1.8,0.6l-0.5-1c0.7-0.4,1.6-0.8,2.6-0.8
		c1.6,0,2.4,1,2.4,2.8v3.8h-1.2l-0.1-0.7h0c-0.6,0.5-1.2,0.9-2,0.9c-1.1,0-1.9-0.8-1.9-1.9C128.6,121.4,129.7,120.7,132.3,120.4z
		 M131,123.5c0.5,0,0.9-0.3,1.4-0.7v-1.4c-1.7,0.2-2.3,0.7-2.3,1.3C130,123.2,130.4,123.5,131,123.5z"/>
	<path id="XMLID_977_" class="st0" d="M135.7,115.3h1.5v7.6c0,0.4,0.2,0.5,0.3,0.5c0.1,0,0.1,0,0.2,0l0.2,1.1
		c-0.2,0.1-0.4,0.1-0.8,0.1c-1.1,0-1.5-0.7-1.5-1.8V115.3z"/>
	<path id="XMLID_979_" class="st0" d="M143.3,125v2h-1.5v-8.9h1.2l0.1,0.7h0.1c0.5-0.5,1.2-0.8,1.9-0.8c1.6,0,2.5,1.3,2.5,3.2
		c0,2.2-1.3,3.4-2.7,3.4c-0.6,0-1.1-0.3-1.6-0.7L143.3,125z M144.6,123.4c0.8,0,1.5-0.8,1.5-2.2c0-1.3-0.4-2-1.4-2
		c-0.5,0-0.9,0.2-1.4,0.7v3C143.8,123.3,144.2,123.4,144.6,123.4z"/>
	<path id="XMLID_982_" class="st0" d="M152.5,120.4c0-0.7-0.3-1.2-1.2-1.2c-0.6,0-1.2,0.3-1.8,0.6l-0.5-1c0.7-0.4,1.6-0.8,2.6-0.8
		c1.6,0,2.4,1,2.4,2.8v3.8h-1.2l-0.1-0.7h0c-0.6,0.5-1.2,0.9-2,0.9c-1.1,0-1.9-0.8-1.9-1.9C148.7,121.4,149.9,120.7,152.5,120.4z
		 M151.1,123.5c0.5,0,0.9-0.3,1.4-0.7v-1.4c-1.7,0.2-2.3,0.7-2.3,1.3C150.2,123.2,150.6,123.5,151.1,123.5z"/>
	<path id="XMLID_985_" class="st0" d="M155.8,118.1h1.2l0.1,1.1h0.1c0.5-0.8,1.1-1.3,1.8-1.3c0.3,0,0.5,0,0.7,0.1l-0.3,1.3
		c-0.2-0.1-0.4-0.1-0.7-0.1c-0.5,0-1.1,0.4-1.5,1.3v3.9h-1.5V118.1z"/>
	<path id="XMLID_987_" class="st0" d="M163.8,120.4c0-0.7-0.3-1.2-1.2-1.2c-0.6,0-1.2,0.3-1.8,0.6l-0.5-1c0.7-0.4,1.6-0.8,2.6-0.8
		c1.6,0,2.4,1,2.4,2.8v3.8h-1.2l-0.1-0.7h0c-0.6,0.5-1.2,0.9-2,0.9c-1.1,0-1.9-0.8-1.9-1.9C160,121.4,161.2,120.7,163.8,120.4z
		 M162.4,123.5c0.5,0,0.9-0.3,1.4-0.7v-1.4c-1.7,0.2-2.3,0.7-2.3,1.3C161.5,123.2,161.9,123.5,162.4,123.5z"/>
	<path id="XMLID_990_" class="st0" d="M167.1,118.1h1.2l0.1,0.9h0.1c0.5-0.6,1.2-1,2-1c0.9,0,1.5,0.4,1.8,1.1
		c0.6-0.6,1.2-1.1,2.1-1.1c1.4,0,2,0.9,2,2.5v4h-1.5v-3.8c0-1.1-0.3-1.4-1-1.4c-0.4,0-0.8,0.3-1.3,0.8v4.5h-1.5v-3.8
		c0-1.1-0.3-1.4-1-1.4c-0.4,0-0.8,0.3-1.3,0.8v4.5h-1.5V118.1z"/>
	<path id="XMLID_992_" class="st0" d="M180.6,118c1.7,0,2.6,1.2,2.6,3c0,0.3,0,0.5-0.1,0.7h-4.1c0.1,1.2,0.9,1.8,1.9,1.8
		c0.5,0,1-0.2,1.5-0.5l0.5,0.9c-0.6,0.4-1.4,0.7-2.2,0.7c-1.8,0-3.1-1.2-3.1-3.3C177.7,119.2,179.1,118,180.6,118z M181.9,120.7
		c0-1-0.4-1.6-1.3-1.6c-0.8,0-1.4,0.6-1.5,1.6H181.9z"/>
	<path id="XMLID_995_" class="st0" d="M184.7,119.3h-0.9v-1.1l1-0.1l0.2-1.7h1.2v1.7h1.6v1.2h-1.6v3c0,0.8,0.3,1.1,0.9,1.1
		c0.2,0,0.5-0.1,0.7-0.1l0.3,1.1c-0.4,0.1-0.8,0.2-1.3,0.2c-1.5,0-2-0.9-2-2.3V119.3z"/>
	<path id="XMLID_997_" class="st0" d="M191.5,118c1.7,0,2.6,1.2,2.6,3c0,0.3,0,0.5-0.1,0.7h-4.1c0.1,1.2,0.9,1.8,1.9,1.8
		c0.5,0,1-0.2,1.5-0.5l0.5,0.9c-0.6,0.4-1.4,0.7-2.2,0.7c-1.8,0-3.1-1.2-3.1-3.3C188.6,119.2,190,118,191.5,118z M192.9,120.7
		c0-1-0.4-1.6-1.3-1.6c-0.8,0-1.4,0.6-1.5,1.6H192.9z"/>
	<path id="XMLID_1000_" class="st0" d="M195.6,118.1h1.2l0.1,1.1h0.1c0.5-0.8,1.1-1.3,1.8-1.3c0.3,0,0.5,0,0.7,0.1l-0.3,1.3
		c-0.2-0.1-0.4-0.1-0.7-0.1c-0.5,0-1.1,0.4-1.5,1.3v3.9h-1.5V118.1z"/>
	<path id="XMLID_1002_" class="st0" d="M200.4,122.8c0.6,0.4,1.1,0.7,1.8,0.7c0.7,0,1-0.3,1-0.8c0-0.5-0.7-0.8-1.4-1
		c-0.8-0.3-1.8-0.8-1.8-1.9c0-1.1,0.9-1.9,2.3-1.9c0.9,0,1.6,0.4,2.1,0.8l-0.7,0.9c-0.4-0.3-0.9-0.5-1.4-0.5c-0.6,0-0.9,0.3-0.9,0.7
		c0,0.5,0.6,0.7,1.3,0.9c0.9,0.3,1.8,0.7,1.8,1.9c0,1.1-0.9,2-2.5,2c-0.9,0-1.8-0.4-2.4-0.9L200.4,122.8z"/>
</g>
<g id="XMLID_1603_">
	<line id="XMLID_1605_" class="st1" x1="102.5" y1="87.9" x2="102.5" y2="108.8"/>
	<polygon id="XMLID_1604_" class="st0" points="98.6,89.3 102.5,83.5 106.4,89.3 	"/>
</g>
</svg>
