<?xml version="1.0" encoding="utf-8"?>
<!-- Generator: Adobe Illustrator 19.0.0, SVG Export Plug-In . SVG Version: 6.00 Build 0)  -->
<svg version="1.1" id="Layer_1" xmlns="http://www.w3.org/2000/svg" xmlns:xlink="http://www.w3.org/1999/xlink" x="0px" y="0px"
	 viewBox="0 0 200 200" style="enable-background:new 0 0 200 200;" xml:space="preserve">
<style type="text/css">
	.st0{fill:#264E6E;}
	.st1{fill:none;stroke:#264E6E;stroke-width:2;stroke-miterlimit:10;}
</style>
<g id="XMLID_863_">
	<path id="XMLID_864_" class="st0" d="M53,80.3h1.2l0.1,0.9h0.1c0.5-0.6,1.2-1,1.9-1c0.9,0,1.5,0.4,1.8,1.1c0.6-0.7,1.2-1.1,2.1-1.1
		c1.4,0,2,0.9,2,2.5v4h-1.5v-3.8c0-1.1-0.3-1.4-1-1.4c-0.4,0-0.8,0.3-1.3,0.8v4.5h-1.5v-3.8c0-1.1-0.3-1.4-1-1.4
		c-0.4,0-0.8,0.3-1.3,0.8v4.5H53V80.3z"/>
	<path id="XMLID_866_" class="st0" d="M66.5,80.1c1.6,0,3,1.2,3,3.4c0,2.1-1.4,3.3-3,3.3c-1.6,0-3-1.2-3-3.3
		C63.5,81.3,64.9,80.1,66.5,80.1z M66.5,85.6c0.9,0,1.5-0.8,1.5-2.1c0-1.3-0.6-2.1-1.5-2.1S65,82.2,65,83.5
		C65,84.8,65.6,85.6,66.5,85.6z"/>
	<path id="XMLID_869_" class="st0" d="M70.2,80.3h1.5l1,3.3c0.2,0.6,0.4,1.3,0.5,1.9h0.1c0.2-0.6,0.4-1.3,0.5-1.9l1-3.3h1.4
		l-2.2,6.4h-1.7L70.2,80.3z"/>
	<path id="XMLID_871_" class="st0" d="M79.9,80.1c1.7,0,2.6,1.2,2.6,3c0,0.3,0,0.5-0.1,0.7h-4.1c0.1,1.2,0.9,1.8,1.9,1.8
		c0.5,0,1-0.2,1.5-0.5l0.5,0.9c-0.6,0.4-1.4,0.7-2.2,0.7c-1.8,0-3.1-1.2-3.1-3.3C76.9,81.4,78.4,80.1,79.9,80.1z M81.2,82.9
		c0-1-0.4-1.6-1.3-1.6c-0.8,0-1.4,0.6-1.5,1.6H81.2z"/>
	<path id="XMLID_874_" class="st0" d="M86.9,88.1c0.7,0,1.1-0.5,1.3-1.1l0.1-0.4l-2.5-6.3h1.5l1.1,3.1c0.2,0.6,0.4,1.2,0.6,1.8H89
		c0.2-0.6,0.3-1.2,0.5-1.8l1-3.1h1.4L89.6,87c-0.5,1.4-1.2,2.3-2.6,2.3c-0.4,0-0.6-0.1-0.8-0.1l0.3-1.2C86.6,88,86.8,88.1,86.9,88.1
		z"/>
	<path id="XMLID_876_" class="st0" d="M95.6,80.1c1.6,0,3,1.2,3,3.4c0,2.1-1.4,3.3-3,3.3c-1.6,0-3-1.2-3-3.3
		C92.5,81.3,94,80.1,95.6,80.1z M95.6,85.6c0.9,0,1.5-0.8,1.5-2.1c0-1.3-0.6-2.1-1.5-2.1s-1.5,0.8-1.5,2.1
		C94.1,84.8,94.6,85.6,95.6,85.6z"/>
	<path id="XMLID_879_" class="st0" d="M100,80.3h1.5v3.8c0,1.1,0.3,1.4,1,1.4c0.6,0,0.9-0.3,1.4-0.9v-4.4h1.5v6.4h-1.2l-0.1-0.9h0
		c-0.6,0.7-1.2,1.1-2.1,1.1c-1.4,0-2-0.9-2-2.5V80.3z"/>
	<path id="XMLID_881_" class="st0" d="M107.3,80.3h1.2l0.1,1.1h0.1c0.5-0.8,1.1-1.3,1.8-1.3c0.3,0,0.5,0,0.7,0.1l-0.3,1.3
		c-0.2-0.1-0.4-0.1-0.7-0.1c-0.5,0-1.1,0.4-1.5,1.3v3.9h-1.5V80.3z"/>
	<path id="XMLID_883_" class="st0" d="M114.7,78.3c0-0.5,0.4-0.9,0.9-0.9c0.5,0,0.9,0.4,0.9,0.9c0,0.5-0.4,0.8-0.9,0.8
		C115,79.2,114.7,78.8,114.7,78.3z M114.8,80.3h1.5v6.4h-1.5V80.3z"/>
	<path id="XMLID_886_" class="st0" d="M118.2,80.3h1.2l0.1,0.9h0.1c0.5-0.6,1.2-1,2-1c0.9,0,1.5,0.4,1.8,1.1
		c0.6-0.7,1.2-1.1,2.1-1.1c1.4,0,2,0.9,2,2.5v4h-1.5v-3.8c0-1.1-0.3-1.4-1-1.4c-0.4,0-0.8,0.3-1.3,0.8v4.5h-1.5v-3.8
		c0-1.1-0.3-1.4-1-1.4c-0.4,0-0.8,0.3-1.3,0.8v4.5h-1.5V80.3z"/>
	<path id="XMLID_888_" class="st0" d="M132.7,82.6c0-0.7-0.3-1.2-1.2-1.2c-0.6,0-1.2,0.3-1.8,0.6l-0.5-1c0.7-0.4,1.6-0.8,2.6-0.8
		c1.6,0,2.4,1,2.4,2.8v3.8h-1.2l-0.1-0.7h0c-0.6,0.5-1.2,0.9-2,0.9c-1.1,0-1.9-0.8-1.9-1.9C128.9,83.6,130.1,82.9,132.7,82.6z
		 M131.3,85.7c0.5,0,0.9-0.3,1.4-0.7v-1.4c-1.7,0.2-2.3,0.7-2.3,1.3C130.4,85.4,130.8,85.7,131.3,85.7z"/>
	<path id="XMLID_891_" class="st0" d="M136.5,86.5L136.5,86.5c-0.3-0.3-0.6-0.6-0.6-1.1c0-0.5,0.3-0.9,0.7-1.2v-0.1
		c-0.4-0.3-0.8-0.9-0.8-1.7c0-1.5,1.2-2.3,2.5-2.3c0.4,0,0.7,0.1,0.9,0.2h2.3v1.1h-1.2c0.2,0.2,0.4,0.6,0.4,1.1
		c0,1.4-1.1,2.2-2.4,2.2c-0.3,0-0.6-0.1-0.9-0.2c-0.2,0.2-0.3,0.3-0.3,0.6c0,0.4,0.3,0.6,1,0.6h1.1c1.5,0,2.3,0.5,2.3,1.6
		c0,1.3-1.3,2.2-3.4,2.2c-1.5,0-2.7-0.5-2.7-1.7C135.6,87.3,135.9,86.8,136.5,86.5z M138.4,88.5c1,0,1.7-0.5,1.7-1
		c0-0.5-0.4-0.6-1.1-0.6h-0.9c-0.4,0-0.6,0-0.9-0.1c-0.3,0.3-0.5,0.5-0.5,0.8C136.8,88.2,137.4,88.5,138.4,88.5z M139.4,82.4
		c0-0.8-0.5-1.3-1.1-1.3s-1.1,0.5-1.1,1.3c0,0.8,0.5,1.3,1.1,1.3C138.9,83.7,139.4,83.2,139.4,82.4z"/>
	<path id="XMLID_895_" class="st0" d="M145.1,80.1c1.7,0,2.6,1.2,2.6,3c0,0.3,0,0.5-0.1,0.7h-4.1c0.1,1.2,0.9,1.8,1.9,1.8
		c0.5,0,1-0.2,1.5-0.5l0.5,0.9c-0.6,0.4-1.4,0.7-2.2,0.7c-1.8,0-3.1-1.2-3.1-3.3C142.1,81.4,143.6,80.1,145.1,80.1z M146.4,82.9
		c0-1-0.4-1.6-1.3-1.6c-0.8,0-1.4,0.6-1.5,1.6H146.4z"/>
</g>
<g id="XMLID_1603_">
	<g id="XMLID_30_">
		<path id="XMLID_32_" class="st1" d="M64.9,119c8.8-4.9,10.9-17.3,4.8-28"/>
		<polygon id="XMLID_31_" class="st0" points="66,113.4 61,121.5 70.4,119.7 		"/>
	</g>
</g>
</svg>
