<?xml version="1.0" encoding="utf-8"?>
<!-- Generator: Adobe Illustrator 19.0.0, SVG Export Plug-In . SVG Version: 6.00 Build 0)  -->
<svg version="1.1" id="Layer_1" xmlns="http://www.w3.org/2000/svg" xmlns:xlink="http://www.w3.org/1999/xlink" x="0px" y="0px"
	 viewBox="0 0 200 200" style="enable-background:new 0 0 200 200;" xml:space="preserve">
<style type="text/css">
	.st0{fill:#264E6E;}
	.st1{fill:none;stroke:#264E6E;stroke-width:2;stroke-miterlimit:10;}
</style>
<g id="XMLID_1374_">
	<path id="XMLID_1375_" class="st0" d="M75.7,87.8h1.5V95h3.5v1.3h-5V87.8z"/>
	<path id="XMLID_1377_" class="st0" d="M84.5,89.7c1.7,0,2.6,1.2,2.6,3c0,0.3,0,0.5-0.1,0.7H83c0.1,1.2,0.9,1.8,1.9,1.8
		c0.5,0,1-0.2,1.5-0.5l0.5,0.9c-0.6,0.4-1.4,0.7-2.2,0.7c-1.8,0-3.1-1.2-3.1-3.3C81.5,91,83,89.7,84.5,89.7z M85.8,92.5
		c0-1-0.4-1.6-1.3-1.6c-0.8,0-1.4,0.6-1.5,1.6H85.8z"/>
	<path id="XMLID_1380_" class="st0" d="M91.9,92.2c0-0.7-0.3-1.2-1.2-1.2c-0.6,0-1.2,0.3-1.8,0.6l-0.5-1c0.7-0.4,1.6-0.8,2.6-0.8
		c1.6,0,2.4,1,2.4,2.8v3.8h-1.2L92,95.6h0c-0.6,0.5-1.2,0.9-2,0.9c-1.1,0-1.9-0.8-1.9-1.9C88.1,93.2,89.2,92.5,91.9,92.2z
		 M90.5,95.3c0.5,0,0.9-0.3,1.4-0.7v-1.4c-1.7,0.2-2.3,0.7-2.3,1.3C89.6,95,89.9,95.3,90.5,95.3z"/>
	<path id="XMLID_1383_" class="st0" d="M95.2,89.9h1.2l0.1,1.1h0.1c0.5-0.8,1.1-1.3,1.8-1.3c0.3,0,0.5,0,0.7,0.1l-0.3,1.3
		c-0.2-0.1-0.4-0.1-0.7-0.1c-0.5,0-1.1,0.4-1.5,1.3v3.9h-1.5V89.9z"/>
	<path id="XMLID_1385_" class="st0" d="M100,89.9h1.2l0.1,0.9h0.1c0.6-0.6,1.2-1,2.1-1c1.4,0,2,0.9,2,2.5v4H104v-3.8
		c0-1.1-0.3-1.4-1-1.4c-0.6,0-0.9,0.3-1.5,0.8v4.5H100V89.9z"/>
	<path id="XMLID_1387_" class="st0" d="M107.1,87.9c0-0.5,0.4-0.9,0.9-0.9c0.5,0,0.9,0.4,0.9,0.9c0,0.5-0.4,0.8-0.9,0.8
		C107.5,88.8,107.1,88.4,107.1,87.9z M107.3,89.9h1.5v6.4h-1.5V89.9z"/>
	<path id="XMLID_1390_" class="st0" d="M110.7,89.9h1.2l0.1,0.9h0.1c0.6-0.6,1.2-1,2.1-1c1.4,0,2,0.9,2,2.5v4h-1.5v-3.8
		c0-1.1-0.3-1.4-1-1.4c-0.6,0-0.9,0.3-1.5,0.8v4.5h-1.5V89.9z"/>
	<path id="XMLID_1392_" class="st0" d="M118.5,96.1L118.5,96.1c-0.3-0.3-0.6-0.6-0.6-1.1c0-0.5,0.3-0.9,0.7-1.2v-0.1
		c-0.4-0.3-0.8-0.9-0.8-1.7c0-1.5,1.2-2.3,2.5-2.3c0.4,0,0.7,0.1,0.9,0.2h2.3V91h-1.2c0.2,0.2,0.4,0.6,0.4,1.1
		c0,1.4-1.1,2.2-2.4,2.2c-0.3,0-0.6-0.1-0.9-0.2c-0.2,0.2-0.3,0.3-0.3,0.6c0,0.4,0.3,0.6,1,0.6h1.1c1.5,0,2.3,0.5,2.3,1.6
		c0,1.3-1.3,2.2-3.4,2.2c-1.5,0-2.7-0.5-2.7-1.7C117.6,96.9,117.9,96.4,118.5,96.1z M120.4,98.1c1,0,1.7-0.5,1.7-1
		c0-0.5-0.4-0.6-1.1-0.6h-0.9c-0.4,0-0.6,0-0.9-0.1c-0.3,0.3-0.5,0.5-0.5,0.8C118.8,97.8,119.4,98.1,120.4,98.1z M121.4,92
		c0-0.8-0.5-1.3-1.1-1.3s-1.1,0.5-1.1,1.3c0,0.8,0.5,1.3,1.1,1.3C120.9,93.3,121.4,92.8,121.4,92z"/>
	<path id="XMLID_1396_" class="st0" d="M127.4,89.9h1.2l0.1,1.1h0.1c0.5-0.8,1.1-1.3,1.8-1.3c0.3,0,0.5,0,0.7,0.1l-0.3,1.3
		c-0.2-0.1-0.4-0.1-0.7-0.1c-0.5,0-1.1,0.4-1.5,1.3v3.9h-1.5V89.9z"/>
	<path id="XMLID_1398_" class="st0" d="M135.4,92.2c0-0.7-0.3-1.2-1.2-1.2c-0.6,0-1.2,0.3-1.8,0.6l-0.5-1c0.7-0.4,1.6-0.8,2.6-0.8
		c1.6,0,2.4,1,2.4,2.8v3.8h-1.2l-0.1-0.7h0c-0.6,0.5-1.2,0.9-2,0.9c-1.1,0-1.9-0.8-1.9-1.9C131.6,93.2,132.8,92.5,135.4,92.2z
		 M134,95.3c0.5,0,0.9-0.3,1.4-0.7v-1.4c-1.7,0.2-2.3,0.7-2.3,1.3C133.1,95,133.5,95.3,134,95.3z"/>
	<path id="XMLID_1401_" class="st0" d="M138.9,91.1H138V90l1-0.1l0.2-1.7h1.2v1.7h1.6v1.2h-1.6v3c0,0.8,0.3,1.1,0.9,1.1
		c0.2,0,0.5-0.1,0.7-0.1l0.3,1.1c-0.4,0.1-0.8,0.2-1.3,0.2c-1.5,0-2-0.9-2-2.3V91.1z"/>
	<path id="XMLID_1403_" class="st0" d="M145.8,89.7c1.7,0,2.6,1.2,2.6,3c0,0.3,0,0.5-0.1,0.7h-4.1c0.1,1.2,0.9,1.8,1.9,1.8
		c0.5,0,1-0.2,1.5-0.5l0.5,0.9c-0.6,0.4-1.4,0.7-2.2,0.7c-1.8,0-3.1-1.2-3.1-3.3C142.9,91,144.3,89.7,145.8,89.7z M147.1,92.5
		c0-1-0.4-1.6-1.3-1.6c-0.8,0-1.4,0.6-1.5,1.6H147.1z"/>
	<path id="XMLID_1406_" class="st0" d="M155.1,89.7c1.6,0,3,1.2,3,3.4c0,2.1-1.4,3.3-3,3.3c-1.6,0-3-1.2-3-3.3
		C152.1,91,153.5,89.7,155.1,89.7z M155.1,95.2c0.9,0,1.5-0.8,1.5-2.1c0-1.3-0.6-2.1-1.5-2.1s-1.5,0.8-1.5,2.1
		C153.6,94.4,154.2,95.2,155.1,95.2z"/>
	<path id="XMLID_1409_" class="st0" d="M162.9,88.3c-0.2-0.1-0.5-0.2-0.7-0.2c-0.5,0-0.8,0.3-0.8,1.1v0.7h1.2v1.2h-1.2v5.2h-1.5
		v-5.2H159V90l0.9-0.1v-0.7c0-1.3,0.6-2.3,2.1-2.3c0.5,0,0.9,0.1,1.2,0.2L162.9,88.3z"/>
	<path id="XMLID_1411_" class="st0" d="M75.6,102.7h1.5v2.4l0,1.1c0.5-0.5,1.2-0.8,1.8-0.8c1.6,0,2.5,1.3,2.5,3.2
		c0,2.2-1.3,3.5-2.7,3.5c-0.6,0-1.2-0.3-1.7-0.8h0l-0.1,0.6h-1.2V102.7z M78.4,110.8c0.8,0,1.5-0.8,1.5-2.2c0-1.3-0.4-2-1.4-2
		c-0.5,0-0.9,0.2-1.4,0.7v3C77.6,110.6,78,110.8,78.4,110.8z"/>
	<path id="XMLID_1414_" class="st0" d="M86.3,107.8c0-0.7-0.3-1.2-1.2-1.2c-0.6,0-1.2,0.3-1.8,0.6l-0.5-1c0.7-0.4,1.6-0.8,2.6-0.8
		c1.6,0,2.4,1,2.4,2.8v3.8h-1.2l-0.1-0.7h0c-0.6,0.5-1.2,0.9-2,0.9c-1.1,0-1.9-0.8-1.9-1.9C82.5,108.8,83.7,108.1,86.3,107.8z
		 M84.9,110.9c0.5,0,0.9-0.3,1.4-0.7v-1.4c-1.7,0.2-2.3,0.7-2.3,1.3C84,110.6,84.4,110.9,84.9,110.9z"/>
	<path id="XMLID_1417_" class="st0" d="M89.8,106.7h-0.9v-1.1l1-0.1l0.2-1.7h1.2v1.7h1.6v1.2h-1.6v3c0,0.8,0.3,1.1,0.9,1.1
		c0.2,0,0.5-0.1,0.7-0.1l0.3,1.1c-0.4,0.1-0.8,0.2-1.3,0.2c-1.5,0-2-0.9-2-2.3V106.7z"/>
	<path id="XMLID_1419_" class="st0" d="M96.9,105.3c0.8,0,1.4,0.3,1.9,0.7l-0.7,0.9c-0.3-0.3-0.7-0.5-1.1-0.5c-1,0-1.7,0.8-1.7,2.1
		c0,1.3,0.7,2.1,1.7,2.1c0.5,0,1-0.3,1.3-0.5l0.6,0.9c-0.6,0.5-1.4,0.8-2.1,0.8c-1.7,0-3.1-1.2-3.1-3.3
		C93.7,106.6,95.2,105.3,96.9,105.3z"/>
	<path id="XMLID_1421_" class="st0" d="M100.2,102.7h1.5v2.4l-0.1,1.2c0.5-0.5,1.2-1,2-1c1.4,0,2,0.9,2,2.5v4h-1.5v-3.8
		c0-1.1-0.3-1.4-1-1.4c-0.6,0-0.9,0.3-1.5,0.8v4.5h-1.5V102.7z"/>
	<path id="XMLID_1423_" class="st0" d="M110.6,111.7L110.6,111.7c-0.3-0.3-0.6-0.6-0.6-1.1c0-0.5,0.3-0.9,0.7-1.2v-0.1
		c-0.4-0.3-0.8-0.9-0.8-1.7c0-1.5,1.2-2.3,2.5-2.3c0.4,0,0.7,0.1,0.9,0.2h2.3v1.1h-1.2c0.2,0.2,0.4,0.6,0.4,1.1
		c0,1.4-1.1,2.2-2.4,2.2c-0.3,0-0.6-0.1-0.9-0.2c-0.2,0.2-0.3,0.3-0.3,0.6c0,0.4,0.3,0.6,1,0.6h1.1c1.5,0,2.3,0.5,2.3,1.6
		c0,1.3-1.3,2.2-3.4,2.2c-1.5,0-2.7-0.5-2.7-1.7C109.6,112.5,110,112,110.6,111.7z M112.5,113.7c1,0,1.7-0.5,1.7-1
		c0-0.5-0.4-0.6-1.1-0.6h-0.9c-0.4,0-0.6,0-0.9-0.1c-0.3,0.3-0.5,0.5-0.5,0.8C110.9,113.4,111.5,113.7,112.5,113.7z M113.5,107.6
		c0-0.8-0.5-1.3-1.1-1.3s-1.1,0.5-1.1,1.3c0,0.8,0.5,1.3,1.1,1.3C113,108.9,113.5,108.4,113.5,107.6z"/>
	<path id="XMLID_1427_" class="st0" d="M116.8,105.5h1.2l0.1,1.1h0.1c0.5-0.8,1.1-1.3,1.8-1.3c0.3,0,0.5,0,0.7,0.1l-0.3,1.3
		c-0.2-0.1-0.4-0.1-0.7-0.1c-0.5,0-1.1,0.4-1.5,1.3v3.9h-1.5V105.5z"/>
	<path id="XMLID_1429_" class="st0" d="M124.8,107.8c0-0.7-0.3-1.2-1.2-1.2c-0.6,0-1.2,0.3-1.8,0.6l-0.5-1c0.7-0.4,1.6-0.8,2.6-0.8
		c1.6,0,2.4,1,2.4,2.8v3.8h-1.2l-0.1-0.7h0c-0.6,0.5-1.2,0.9-2,0.9c-1.1,0-1.9-0.8-1.9-1.9C121.1,108.8,122.2,108.1,124.8,107.8z
		 M123.4,110.9c0.5,0,0.9-0.3,1.4-0.7v-1.4c-1.7,0.2-2.3,0.7-2.3,1.3C122.5,110.6,122.9,110.9,123.4,110.9z"/>
	<path id="XMLID_1432_" class="st0" d="M130.4,105.3c0.7,0,1.2,0.3,1.7,0.7l-0.1-1v-2.3h1.5v9.2h-1.2l-0.1-0.7h-0.1
		c-0.5,0.5-1.1,0.8-1.8,0.8c-1.6,0-2.6-1.2-2.6-3.3C127.7,106.6,129.1,105.3,130.4,105.3z M130.7,110.8c0.5,0,0.9-0.2,1.3-0.7v-3
		c-0.4-0.4-0.9-0.5-1.3-0.5c-0.8,0-1.5,0.8-1.5,2.1C129.3,110,129.8,110.8,130.7,110.8z"/>
	<path id="XMLID_1435_" class="st0" d="M135.3,103.5c0-0.5,0.4-0.9,0.9-0.9s0.9,0.4,0.9,0.9c0,0.5-0.4,0.8-0.9,0.8
		S135.3,104,135.3,103.5z M135.5,105.5h1.5v6.4h-1.5V105.5z"/>
	<path id="XMLID_1438_" class="st0" d="M141.4,105.3c1.7,0,2.6,1.2,2.6,3c0,0.3,0,0.5-0.1,0.7h-4.1c0.1,1.2,0.9,1.8,1.9,1.8
		c0.5,0,1-0.2,1.5-0.5l0.5,0.9c-0.6,0.4-1.4,0.7-2.2,0.7c-1.8,0-3.1-1.2-3.1-3.3C138.5,106.6,139.9,105.3,141.4,105.3z M142.7,108.1
		c0-1-0.4-1.6-1.3-1.6c-0.8,0-1.4,0.6-1.5,1.6H142.7z"/>
	<path id="XMLID_1441_" class="st0" d="M145.5,105.5h1.2l0.1,0.9h0.1c0.6-0.6,1.2-1,2.1-1c1.4,0,2,0.9,2,2.5v4h-1.5v-3.8
		c0-1.1-0.3-1.4-1-1.4c-0.6,0-0.9,0.3-1.5,0.8v4.5h-1.5V105.5z"/>
	<path id="XMLID_1443_" class="st0" d="M153,106.7h-0.9v-1.1l1-0.1l0.2-1.7h1.2v1.7h1.6v1.2h-1.6v3c0,0.8,0.3,1.1,0.9,1.1
		c0.2,0,0.5-0.1,0.7-0.1l0.3,1.1c-0.4,0.1-0.8,0.2-1.3,0.2c-1.5,0-2-0.9-2-2.3V106.7z"/>
</g>
<g id="XMLID_1603_">
	<g id="XMLID_30_">
		<path id="XMLID_32_" class="st1" d="M40.1,89.9c1.2,10,11.9,16.6,24.1,15.1"/>
		<polygon id="XMLID_31_" class="st0" points="44.9,93.1 39.2,85.3 37.3,94.7 		"/>
	</g>
</g>
</svg>
