<?xml version="1.0" encoding="utf-8"?>
<!-- Generator: Adobe Illustrator 19.0.0, SVG Export Plug-In . SVG Version: 6.00 Build 0)  -->
<svg version="1.1" id="Layer_1" xmlns="http://www.w3.org/2000/svg" xmlns:xlink="http://www.w3.org/1999/xlink" x="0px" y="0px"
	 viewBox="0 0 210 210" style="enable-background:new 0 0 210 210;" xml:space="preserve">
<style type="text/css">
	.st0{fill:#F7F7F7;}
	.st1{fill:#EAEAEA;}
	.st2{fill:#264E6E;}
</style>
<g id="XMLID_1_">
	<path class="st0" d="M205.3,135.1c0,2.2-1.8,4-4,4H7.8c-2.2,0-4-1.8-4-4V73.5c0-2.2,1.8-4,4-4h193.5c2.2,0,4,1.8,4,4V135.1z"/>
</g>
<g id="XMLID_8_">
	<path id="XMLID_28_" class="st1" d="M-688.7,742.1c0,2.2-1.8,4-4,4h-193.5c-2.2,0-4-1.8-4-4v-61.6c0-2.2,1.8-4,4-4h193.5
		c2.2,0,4,1.8,4,4V742.1z"/>
</g>
<g id="XMLID_436_">
	<path id="XMLID_437_" class="st2" d="M15.3,92.1h1.5v3.4h3.4v-3.4h1.5v8.5h-1.5v-3.8h-3.4v3.8h-1.5C15.3,100.6,15.3,92.1,15.3,92.1
		z"/>
	<path id="XMLID_439_" class="st2" d="M23.6,92.2c0-0.5,0.4-0.9,0.9-0.9s0.9,0.4,0.9,0.9S25,93,24.5,93C24,93.1,23.6,92.7,23.6,92.2
		z M23.7,94.2h1.5v6.4h-1.5V94.2z"/>
	<path id="XMLID_442_" class="st2" d="M27.2,98.9c0.6,0.4,1.1,0.7,1.8,0.7c0.7,0,1-0.3,1-0.8s-0.7-0.8-1.4-1
		c-0.8-0.3-1.8-0.8-1.8-1.9s0.9-1.9,2.3-1.9c0.9,0,1.6,0.4,2.1,0.8l-0.7,0.9c-0.4-0.3-0.9-0.5-1.4-0.5c-0.6,0-0.9,0.3-0.9,0.7
		c0,0.5,0.6,0.7,1.3,0.9c0.9,0.3,1.8,0.7,1.8,1.9c0,1.1-0.9,2-2.5,2c-0.9,0-1.8-0.4-2.4-0.9L27.2,98.9z"/>
	<path id="XMLID_444_" class="st2" d="M33,95.4h-0.9v-1.1l1-0.1l0.2-1.7h1.2v1.7h1.6v1.2h-1.6v3c0,0.8,0.3,1.1,0.9,1.1
		c0.2,0,0.5-0.1,0.7-0.1l0.3,1.1c-0.4,0.1-0.8,0.2-1.3,0.2c-1.5,0-2-0.9-2-2.3v-3H33z"/>
	<path id="XMLID_446_" class="st2" d="M39.9,94c1.6,0,3,1.2,3,3.4c0,2.1-1.4,3.3-3,3.3s-3-1.2-3-3.3C36.9,95.3,38.3,94,39.9,94z
		 M39.9,99.5c0.9,0,1.5-0.8,1.5-2.1c0-1.3-0.6-2.1-1.5-2.1s-1.5,0.8-1.5,2.1S39,99.5,39.9,99.5z"/>
	<path id="XMLID_449_" class="st2" d="M44.9,100.4L44.9,100.4c-0.3-0.3-0.6-0.6-0.6-1.1s0.3-0.9,0.7-1.2V98
		c-0.4-0.3-0.8-0.9-0.8-1.7c0-1.5,1.2-2.3,2.5-2.3c0.4,0,0.7,0.1,0.9,0.2H50v1.1h-1.2c0.2,0.2,0.4,0.6,0.4,1.1
		c0,1.4-1.1,2.2-2.4,2.2c-0.3,0-0.6-0.1-0.9-0.2c-0.2,0.2-0.3,0.3-0.3,0.6c0,0.4,0.3,0.6,1,0.6h1.1c1.5,0,2.3,0.5,2.3,1.6
		c0,1.3-1.3,2.2-3.4,2.2c-1.5,0-2.7-0.5-2.7-1.7C44,101.2,44.3,100.7,44.9,100.4z M46.9,102.4c1,0,1.7-0.5,1.7-1s-0.4-0.6-1.1-0.6
		h-0.9c-0.4,0-0.6,0-0.9-0.1c-0.3,0.3-0.5,0.5-0.5,0.8C45.3,102.1,45.9,102.4,46.9,102.4z M47.8,96.3c0-0.8-0.5-1.3-1.1-1.3
		s-1.1,0.5-1.1,1.3s0.5,1.3,1.1,1.3C47.4,97.6,47.8,97.2,47.8,96.3z"/>
	<path id="XMLID_453_" class="st2" d="M51.2,94.2h1.2l0.1,1.1h0.1c0.5-0.8,1.1-1.3,1.8-1.3c0.3,0,0.5,0,0.7,0.1l-0.3,1.3
		c-0.2-0.1-0.4-0.1-0.7-0.1c-0.5,0-1.1,0.4-1.5,1.3v3.9h-1.5v-6.3H51.2z"/>
	<path id="XMLID_455_" class="st2" d="M59.2,96.5c0-0.7-0.3-1.2-1.2-1.2c-0.6,0-1.2,0.3-1.8,0.6l-0.5-1c0.7-0.4,1.6-0.8,2.6-0.8
		c1.6,0,2.4,1,2.4,2.8v3.8h-1.2l-0.1-0.7l0,0c-0.6,0.5-1.2,0.9-2,0.9c-1.1,0-1.9-0.8-1.9-1.9C55.4,97.5,56.6,96.8,59.2,96.5z
		 M57.8,99.6c0.5,0,0.9-0.3,1.4-0.7v-1.4c-1.7,0.2-2.3,0.7-2.3,1.3C56.9,99.3,57.3,99.6,57.8,99.6z"/>
	<path id="XMLID_458_" class="st2" d="M62.5,94.2h1.2l0.1,0.9h0.1c0.5-0.6,1.2-1,2-1c0.9,0,1.5,0.4,1.8,1.1c0.6-0.7,1.2-1.1,2.1-1.1
		c1.4,0,2,0.9,2,2.5v4h-1.5v-3.8c0-1.1-0.3-1.4-1-1.4c-0.4,0-0.8,0.3-1.3,0.8v4.5h-1.5v-3.8c0-1.1-0.3-1.4-1-1.4
		c-0.4,0-0.8,0.3-1.3,0.8v4.5h-1.5v-6.6H62.5z"/>
	<path id="XMLID_460_" class="st2" d="M76.2,98.9c0.6,0.4,1.1,0.7,1.8,0.7c0.7,0,1-0.3,1-0.8s-0.7-0.8-1.4-1
		c-0.8-0.3-1.8-0.8-1.8-1.9s0.9-1.9,2.3-1.9c0.9,0,1.6,0.4,2.1,0.8l-0.7,0.9c-0.4-0.3-0.9-0.5-1.4-0.5c-0.6,0-0.9,0.3-0.9,0.7
		c0,0.5,0.6,0.7,1.3,0.9c0.9,0.3,1.8,0.7,1.8,1.9c0,1.1-0.9,2-2.5,2c-0.9,0-1.8-0.4-2.4-0.9L76.2,98.9z"/>
	<path id="XMLID_462_" class="st2" d="M81.7,91.4h1.5v2.4V95c0.5-0.5,1.2-1,2-1c1.4,0,2,0.9,2,2.5v4h-1.5v-3.8c0-1.1-0.3-1.4-1-1.4
		c-0.6,0-0.9,0.3-1.5,0.8v4.5h-1.5V91.4z"/>
	<path id="XMLID_464_" class="st2" d="M91.6,94c1.6,0,3,1.2,3,3.4c0,2.1-1.4,3.3-3,3.3s-3-1.2-3-3.3C88.6,95.3,90,94,91.6,94z
		 M91.6,99.5c0.9,0,1.5-0.8,1.5-2.1c0-1.3-0.6-2.1-1.5-2.1s-1.5,0.8-1.5,2.1S90.7,99.5,91.6,99.5z"/>
	<path id="XMLID_467_" class="st2" d="M95.4,94.2h1.5l0.8,3.3c0.1,0.6,0.2,1.2,0.3,1.8h0.1c0.1-0.6,0.2-1.2,0.4-1.8l0.8-3.3h1.4
		l0.8,3.3c0.2,0.6,0.3,1.2,0.4,1.8h0.1c0.1-0.6,0.2-1.2,0.3-1.8l0.8-3.3h1.4l-1.6,6.4h-1.8l-0.7-3c-0.1-0.6-0.2-1.2-0.4-1.9h-0.1
		c-0.1,0.7-0.2,1.3-0.4,1.9l-0.7,3h-1.7L95.4,94.2z"/>
	<path id="XMLID_469_" class="st2" d="M105.8,98.9c0.6,0.4,1.1,0.7,1.8,0.7c0.7,0,1-0.3,1-0.8s-0.7-0.8-1.4-1
		c-0.8-0.3-1.8-0.8-1.8-1.9s0.9-1.9,2.3-1.9c0.9,0,1.6,0.4,2.1,0.8l-0.7,0.9c-0.4-0.3-0.9-0.5-1.4-0.5c-0.6,0-0.9,0.3-0.9,0.7
		c0,0.5,0.6,0.7,1.3,0.9c0.9,0.3,1.8,0.7,1.8,1.9c0,1.1-0.9,2-2.5,2c-0.9,0-1.8-0.4-2.4-0.9L105.8,98.9z"/>
	<path id="XMLID_471_" class="st2" d="M114.3,95.4h-0.9v-1.1l1-0.1l0.2-1.7h1.2v1.7h1.6v1.2h-1.6v3c0,0.8,0.3,1.1,0.9,1.1
		c0.2,0,0.5-0.1,0.7-0.1l0.3,1.1c-0.4,0.1-0.8,0.2-1.3,0.2c-1.5,0-2-0.9-2-2.3L114.3,95.4L114.3,95.4z"/>
	<path id="XMLID_473_" class="st2" d="M118.7,91.4h1.5v2.4l-0.1,1.2c0.5-0.5,1.2-1,2-1c1.4,0,2,0.9,2,2.5v4h-1.5v-3.8
		c0-1.1-0.3-1.4-1-1.4c-0.6,0-0.9,0.3-1.5,0.8v4.5h-1.5L118.7,91.4L118.7,91.4z"/>
	<path id="XMLID_475_" class="st2" d="M128.5,94c1.7,0,2.6,1.2,2.6,3c0,0.3,0,0.5-0.1,0.7h-4c0.1,1.2,0.9,1.8,1.9,1.8
		c0.5,0,1-0.2,1.5-0.5l0.5,0.9c-0.6,0.4-1.4,0.7-2.2,0.7c-1.8,0-3.1-1.2-3.1-3.3C125.6,95.3,127,94,128.5,94z M129.8,96.8
		c0-1-0.4-1.6-1.3-1.6c-0.8,0-1.4,0.6-1.5,1.6H129.8z"/>
	<path id="XMLID_478_" class="st2" d="M136.7,101.1v2h-1.5v-8.9h1.2l0.1,0.7h0.1c0.5-0.5,1.2-0.8,1.9-0.8c1.6,0,2.5,1.3,2.5,3.2
		c0,2.2-1.3,3.4-2.7,3.4c-0.6,0-1.1-0.3-1.6-0.7V101.1z M138,99.5c0.8,0,1.5-0.8,1.5-2.2c0-1.3-0.4-2-1.4-2c-0.5,0-0.9,0.2-1.4,0.7
		v3C137.2,99.4,137.6,99.5,138,99.5z"/>
	<path id="XMLID_481_" class="st2" d="M145.1,94c1.7,0,2.6,1.2,2.6,3c0,0.3,0,0.5-0.1,0.7h-4.1c0.1,1.2,0.9,1.8,1.9,1.8
		c0.5,0,1-0.2,1.5-0.5l0.5,0.9c-0.6,0.4-1.4,0.7-2.2,0.7c-1.8,0-3.1-1.2-3.1-3.3C142.2,95.3,143.6,94,145.1,94z M146.4,96.8
		c0-1-0.4-1.6-1.3-1.6c-0.8,0-1.4,0.6-1.5,1.6H146.4z"/>
	<path id="XMLID_484_" class="st2" d="M149.2,94.2h1.2l0.1,1.1h0.1c0.5-0.8,1.1-1.3,1.8-1.3c0.3,0,0.5,0,0.7,0.1l-0.3,1.3
		c-0.2-0.1-0.4-0.1-0.7-0.1c-0.5,0-1.1,0.4-1.5,1.3v3.9h-1.5L149.2,94.2L149.2,94.2z"/>
	<path id="XMLID_486_" class="st2" d="M156.7,94c0.8,0,1.4,0.3,1.9,0.7l-0.7,0.9c-0.3-0.3-0.7-0.5-1.1-0.5c-1,0-1.7,0.8-1.7,2.1
		c0,1.3,0.7,2.1,1.7,2.1c0.5,0,1-0.3,1.3-0.5l0.6,0.9c-0.6,0.5-1.4,0.8-2.1,0.8c-1.7,0-3.1-1.2-3.1-3.3C153.5,95.3,155,94,156.7,94z
		"/>
	<path id="XMLID_488_" class="st2" d="M162.1,94c1.7,0,2.6,1.2,2.6,3c0,0.3,0,0.5-0.1,0.7h-4.1c0.1,1.2,0.9,1.8,1.9,1.8
		c0.5,0,1-0.2,1.5-0.5l0.5,0.9c-0.6,0.4-1.4,0.7-2.2,0.7c-1.8,0-3.1-1.2-3.1-3.3C159.2,95.3,160.6,94,162.1,94z M163.4,96.8
		c0-1-0.4-1.6-1.3-1.6c-0.8,0-1.4,0.6-1.5,1.6H163.4z"/>
	<path id="XMLID_491_" class="st2" d="M166.2,94.2h1.2l0.1,0.9h0.1c0.6-0.6,1.2-1,2.1-1c1.4,0,2,0.9,2,2.5v4h-1.5v-3.8
		c0-1.1-0.3-1.4-1-1.4c-0.6,0-0.9,0.3-1.5,0.8v4.5h-1.5L166.2,94.2L166.2,94.2z"/>
	<path id="XMLID_493_" class="st2" d="M173.7,95.4h-0.9v-1.1l1-0.1l0.2-1.7h1.2v1.7h1.6v1.2h-1.6v3c0,0.8,0.3,1.1,0.9,1.1
		c0.2,0,0.5-0.1,0.7-0.1l0.3,1.1c-0.4,0.1-0.8,0.2-1.3,0.2c-1.5,0-2-0.9-2-2.3L173.7,95.4L173.7,95.4z"/>
	<path id="XMLID_495_" class="st2" d="M181.4,96.5c0-0.7-0.3-1.2-1.2-1.2c-0.6,0-1.2,0.3-1.8,0.6l-0.5-1c0.7-0.4,1.6-0.8,2.6-0.8
		c1.6,0,2.4,1,2.4,2.8v3.8h-1.2l-0.1-0.7l0,0c-0.6,0.5-1.2,0.9-2,0.9c-1.1,0-1.9-0.8-1.9-1.9C177.7,97.5,178.8,96.8,181.4,96.5z
		 M180,99.6c0.5,0,0.9-0.3,1.4-0.7v-1.4c-1.7,0.2-2.3,0.7-2.3,1.3C179.1,99.3,179.5,99.6,180,99.6z"/>
	<path id="XMLID_498_" class="st2" d="M185.2,100.4L185.2,100.4c-0.3-0.3-0.6-0.6-0.6-1.1s0.3-0.9,0.7-1.2V98
		c-0.4-0.3-0.8-0.9-0.8-1.7c0-1.5,1.2-2.3,2.5-2.3c0.4,0,0.7,0.1,0.9,0.2h2.3v1.1H189c0.2,0.2,0.4,0.6,0.4,1.1
		c0,1.4-1.1,2.2-2.4,2.2c-0.3,0-0.6-0.1-0.9-0.2c-0.2,0.2-0.3,0.3-0.3,0.6c0,0.4,0.3,0.6,1,0.6h1.1c1.5,0,2.3,0.5,2.3,1.6
		c0,1.3-1.3,2.2-3.4,2.2c-1.5,0-2.7-0.5-2.7-1.7C184.3,101.2,184.6,100.7,185.2,100.4z M187.2,102.4c1,0,1.7-0.5,1.7-1
		s-0.4-0.6-1.1-0.6h-0.9c-0.4,0-0.6,0-0.9-0.1c-0.3,0.3-0.5,0.5-0.5,0.8C185.6,102.1,186.2,102.4,187.2,102.4z M188.1,96.3
		c0-0.8-0.5-1.3-1.1-1.3s-1.1,0.5-1.1,1.3s0.5,1.3,1.1,1.3C187.6,97.6,188.1,97.2,188.1,96.3z"/>
	<path id="XMLID_502_" class="st2" d="M193.8,94c1.7,0,2.6,1.2,2.6,3c0,0.3,0,0.5-0.1,0.7h-4.1c0.1,1.2,0.9,1.8,1.9,1.8
		c0.5,0,1-0.2,1.5-0.5l0.5,0.9c-0.6,0.4-1.4,0.7-2.2,0.7c-1.8,0-3.1-1.2-3.1-3.3C190.9,95.3,192.3,94,193.8,94z M195.2,96.8
		c0-1-0.4-1.6-1.3-1.6c-0.8,0-1.4,0.6-1.5,1.6H195.2z"/>
	<path id="XMLID_505_" class="st2" d="M17.8,109.7c1.6,0,3,1.2,3,3.4c0,2.1-1.4,3.3-3,3.3s-3-1.2-3-3.3
		C14.7,110.9,16.2,109.7,17.8,109.7z M17.8,115.1c0.9,0,1.5-0.8,1.5-2.1c0-1.3-0.6-2.1-1.5-2.1s-1.5,0.8-1.5,2.1
		C16.3,114.3,16.8,115.1,17.8,115.1z"/>
	<path id="XMLID_508_" class="st2" d="M25.5,108.2c-0.2-0.1-0.5-0.2-0.7-0.2c-0.5,0-0.8,0.3-0.8,1.1v0.7h1.2v1.2H24v5.2h-1.5V111
		h-0.9v-1.1l0.9-0.1v-0.7c0-1.3,0.6-2.3,2.1-2.3c0.5,0,0.9,0.1,1.2,0.2L25.5,108.2z"/>
	<path id="XMLID_510_" class="st2" d="M29.1,114.5c0.6,0.4,1.1,0.7,1.8,0.7c0.7,0,1-0.3,1-0.8s-0.7-0.8-1.4-1
		c-0.8-0.3-1.8-0.8-1.8-1.9s0.9-1.9,2.3-1.9c0.9,0,1.6,0.4,2.1,0.8l-0.7,0.9c-0.4-0.3-0.9-0.5-1.4-0.5c-0.6,0-0.9,0.3-0.9,0.7
		c0,0.5,0.6,0.7,1.3,0.9c0.9,0.3,1.8,0.7,1.8,1.9c0,1.1-0.9,2-2.5,2c-0.9,0-1.8-0.4-2.4-0.9L29.1,114.5z"/>
	<path id="XMLID_512_" class="st2" d="M34.5,107.8c0-0.5,0.4-0.9,0.9-0.9s0.9,0.4,0.9,0.9s-0.4,0.8-0.9,0.8
		C34.8,108.7,34.5,108.3,34.5,107.8z M34.6,109.8h1.5v6.4h-1.5V109.8z"/>
	<path id="XMLID_515_" class="st2" d="M38,109.8h1.2l0.1,0.9h0.1c0.5-0.6,1.2-1,2-1c0.9,0,1.5,0.4,1.8,1.1c0.6-0.7,1.2-1.1,2.1-1.1
		c1.4,0,2,0.9,2,2.5v4h-1.5v-3.8c0-1.1-0.3-1.4-1-1.4c-0.4,0-0.8,0.3-1.3,0.8v4.5H42v-3.8c0-1.1-0.3-1.4-1-1.4
		c-0.4,0-0.8,0.3-1.3,0.8v4.5H38V109.8z"/>
	<path id="XMLID_517_" class="st2" d="M48.8,107.8c0-0.5,0.4-0.9,0.9-0.9s0.9,0.4,0.9,0.9s-0.4,0.8-0.9,0.8S48.8,108.3,48.8,107.8z
		 M49,109.8h1.5v6.4H49V109.8z"/>
	<path id="XMLID_520_" class="st2" d="M52.4,107h1.5v7.6c0,0.4,0.2,0.5,0.3,0.5s0.1,0,0.2,0l0.2,1.1c-0.2,0.1-0.4,0.1-0.8,0.1
		c-1.1,0-1.5-0.7-1.5-1.8L52.4,107L52.4,107z"/>
	<path id="XMLID_522_" class="st2" d="M59.4,112.1c0-0.7-0.3-1.2-1.2-1.2c-0.6,0-1.2,0.3-1.8,0.6l-0.5-1c0.7-0.4,1.6-0.8,2.6-0.8
		c1.6,0,2.4,1,2.4,2.8v3.8h-1.2l-0.1-0.7l0,0c-0.6,0.5-1.2,0.9-2,0.9c-1.1,0-1.9-0.8-1.9-1.9C55.6,113.1,56.8,112.4,59.4,112.1z
		 M58,115.2c0.5,0,0.9-0.3,1.4-0.7V113c-1.7,0.2-2.3,0.7-2.3,1.3C57.1,114.9,57.5,115.2,58,115.2z"/>
	<path id="XMLID_525_" class="st2" d="M62.7,109.8H64l0.1,1.1h0.1c0.5-0.8,1.1-1.3,1.8-1.3c0.3,0,0.5,0,0.7,0.1l-0.3,1.3
		c-0.2-0.1-0.4-0.1-0.7-0.1c-0.5,0-1.1,0.4-1.5,1.3v3.9h-1.5C62.7,116.1,62.7,109.8,62.7,109.8z"/>
	<path id="XMLID_527_" class="st2" d="M67.4,107.8c0-0.5,0.4-0.9,0.9-0.9s0.9,0.4,0.9,0.9s-0.4,0.8-0.9,0.8
		C67.8,108.7,67.4,108.3,67.4,107.8z M67.6,109.8h1.5v6.4h-1.5V109.8z"/>
	<path id="XMLID_530_" class="st2" d="M71.2,111h-0.9v-1.1l1-0.1l0.2-1.7h1.2v1.7h1.6v1.2h-1.6v3c0,0.8,0.3,1.1,0.9,1.1
		c0.2,0,0.5-0.1,0.7-0.1l0.3,1.1c-0.4,0.1-0.8,0.2-1.3,0.2c-1.5,0-2-0.9-2-2.3L71.2,111L71.2,111z"/>
	<path id="XMLID_532_" class="st2" d="M76,117.6c0.7,0,1.1-0.5,1.3-1.1l0.1-0.4l-2.5-6.3h1.5l1.1,3.1c0.2,0.6,0.4,1.2,0.6,1.8h0.1
		c0.2-0.6,0.3-1.2,0.5-1.8l1-3.1H81l-2.3,6.7c-0.5,1.4-1.2,2.3-2.6,2.3c-0.4,0-0.6-0.1-0.8-0.1l0.3-1.2
		C75.7,117.6,75.8,117.6,76,117.6z"/>
	<path id="XMLID_534_" class="st2" d="M84.1,109.8h1.5l0.8,3.3c0.1,0.6,0.2,1.2,0.3,1.8h0.1c0.1-0.6,0.2-1.2,0.4-1.8l0.8-3.3h1.4
		l0.8,3.3c0.2,0.6,0.3,1.2,0.4,1.8h0.1c0.1-0.6,0.2-1.2,0.3-1.8l0.8-3.3h1.4l-1.6,6.4h-1.8l-0.7-3c-0.1-0.6-0.2-1.2-0.4-1.9h-0.1
		c-0.1,0.7-0.2,1.3-0.4,1.9l-0.7,3h-1.7L84.1,109.8z"/>
	<path id="XMLID_536_" class="st2" d="M94.3,107.8c0-0.5,0.4-0.9,0.9-0.9s0.9,0.4,0.9,0.9s-0.4,0.8-0.9,0.8S94.3,108.3,94.3,107.8z
		 M94.5,109.8H96v6.4h-1.5V109.8z"/>
	<path id="XMLID_539_" class="st2" d="M98.1,111h-0.9v-1.1l1-0.1l0.2-1.7h1.2v1.7h1.6v1.2h-1.6v3c0,0.8,0.3,1.1,0.9,1.1
		c0.2,0,0.5-0.1,0.7-0.1l0.3,1.1c-0.4,0.1-0.8,0.2-1.3,0.2c-1.5,0-2-0.9-2-2.3L98.1,111L98.1,111z"/>
	<path id="XMLID_541_" class="st2" d="M102.6,107h1.5v2.4l-0.1,1.2c0.5-0.5,1.2-1,2-1c1.4,0,2,0.9,2,2.5v4h-1.5v-3.8
		c0-1.1-0.3-1.4-1-1.4c-0.6,0-0.9,0.3-1.5,0.8v4.5h-1.5L102.6,107L102.6,107z"/>
	<path id="XMLID_543_" class="st2" d="M112.7,111h-0.9v-1.1l1-0.1l0.2-1.7h1.2v1.7h1.6v1.2h-1.6v3c0,0.8,0.3,1.1,0.9,1.1
		c0.2,0,0.5-0.1,0.7-0.1l0.3,1.1c-0.4,0.1-0.8,0.2-1.3,0.2c-1.5,0-2-0.9-2-2.3L112.7,111L112.7,111z"/>
	<path id="XMLID_545_" class="st2" d="M117.2,109.8h1.2l0.1,1.1h0.1c0.5-0.8,1.1-1.3,1.8-1.3c0.3,0,0.5,0,0.7,0.1l-0.3,1.3
		c-0.2-0.1-0.4-0.1-0.7-0.1c-0.5,0-1.1,0.4-1.5,1.3v3.9h-1.5v-6.3H117.2z"/>
	<path id="XMLID_547_" class="st2" d="M125.2,112.1c0-0.7-0.3-1.2-1.2-1.2c-0.6,0-1.2,0.3-1.8,0.6l-0.5-1c0.7-0.4,1.6-0.8,2.6-0.8
		c1.6,0,2.4,1,2.4,2.8v3.8h-1.2l-0.1-0.7l0,0c-0.6,0.5-1.2,0.9-2,0.9c-1.1,0-1.9-0.8-1.9-1.9C121.4,113.1,122.6,112.4,125.2,112.1z
		 M123.8,115.2c0.5,0,0.9-0.3,1.4-0.7V113c-1.7,0.2-2.3,0.7-2.3,1.3C122.9,114.9,123.3,115.2,123.8,115.2z"/>
	<path id="XMLID_550_" class="st2" d="M128.3,107.8c0-0.5,0.4-0.9,0.9-0.9s0.9,0.4,0.9,0.9s-0.4,0.8-0.9,0.8
		C128.7,108.7,128.3,108.3,128.3,107.8z M128.5,109.8h1.5v6.4h-1.5V109.8z"/>
	<path id="XMLID_553_" class="st2" d="M131.9,109.8h1.2l0.1,0.9h0.1c0.6-0.6,1.2-1,2.1-1c1.4,0,2,0.9,2,2.5v4h-1.5v-3.8
		c0-1.1-0.3-1.4-1-1.4c-0.6,0-0.9,0.3-1.5,0.8v4.5h-1.5L131.9,109.8L131.9,109.8z"/>
	<path id="XMLID_555_" class="st2" d="M139,107.8c0-0.5,0.4-0.9,0.9-0.9s0.9,0.4,0.9,0.9s-0.4,0.8-0.9,0.8S139,108.3,139,107.8z
		 M139.2,109.8h1.5v6.4h-1.5V109.8z"/>
	<path id="XMLID_558_" class="st2" d="M142.6,109.8h1.2l0.1,0.9h0.1c0.6-0.6,1.2-1,2.1-1c1.4,0,2,0.9,2,2.5v4h-1.5v-3.8
		c0-1.1-0.3-1.4-1-1.4c-0.6,0-0.9,0.3-1.5,0.8v4.5h-1.5L142.6,109.8L142.6,109.8z"/>
	<path id="XMLID_560_" class="st2" d="M150.4,116L150.4,116c-0.3-0.3-0.6-0.6-0.6-1.1s0.3-0.9,0.7-1.2v-0.1
		c-0.4-0.3-0.8-0.9-0.8-1.7c0-1.5,1.2-2.3,2.5-2.3c0.4,0,0.7,0.1,0.9,0.2h2.3v1.1h-1.2c0.2,0.2,0.4,0.6,0.4,1.1
		c0,1.4-1.1,2.2-2.4,2.2c-0.3,0-0.6-0.1-0.9-0.2c-0.2,0.2-0.3,0.3-0.3,0.6c0,0.4,0.3,0.6,1,0.6h1.1c1.5,0,2.3,0.5,2.3,1.6
		c0,1.3-1.3,2.2-3.4,2.2c-1.5,0-2.7-0.5-2.7-1.7C149.4,116.8,149.8,116.3,150.4,116z M152.3,118c1,0,1.7-0.5,1.7-1s-0.4-0.6-1.1-0.6
		H152c-0.4,0-0.6,0-0.9-0.1c-0.3,0.3-0.5,0.5-0.5,0.8C150.7,117.7,151.3,118,152.3,118z M153.3,111.9c0-0.8-0.5-1.3-1.1-1.3
		s-1.1,0.5-1.1,1.3s0.5,1.3,1.1,1.3C152.8,113.2,153.3,112.8,153.3,111.9z"/>
	<path id="XMLID_564_" class="st2" d="M159.1,107.8c0-0.5,0.4-0.9,0.9-0.9s0.9,0.4,0.9,0.9s-0.4,0.8-0.9,0.8
		S159.1,108.3,159.1,107.8z M159.3,109.8h1.5v6.4h-1.5V109.8z"/>
	<path id="XMLID_567_" class="st2" d="M162.7,109.8h1.2l0.1,0.9h0.1c0.5-0.6,1.2-1,1.9-1c0.9,0,1.5,0.4,1.8,1.1
		c0.6-0.7,1.2-1.1,2.1-1.1c1.4,0,2,0.9,2,2.5v4h-1.5v-3.8c0-1.1-0.3-1.4-1-1.4c-0.4,0-0.8,0.3-1.3,0.8v4.5h-1.5v-3.8
		c0-1.1-0.3-1.4-1-1.4c-0.4,0-0.8,0.3-1.3,0.8v4.5h-1.5v-6.6H162.7z"/>
	<path id="XMLID_569_" class="st2" d="M177.1,112.1c0-0.7-0.3-1.2-1.2-1.2c-0.6,0-1.2,0.3-1.8,0.6l-0.5-1c0.7-0.4,1.6-0.8,2.6-0.8
		c1.6,0,2.4,1,2.4,2.8v3.8h-1.2l-0.1-0.7l0,0c-0.6,0.5-1.2,0.9-2,0.9c-1.1,0-1.9-0.8-1.9-1.9C173.4,113.1,174.5,112.4,177.1,112.1z
		 M175.8,115.2c0.5,0,0.9-0.3,1.4-0.7V113c-1.7,0.2-2.3,0.7-2.3,1.3C174.8,114.9,175.2,115.2,175.8,115.2z"/>
	<path id="XMLID_572_" class="st2" d="M180.9,116L180.9,116c-0.3-0.3-0.6-0.6-0.6-1.1s0.3-0.9,0.7-1.2v-0.1
		c-0.4-0.3-0.8-0.9-0.8-1.7c0-1.5,1.2-2.3,2.5-2.3c0.4,0,0.7,0.1,0.9,0.2h2.3v1.1h-1.2c0.2,0.2,0.4,0.6,0.4,1.1
		c0,1.4-1.1,2.2-2.4,2.2c-0.3,0-0.6-0.1-0.9-0.2c-0.2,0.2-0.3,0.3-0.3,0.6c0,0.4,0.3,0.6,1,0.6h1.1c1.5,0,2.3,0.5,2.3,1.6
		c0,1.3-1.3,2.2-3.4,2.2c-1.5,0-2.7-0.5-2.7-1.7C180,116.8,180.4,116.3,180.9,116z M182.9,118c1,0,1.7-0.5,1.7-1s-0.4-0.6-1.1-0.6
		h-0.9c-0.4,0-0.6,0-0.9-0.1c-0.3,0.3-0.5,0.5-0.5,0.8C181.3,117.7,181.9,118,182.9,118z M183.9,111.9c0-0.8-0.5-1.3-1.1-1.3
		s-1.1,0.5-1.1,1.3s0.5,1.3,1.1,1.3C183.4,113.2,183.9,112.8,183.9,111.9z"/>
	<path id="XMLID_576_" class="st2" d="M189.5,109.7c1.7,0,2.6,1.2,2.6,3c0,0.3,0,0.5-0.1,0.7h-4.1c0.1,1.2,0.9,1.8,1.9,1.8
		c0.5,0,1-0.2,1.5-0.5l0.5,0.9c-0.6,0.4-1.4,0.7-2.2,0.7c-1.8,0-3.1-1.2-3.1-3.3C186.6,110.9,188,109.7,189.5,109.7z M190.9,112.4
		c0-1-0.4-1.6-1.3-1.6c-0.8,0-1.4,0.6-1.5,1.6H190.9z"/>
	<path id="XMLID_579_" class="st2" d="M193.7,114.5c0.6,0.4,1.1,0.7,1.8,0.7s1-0.3,1-0.8s-0.7-0.8-1.4-1c-0.8-0.3-1.8-0.8-1.8-1.9
		s0.9-1.9,2.3-1.9c0.9,0,1.6,0.4,2.1,0.8l-0.7,0.9c-0.4-0.3-0.9-0.5-1.4-0.5c-0.6,0-0.9,0.3-0.9,0.7c0,0.5,0.6,0.7,1.3,0.9
		c0.9,0.3,1.8,0.7,1.8,1.9c0,1.1-0.9,2-2.5,2c-0.9,0-1.8-0.4-2.4-0.9L193.7,114.5z"/>
</g>
</svg>
