<?xml version="1.0" encoding="utf-8"?>
<!-- Generator: Adobe Illustrator 19.0.0, SVG Export Plug-In . SVG Version: 6.00 Build 0)  -->
<svg version="1.1" id="Layer_1" xmlns="http://www.w3.org/2000/svg" xmlns:xlink="http://www.w3.org/1999/xlink" x="0px" y="0px"
	 viewBox="-4 6 200 200" style="enable-background:new -4 6 200 200;" xml:space="preserve">
<style type="text/css">
	.st0{fill:#F7F7F7;}
	.st1{fill:#EAEAEA;}
	.st2{fill:#264E6E;}
</style>
<g id="XMLID_1_">
	<path class="st0" d="M165.1,158c0,2.2-1.8,4-4,4H24.9c-2.2,0-4-1.8-4-4V57.2c0-2.2,1.8-4,4-4h136.1c2.2,0,4,1.8,4,4V158z"/>
</g>
<g id="XMLID_13_">
	<path id="XMLID_30_" class="st1" d="M-720.4,746c0,2.2-1.8,4-4,4h-156.1c-2.2,0-4-1.8-4-4v-78.1c0-2.2,1.8-4,4-4h156.1
		c2.2,0,4,1.8,4,4V746z"/>
</g>
<g id="XMLID_16_">
	<path id="XMLID_17_" class="st2" d="M40.8,78.4h-2.5v-1.3h6.4v1.3h-2.4v7.2h-1.5V78.4z"/>
	<path id="XMLID_19_" class="st2" d="M46,76.5h1.5v2.4l-0.1,1.2c0.5-0.5,1.2-1,2-1c1.4,0,2,0.9,2,2.5v4H50v-3.8c0-1.1-0.3-1.4-1-1.4
		c-0.6,0-0.9,0.3-1.5,0.8v4.5H46V76.5z"/>
	<path id="XMLID_21_" class="st2" d="M53.1,77.3c0-0.5,0.4-0.9,0.9-0.9s0.9,0.4,0.9,0.9s-0.4,0.8-0.9,0.8S53.1,77.8,53.1,77.3z
		 M53.3,79.3h1.5v6.4h-1.5V79.3z"/>
	<path id="XMLID_29_" class="st2" d="M56.7,84c0.6,0.4,1.1,0.7,1.8,0.7s1-0.3,1-0.8s-0.7-0.8-1.4-1c-0.8-0.3-1.8-0.8-1.8-1.9
		s0.9-1.9,2.3-1.9c0.9,0,1.6,0.4,2.1,0.8L60,80.8c-0.4-0.3-0.9-0.5-1.4-0.5c-0.6,0-0.9,0.3-0.9,0.7c0,0.5,0.6,0.7,1.3,0.9
		c0.9,0.3,1.8,0.7,1.8,1.9c0,1.1-0.9,2-2.5,2c-0.9,0-1.8-0.4-2.4-0.9L56.7,84z"/>
	<path id="XMLID_32_" class="st2" d="M64.3,79.3h1.5l0.8,3.3c0.1,0.6,0.2,1.2,0.3,1.8H67c0.1-0.6,0.2-1.2,0.4-1.8l0.8-3.3h1.4
		l0.8,3.3c0.2,0.6,0.3,1.2,0.4,1.8h0.1c0.1-0.6,0.2-1.2,0.3-1.8l0.8-3.3h1.4l-1.6,6.4H70l-0.7-3c-0.1-0.6-0.2-1.2-0.4-1.9h-0.1
		c-0.1,0.7-0.2,1.3-0.4,1.9l-0.7,3H66L64.3,79.3z"/>
	<path id="XMLID_34_" class="st2" d="M74.5,77.3c0-0.5,0.4-0.9,0.9-0.9s0.9,0.4,0.9,0.9s-0.4,0.8-0.9,0.8S74.5,77.8,74.5,77.3z
		 M74.7,79.3h1.5v6.4h-1.5V79.3z"/>
	<path id="XMLID_37_" class="st2" d="M80.4,79.1c0.7,0,1.2,0.3,1.7,0.7l-0.1-1v-2.3h1.5v9.2h-1.2L82.2,85h-0.1
		c-0.5,0.5-1.1,0.8-1.8,0.8c-1.6,0-2.6-1.2-2.6-3.3C77.7,80.4,79,79.1,80.4,79.1z M80.7,84.6c0.5,0,0.9-0.2,1.3-0.7v-3
		c-0.4-0.4-0.9-0.5-1.3-0.5c-0.8,0-1.5,0.8-1.5,2.1C79.2,83.8,79.8,84.6,80.7,84.6z"/>
	<path id="XMLID_40_" class="st2" d="M85.9,85.4L85.9,85.4c-0.3-0.3-0.6-0.6-0.6-1.1s0.3-0.9,0.7-1.2V83c-0.4-0.3-0.8-0.9-0.8-1.7
		c0-1.5,1.2-2.3,2.5-2.3c0.4,0,0.7,0.1,0.9,0.2h2.3v1.1h-1.2c0.2,0.2,0.4,0.6,0.4,1.1c0,1.4-1.1,2.2-2.4,2.2c-0.3,0-0.6-0.1-0.9-0.2
		c-0.2,0.2-0.3,0.3-0.3,0.6c0,0.4,0.3,0.6,1,0.6h1.1c1.5,0,2.3,0.5,2.3,1.6c0,1.3-1.3,2.2-3.4,2.2c-1.5,0-2.7-0.5-2.7-1.7
		C85,86.3,85.3,85.8,85.9,85.4z M87.9,87.5c1,0,1.7-0.5,1.7-1s-0.4-0.6-1.1-0.6h-0.9c-0.4,0-0.6,0-0.9-0.1c-0.3,0.3-0.5,0.5-0.5,0.8
		C86.2,87.2,86.8,87.5,87.9,87.5z M88.8,81.4c0-0.8-0.5-1.3-1.1-1.3s-1.1,0.5-1.1,1.3s0.5,1.3,1.1,1.3
		C88.3,82.7,88.8,82.2,88.8,81.4z"/>
	<path id="XMLID_44_" class="st2" d="M94.5,79.1c1.7,0,2.6,1.2,2.6,3c0,0.3,0,0.5-0.1,0.7h-4c0.1,1.2,0.9,1.8,1.9,1.8
		c0.5,0,1-0.2,1.5-0.5l0.5,0.9c-0.6,0.4-1.4,0.7-2.2,0.7c-1.8,0-3.1-1.2-3.1-3.3C91.5,80.4,93,79.1,94.5,79.1z M95.8,81.9
		c0-1-0.4-1.6-1.3-1.6c-0.8,0-1.4,0.6-1.5,1.6H95.8z"/>
	<path id="XMLID_47_" class="st2" d="M98.6,80.5h-0.9v-1.1l1-0.1l0.2-1.7h1.2v1.7h1.6v1.2h-1.6v3c0,0.8,0.3,1.1,0.9,1.1
		c0.2,0,0.5-0.1,0.7-0.1l0.3,1.1c-0.4,0.1-0.8,0.2-1.3,0.2c-1.5,0-2-0.9-2-2.3L98.6,80.5L98.6,80.5z"/>
	<path id="XMLID_49_" class="st2" d="M108.5,79.1c0.8,0,1.4,0.3,1.9,0.7l-0.7,0.9c-0.3-0.3-0.7-0.5-1.1-0.5c-1,0-1.7,0.8-1.7,2.1
		c0,1.3,0.7,2.1,1.7,2.1c0.5,0,1-0.3,1.3-0.5l0.6,0.9c-0.6,0.5-1.4,0.8-2.1,0.8c-1.7,0-3.1-1.2-3.1-3.3
		C105.3,80.3,106.8,79.1,108.5,79.1z"/>
	<path id="XMLID_51_" class="st2" d="M114,79.1c1.6,0,3,1.2,3,3.4c0,2.1-1.4,3.3-3,3.3s-3-1.2-3-3.3C111,80.3,112.4,79.1,114,79.1z
		 M114,84.6c0.9,0,1.5-0.8,1.5-2.1c0-1.3-0.6-2.1-1.5-2.1s-1.5,0.8-1.5,2.1C112.5,83.7,113.1,84.6,114,84.6z"/>
	<path id="XMLID_54_" class="st2" d="M118.5,79.3h1.2l0.1,0.9h0.1c0.6-0.6,1.2-1,2.1-1c1.4,0,2,0.9,2,2.5v4h-1.5v-3.8
		c0-1.1-0.3-1.4-1-1.4c-0.6,0-0.9,0.3-1.5,0.8v4.5h-1.5C118.5,85.8,118.5,79.3,118.5,79.3z"/>
	<path id="XMLID_56_" class="st2" d="M126,80.5h-0.9v-1.1l1-0.1l0.2-1.7h1.2v1.7h1.6v1.2h-1.6v3c0,0.8,0.3,1.1,0.9,1.1
		c0.2,0,0.5-0.1,0.7-0.1l0.3,1.1c-0.4,0.1-0.8,0.2-1.3,0.2c-1.5,0-2-0.9-2-2.3L126,80.5L126,80.5z"/>
	<path id="XMLID_58_" class="st2" d="M133.8,81.6c0-0.7-0.3-1.2-1.2-1.2c-0.6,0-1.2,0.3-1.8,0.6l-0.5-1c0.7-0.4,1.6-0.8,2.6-0.8
		c1.6,0,2.4,1,2.4,2.8v3.8h-1.2l-0.1-0.7l0,0c-0.6,0.5-1.2,0.9-2,0.9c-1.1,0-1.9-0.8-1.9-1.9C130,82.6,131.2,81.9,133.8,81.6z
		 M132.4,84.6c0.5,0,0.9-0.3,1.4-0.7v-1.4c-1.7,0.2-2.3,0.7-2.3,1.3C131.5,84.4,131.9,84.6,132.4,84.6z"/>
	<path id="XMLID_61_" class="st2" d="M136.9,77.3c0-0.5,0.4-0.9,0.9-0.9s0.9,0.4,0.9,0.9s-0.4,0.8-0.9,0.8S136.9,77.8,136.9,77.3z
		 M137.1,79.3h1.5v6.4h-1.5V79.3z"/>
	<path id="XMLID_64_" class="st2" d="M140.5,79.3h1.2l0.1,0.9h0.1c0.6-0.6,1.2-1,2.1-1c1.4,0,2,0.9,2,2.5v4h-1.5v-3.8
		c0-1.1-0.3-1.4-1-1.4c-0.6,0-0.9,0.3-1.5,0.8v4.5h-1.5L140.5,79.3L140.5,79.3z"/>
	<path id="XMLID_66_" class="st2" d="M147.9,84c0.6,0.4,1.1,0.7,1.8,0.7s1-0.3,1-0.8s-0.7-0.8-1.4-1c-0.8-0.3-1.8-0.8-1.8-1.9
		s0.9-1.9,2.3-1.9c0.9,0,1.6,0.4,2.1,0.8l-0.7,0.9c-0.4-0.3-0.9-0.5-1.4-0.5c-0.6,0-0.9,0.3-0.9,0.7c0,0.5,0.6,0.7,1.3,0.9
		c0.9,0.3,1.8,0.7,1.8,1.9c0,1.1-0.9,2-2.5,2c-0.9,0-1.8-0.4-2.4-0.9L147.9,84z"/>
	<path id="XMLID_68_" class="st2" d="M38.8,92.9c0-0.5,0.4-0.9,0.9-0.9s0.9,0.4,0.9,0.9s-0.4,0.8-0.9,0.8
		C39.2,93.8,38.8,93.4,38.8,92.9z M39,94.9h1.5v6.4H39V94.9z"/>
	<path id="XMLID_71_" class="st2" d="M42.4,94.9h1.2l0.1,0.9h0.1c0.6-0.6,1.2-1,2.1-1c1.4,0,2,0.9,2,2.5v4h-1.5v-3.8
		c0-1.1-0.3-1.4-1-1.4c-0.6,0-0.9,0.3-1.5,0.8v4.5h-1.5C42.4,101.4,42.4,94.9,42.4,94.9z"/>
	<path id="XMLID_73_" class="st2" d="M52.9,93.3c-0.2-0.1-0.5-0.2-0.7-0.2c-0.5,0-0.8,0.3-0.8,1.1v0.7h1.2v1.2h-1.2v5.2h-1.5v-5.2
		H49V95l0.9-0.1v-0.7c0-1.3,0.6-2.3,2.1-2.3c0.5,0,0.9,0.1,1.2,0.2L52.9,93.3z"/>
	<path id="XMLID_75_" class="st2" d="M56.2,94.7c1.6,0,3,1.2,3,3.4c0,2.1-1.4,3.3-3,3.3s-3-1.2-3-3.3C53.2,95.9,54.7,94.7,56.2,94.7
		z M56.2,100.2c0.9,0,1.5-0.8,1.5-2.1c0-1.3-0.6-2.1-1.5-2.1s-1.5,0.8-1.5,2.1C54.8,99.3,55.3,100.2,56.2,100.2z"/>
	<path id="XMLID_78_" class="st2" d="M60.8,94.9H62l0.1,1.1h0.1c0.5-0.8,1.1-1.3,1.8-1.3c0.3,0,0.5,0,0.7,0.1l-0.3,1.3
		c-0.2,0-0.4-0.1-0.6-0.1c-0.5,0-1.1,0.4-1.5,1.3v3.9h-1.5V94.9z"/>
	<path id="XMLID_80_" class="st2" d="M65.6,94.9h1.2l0.1,0.9H67c0.5-0.6,1.2-1,2-1c0.9,0,1.5,0.4,1.8,1.1c0.6-0.7,1.2-1.1,2.1-1.1
		c1.4,0,2,0.9,2,2.5v4h-1.5v-3.8c0-1.1-0.3-1.4-1-1.4c-0.4,0-0.8,0.3-1.3,0.8v4.5h-1.5v-3.8c0-1.1-0.3-1.4-1-1.4
		c-0.4,0-0.8,0.3-1.3,0.8v4.5h-1.5v-6.6H65.6z"/>
	<path id="XMLID_82_" class="st2" d="M80.1,97.2c0-0.7-0.3-1.2-1.2-1.2c-0.6,0-1.2,0.3-1.8,0.6l-0.5-1c0.7-0.4,1.6-0.8,2.6-0.8
		c1.6,0,2.4,1,2.4,2.8v3.8h-1.2l-0.1-0.7l0,0c-0.6,0.5-1.2,0.9-2,0.9c-1.1,0-1.9-0.8-1.9-1.9C76.3,98.2,77.5,97.5,80.1,97.2z
		 M78.7,100.2c0.5,0,0.9-0.3,1.4-0.7v-1.4c-1.7,0.2-2.3,0.7-2.3,1.3C77.8,100,78.1,100.2,78.7,100.2z"/>
	<path id="XMLID_85_" class="st2" d="M83.6,96.1h-0.9V95l1-0.1l0.2-1.7h1.2v1.7h1.6v1.2h-1.6v3c0,0.8,0.3,1.1,0.9,1.1
		c0.2,0,0.5-0.1,0.7-0.1l0.3,1.1c-0.4,0.1-0.8,0.2-1.3,0.2c-1.5,0-2-0.9-2-2.3L83.6,96.1L83.6,96.1z"/>
	<path id="XMLID_87_" class="st2" d="M87.9,92.9c0-0.5,0.4-0.9,0.9-0.9s0.9,0.4,0.9,0.9s-0.4,0.8-0.9,0.8
		C88.3,93.8,87.9,93.4,87.9,92.9z M88.1,94.9h1.5v6.4h-1.5V94.9z"/>
	<path id="XMLID_90_" class="st2" d="M94.1,94.7c1.6,0,3,1.2,3,3.4c0,2.1-1.4,3.3-3,3.3s-3-1.2-3-3.3C91.1,95.9,92.5,94.7,94.1,94.7
		z M94.1,100.2c0.9,0,1.5-0.8,1.5-2.1c0-1.3-0.6-2.1-1.5-2.1s-1.5,0.8-1.5,2.1C92.6,99.3,93.2,100.2,94.1,100.2z"/>
	<path id="XMLID_93_" class="st2" d="M98.6,94.9h1.2l0.1,0.9h0.1c0.6-0.6,1.2-1,2.1-1c1.4,0,2,0.9,2,2.5v4h-1.5v-3.8
		c0-1.1-0.3-1.4-1-1.4c-0.6,0-0.9,0.3-1.5,0.8v4.5h-1.5C98.6,101.4,98.6,94.9,98.6,94.9z"/>
	<path id="XMLID_95_" class="st2" d="M112,97.2c0-0.7-0.3-1.2-1.2-1.2c-0.6,0-1.2,0.3-1.8,0.6l-0.5-1c0.7-0.4,1.6-0.8,2.6-0.8
		c1.6,0,2.4,1,2.4,2.8v3.8h-1.2l-0.1-0.7l0,0c-0.6,0.5-1.2,0.9-2,0.9c-1.1,0-1.9-0.8-1.9-1.9C108.3,98.2,109.4,97.5,112,97.2z
		 M110.7,100.2c0.5,0,0.9-0.3,1.4-0.7v-1.4c-1.7,0.2-2.3,0.7-2.3,1.3C109.7,100,110.1,100.2,110.7,100.2z"/>
	<path id="XMLID_98_" class="st2" d="M115.4,92.1h1.5v2.4v1.1c0.5-0.5,1.2-0.8,1.8-0.8c1.6,0,2.5,1.3,2.5,3.2c0,2.2-1.3,3.5-2.7,3.5
		c-0.6,0-1.2-0.3-1.7-0.8l0,0l-0.1,0.6h-1.2v-9.2H115.4z M118.1,100.2c0.8,0,1.5-0.8,1.5-2.2c0-1.3-0.4-2-1.4-2
		c-0.5,0-0.9,0.2-1.4,0.7v3C117.3,100,117.8,100.2,118.1,100.2z"/>
	<path id="XMLID_101_" class="st2" d="M125.3,94.7c1.6,0,3,1.2,3,3.4c0,2.1-1.4,3.3-3,3.3c-1.6,0-3-1.2-3-3.3
		C122.3,95.9,123.7,94.7,125.3,94.7z M125.3,100.2c0.9,0,1.5-0.8,1.5-2.1c0-1.3-0.6-2.1-1.5-2.1s-1.5,0.8-1.5,2.1
		C123.8,99.3,124.4,100.2,125.3,100.2z"/>
	<path id="XMLID_104_" class="st2" d="M129.8,94.9h1.5v3.8c0,1.1,0.3,1.4,1,1.4c0.6,0,0.9-0.3,1.4-0.9v-4.4h1.5v6.4H134l-0.1-0.9
		l0,0c-0.6,0.7-1.2,1.1-2.1,1.1c-1.4,0-2-0.9-2-2.5L129.8,94.9L129.8,94.9z"/>
	<path id="XMLID_106_" class="st2" d="M137.3,96.1h-0.9V95l1-0.1l0.2-1.7h1.2v1.7h1.6v1.2h-1.6v3c0,0.8,0.3,1.1,0.9,1.1
		c0.2,0,0.5-0.1,0.7-0.1l0.3,1.1c-0.4,0.1-0.8,0.2-1.3,0.2c-1.5,0-2-0.9-2-2.3L137.3,96.1L137.3,96.1z"/>
	<path id="XMLID_108_" class="st2" d="M39.2,111.7h-0.9v-1.1l1-0.1l0.2-1.7h1.2v1.7h1.6v1.2h-1.6v3c0,0.8,0.3,1.1,0.9,1.1
		c0.2,0,0.5-0.1,0.7-0.1l0.3,1.1c-0.4,0.1-0.8,0.2-1.3,0.2c-1.5,0-2-0.9-2-2.3v-3H39.2z"/>
	<path id="XMLID_110_" class="st2" d="M43.7,110.5h1.2l0.1,1.1l0,0c0.5-0.8,1.1-1.3,1.8-1.3c0.3,0,0.5,0,0.7,0.1l-0.3,1.3
		c-0.2-0.1-0.4-0.1-0.7-0.1c-0.5,0-1.1,0.4-1.5,1.3v3.9h-1.5v-6.3H43.7z"/>
	<path id="XMLID_112_" class="st2" d="M51.6,112.8c0-0.7-0.3-1.2-1.2-1.2c-0.6,0-1.2,0.3-1.8,0.6l-0.5-1c0.7-0.4,1.6-0.8,2.6-0.8
		c1.6,0,2.4,1,2.4,2.8v3.8h-1.2l-0.1-0.7l0,0c-0.6,0.5-1.2,0.9-2,0.9c-1.1,0-1.9-0.8-1.9-1.9C47.9,113.8,49,113.1,51.6,112.8z
		 M50.2,115.8c0.5,0,0.9-0.3,1.4-0.7v-1.4c-1.7,0.2-2.3,0.7-2.3,1.3C49.3,115.6,49.7,115.8,50.2,115.8z"/>
	<path id="XMLID_115_" class="st2" d="M54.8,108.5c0-0.5,0.4-0.9,0.9-0.9s0.9,0.4,0.9,0.9s-0.4,0.8-0.9,0.8S54.8,109,54.8,108.5z
		 M54.9,110.5h1.5v6.4h-1.5V110.5z"/>
	<path id="XMLID_118_" class="st2" d="M58.4,110.5h1.2l0.1,0.9h0.1c0.6-0.6,1.2-1,2.1-1c1.4,0,2,0.9,2,2.5v4h-1.5V113
		c0-1.1-0.3-1.4-1-1.4c-0.6,0-0.9,0.3-1.5,0.8v4.5h-1.5V110.5z"/>
	<path id="XMLID_120_" class="st2" d="M65.5,108.5c0-0.5,0.4-0.9,0.9-0.9s0.9,0.4,0.9,0.9s-0.4,0.8-0.9,0.8
		C65.9,109.4,65.5,109,65.5,108.5z M65.6,110.5h1.5v6.4h-1.5V110.5z"/>
	<path id="XMLID_123_" class="st2" d="M69,110.5h1.2l0.1,0.9h0.1c0.6-0.6,1.2-1,2.1-1c1.4,0,2,0.9,2,2.5v4H73V113
		c0-1.1-0.3-1.4-1-1.4c-0.6,0-0.9,0.3-1.5,0.8v4.5H69V110.5z"/>
	<path id="XMLID_125_" class="st2" d="M76.8,116.6L76.8,116.6c-0.3-0.3-0.6-0.6-0.6-1.1s0.3-0.9,0.7-1.2v-0.1
		c-0.4-0.3-0.8-0.9-0.8-1.7c0-1.5,1.2-2.3,2.5-2.3c0.4,0,0.7,0.1,0.9,0.2h2.3v1.1h-1.2c0.2,0.2,0.4,0.6,0.4,1.1
		c0,1.4-1.1,2.2-2.4,2.2c-0.3,0-0.6-0.1-0.9-0.2c-0.2,0.2-0.3,0.3-0.3,0.6c0,0.4,0.3,0.6,1,0.6h1.1c1.5,0,2.3,0.5,2.3,1.6
		c0,1.3-1.3,2.2-3.4,2.2c-1.5,0-2.7-0.5-2.7-1.7C75.9,117.5,76.2,117,76.8,116.6z M78.8,118.7c1,0,1.7-0.5,1.7-1s-0.4-0.6-1.1-0.6
		h-0.9c-0.4,0-0.6,0-0.9-0.1c-0.3,0.3-0.5,0.5-0.5,0.8C77.1,118.4,77.8,118.7,78.8,118.7z M79.7,112.6c0-0.8-0.5-1.3-1.1-1.3
		s-1.1,0.5-1.1,1.3s0.5,1.3,1.1,1.3S79.7,113.4,79.7,112.6z"/>
	<path id="XMLID_129_" class="st2" d="M85.8,115.2c0.6,0.4,1.1,0.7,1.8,0.7c0.7,0,1-0.3,1-0.8s-0.7-0.8-1.4-1
		c-0.8-0.3-1.8-0.8-1.8-1.9s0.9-1.9,2.3-1.9c0.9,0,1.6,0.4,2.1,0.8l-0.7,0.9c-0.4-0.3-0.9-0.5-1.4-0.5c-0.6,0-0.9,0.3-0.9,0.7
		c0,0.5,0.6,0.7,1.3,0.9c0.9,0.3,1.8,0.7,1.8,1.9c0,1.1-0.9,2-2.5,2c-0.9,0-1.8-0.4-2.4-0.9L85.8,115.2z"/>
	<path id="XMLID_131_" class="st2" d="M93.9,110.3c1.7,0,2.6,1.2,2.6,3c0,0.3,0,0.5-0.1,0.7h-4.1c0.1,1.2,0.9,1.8,1.9,1.8
		c0.5,0,1-0.2,1.5-0.5l0.5,0.9c-0.6,0.4-1.4,0.7-2.2,0.7c-1.8,0-3.1-1.2-3.1-3.3C90.9,111.6,92.4,110.3,93.9,110.3z M95.2,113.1
		c0-1-0.4-1.6-1.3-1.6c-0.8,0-1.4,0.6-1.5,1.6H95.2z"/>
	<path id="XMLID_134_" class="st2" d="M98,111.7h-1v-1.1l1-0.1l0.2-1.7h1.2v1.7h1.6v1.2h-1.6v3c0,0.8,0.3,1.1,0.9,1.1
		c0.2,0,0.5-0.1,0.7-0.1l0.3,1.1c-0.4,0.1-0.8,0.2-1.3,0.2c-1.5,0-2-0.9-2-2.3C98,114.7,98,111.7,98,111.7z"/>
	<path id="XMLID_136_" class="st2" d="M107.7,110.3c1.6,0,3,1.2,3,3.4c0,2.1-1.4,3.3-3,3.3s-3-1.2-3-3.3
		C104.7,111.5,106.1,110.3,107.7,110.3z M107.7,115.8c0.9,0,1.5-0.8,1.5-2.1c0-1.3-0.6-2.1-1.5-2.1s-1.5,0.8-1.5,2.1
		C106.2,114.9,106.8,115.8,107.7,115.8z"/>
	<path id="XMLID_139_" class="st2" d="M112.2,110.5h1.2l0.1,0.9h0.1c0.6-0.6,1.2-1,2.1-1c1.4,0,2,0.9,2,2.5v4h-1.5V113
		c0-1.1-0.3-1.4-1-1.4c-0.6,0-0.9,0.3-1.5,0.8v4.5h-1.5C112.2,116.9,112.2,110.5,112.2,110.5z"/>
	<path id="XMLID_141_" class="st2" d="M121.5,110.5h1.5l0.8,3.3c0.1,0.6,0.2,1.2,0.3,1.8h0.1c0.1-0.6,0.2-1.2,0.4-1.8l0.8-3.3h1.4
		l0.8,3.3c0.2,0.6,0.3,1.2,0.4,1.8h0.1c0.1-0.6,0.2-1.2,0.3-1.8l0.8-3.3h1.4l-1.6,6.4h-1.8l-0.7-3c-0.1-0.6-0.2-1.2-0.4-1.9H126
		c-0.1,0.7-0.2,1.3-0.4,1.9l-0.7,3h-1.7L121.5,110.5z"/>
	<path id="XMLID_143_" class="st2" d="M131.9,107.7h1.5v2.4l-0.1,1.2c0.5-0.5,1.2-1,2-1c1.4,0,2,0.9,2,2.5v4h-1.5V113
		c0-1.1-0.3-1.4-1-1.4c-0.6,0-0.9,0.3-1.5,0.8v4.5h-1.5v-9.2H131.9z"/>
	<path id="XMLID_145_" class="st2" d="M139,108.5c0-0.5,0.4-0.9,0.9-0.9s0.9,0.4,0.9,0.9s-0.4,0.8-0.9,0.8
		C139.4,109.4,139,109,139,108.5z M139.1,110.5h1.5v6.4h-1.5V110.5z"/>
	<path id="XMLID_148_" class="st2" d="M145.3,110.3c0.8,0,1.4,0.3,1.9,0.7l-0.7,0.9c-0.3-0.3-0.7-0.5-1.1-0.5c-1,0-1.7,0.8-1.7,2.1
		c0,1.3,0.7,2.1,1.7,2.1c0.5,0,1-0.3,1.3-0.5l0.6,0.9c-0.6,0.5-1.4,0.8-2.1,0.8c-1.7,0-3.1-1.2-3.1-3.3
		C142.1,111.5,143.6,110.3,145.3,110.3z"/>
	<path id="XMLID_150_" class="st2" d="M148.6,107.7h1.5v2.4l-0.1,1.2c0.5-0.5,1.2-1,2-1c1.4,0,2,0.9,2,2.5v4h-1.5V113
		c0-1.1-0.3-1.4-1-1.4c-0.6,0-0.9,0.3-1.5,0.8v4.5h-1.5v-9.2H148.6z"/>
	<path id="XMLID_152_" class="st2" d="M39,126.1h1.2l0.1,0.9h0.1c0.6-0.6,1.2-1,2.1-1c1.4,0,2,0.9,2,2.5v4H43v-3.8
		c0-1.1-0.3-1.4-1-1.4c-0.6,0-0.9,0.3-1.5,0.8v4.5H39V126.1z"/>
	<path id="XMLID_154_" class="st2" d="M48.8,125.9c1.7,0,2.6,1.2,2.6,3c0,0.3,0,0.5-0.1,0.7h-4.1c0.1,1.2,0.9,1.8,1.9,1.8
		c0.5,0,1-0.2,1.5-0.5l0.5,0.9c-0.6,0.4-1.4,0.7-2.2,0.7c-1.8,0-3.1-1.2-3.1-3.3C45.8,127.2,47.3,125.9,48.8,125.9z M50.1,128.7
		c0-1-0.4-1.6-1.3-1.6c-0.8,0-1.4,0.6-1.5,1.6H50.1z"/>
	<path id="XMLID_157_" class="st2" d="M52.8,127.3h-0.9v-1.1l1-0.1l0.2-1.7h1.2v1.7H56v1.2h-1.6v3c0,0.8,0.3,1.1,0.9,1.1
		c0.2,0,0.5-0.1,0.7-0.1l0.3,1.1c-0.4,0.1-0.8,0.2-1.3,0.2c-1.5,0-2-0.9-2-2.3v-3H52.8z"/>
	<path id="XMLID_159_" class="st2" d="M59.3,126.1h1.5l0.8,3.3c0.1,0.6,0.2,1.2,0.3,1.8H62c0.1-0.6,0.2-1.2,0.4-1.8l0.8-3.3h1.4
		l0.8,3.3c0.2,0.6,0.3,1.2,0.4,1.8h0.1c0.1-0.6,0.2-1.2,0.3-1.8l0.8-3.3h1.4l-1.6,6.4H65l-0.7-3c-0.1-0.6-0.2-1.2-0.4-1.9h-0.1
		c-0.1,0.7-0.2,1.3-0.4,1.9l-0.7,3H61L59.3,126.1z"/>
	<path id="XMLID_161_" class="st2" d="M69.5,124.1c0-0.5,0.4-0.9,0.9-0.9s0.9,0.4,0.9,0.9s-0.4,0.8-0.9,0.8S69.5,124.6,69.5,124.1z
		 M69.7,126.1h1.5v6.4h-1.5V126.1z"/>
	<path id="XMLID_164_" class="st2" d="M73.1,123.3h1.5v7.6c0,0.4,0.2,0.5,0.3,0.5c0.1,0,0.1,0,0.2,0l0.2,1.1
		c-0.2,0.1-0.4,0.1-0.8,0.1c-1.1,0-1.5-0.7-1.5-1.8v-7.5H73.1z"/>
	<path id="XMLID_166_" class="st2" d="M76.6,123.3h1.5v7.6c0,0.4,0.2,0.5,0.3,0.5c0.1,0,0.1,0,0.2,0l0.2,1.1
		c-0.2,0.1-0.4,0.1-0.8,0.1c-1.1,0-1.5-0.7-1.5-1.8v-7.5H76.6z"/>
	<path id="XMLID_168_" class="st2" d="M82.8,123.3h1.5v2.4v1.1c0.5-0.5,1.2-0.8,1.8-0.8c1.6,0,2.5,1.3,2.5,3.2
		c0,2.2-1.3,3.5-2.7,3.5c-0.6,0-1.2-0.3-1.7-0.8l0,0l-0.1,0.7h-1.2v-9.3H82.8z M85.6,131.4c0.8,0,1.5-0.8,1.5-2.2c0-1.3-0.4-2-1.4-2
		c-0.5,0-0.9,0.2-1.4,0.7v3C84.8,131.2,85.2,131.4,85.6,131.4z"/>
	<path id="XMLID_171_" class="st2" d="M92.7,125.9c1.7,0,2.6,1.2,2.6,3c0,0.3,0,0.5-0.1,0.7h-4.1c0.1,1.2,0.9,1.8,1.9,1.8
		c0.5,0,1-0.2,1.5-0.5l0.5,0.9c-0.6,0.4-1.4,0.7-2.2,0.7c-1.8,0-3.1-1.2-3.1-3.3C89.7,127.2,91.2,125.9,92.7,125.9z M94,128.7
		c0-1-0.4-1.6-1.3-1.6c-0.8,0-1.4,0.6-1.5,1.6H94z"/>
	<path id="XMLID_174_" class="st2" d="M99.6,127.3h-0.9v-1.1l1-0.1l0.2-1.7h1.2v1.7h1.6v1.2h-1.6v3c0,0.8,0.3,1.1,0.9,1.1
		c0.2,0,0.5-0.1,0.7-0.1l0.3,1.1c-0.4,0.1-0.8,0.2-1.3,0.2c-1.5,0-2-0.9-2-2.3L99.6,127.3L99.6,127.3z"/>
	<path id="XMLID_176_" class="st2" d="M104.1,126.1h1.2l0.1,1.1h0.1c0.5-0.8,1.1-1.3,1.8-1.3c0.3,0,0.5,0,0.7,0.1l-0.3,1.3
		c-0.2-0.1-0.4-0.1-0.7-0.1c-0.5,0-1.1,0.4-1.5,1.3v3.9H104v-6.3H104.1z"/>
	<path id="XMLID_178_" class="st2" d="M112.1,128.4c0-0.7-0.3-1.2-1.2-1.2c-0.6,0-1.2,0.3-1.8,0.6l-0.5-1c0.7-0.4,1.6-0.8,2.6-0.8
		c1.6,0,2.4,1,2.4,2.8v3.8h-1.2l-0.1-0.7l0,0c-0.6,0.5-1.2,0.9-2,0.9c-1.1,0-1.9-0.8-1.9-1.9C108.3,129.4,109.5,128.7,112.1,128.4z
		 M110.7,131.4c0.5,0,0.9-0.3,1.4-0.7v-1.4c-1.7,0.2-2.3,0.7-2.3,1.3C109.8,131.2,110.2,131.4,110.7,131.4z"/>
	<path id="XMLID_181_" class="st2" d="M115.2,124.1c0-0.5,0.4-0.9,0.9-0.9s0.9,0.4,0.9,0.9s-0.4,0.8-0.9,0.8
		C115.6,125,115.2,124.6,115.2,124.1z M115.4,126.1h1.5v6.4h-1.5V126.1z"/>
	<path id="XMLID_184_" class="st2" d="M118.8,126.1h1.2l0.1,0.9h0.1c0.6-0.6,1.2-1,2.1-1c1.4,0,2,0.9,2,2.5v4h-1.5v-3.8
		c0-1.1-0.3-1.4-1-1.4c-0.6,0-0.9,0.3-1.5,0.8v4.5h-1.5L118.8,126.1L118.8,126.1z"/>
	<path id="XMLID_186_" class="st2" d="M128.6,125.9c1.7,0,2.6,1.2,2.6,3c0,0.3,0,0.5-0.1,0.7H127c0.1,1.2,0.9,1.8,1.9,1.8
		c0.5,0,1-0.2,1.5-0.5l0.5,0.9c-0.6,0.4-1.4,0.7-2.2,0.7c-1.8,0-3.1-1.2-3.1-3.3C125.7,127.2,127.1,125.9,128.6,125.9z M129.9,128.7
		c0-1-0.4-1.6-1.3-1.6c-0.8,0-1.4,0.6-1.5,1.6H129.9z"/>
	<path id="XMLID_189_" class="st2" d="M135,125.9c0.7,0,1.2,0.3,1.7,0.7l-0.1-1v-2.3h1.5v9.2h-1.2l-0.1-0.7h-0.1
		c-0.5,0.5-1.1,0.8-1.8,0.8c-1.6,0-2.6-1.2-2.6-3.3C132.3,127.2,133.6,125.9,135,125.9z M135.3,131.4c0.5,0,0.9-0.2,1.3-0.7v-3
		c-0.4-0.4-0.9-0.5-1.3-0.5c-0.8,0-1.5,0.8-1.5,2.1S134.4,131.4,135.3,131.4z"/>
</g>
</svg>
